<svg xmlns="http://www.w3.org/2000/svg" viewBox="0 0 200 200" height="400" width="400"><g fill="#000000"><path d="M34 93.77a.68.68 0 0 0-.78.63.78.78 0 0 0 .21.57.81.81 0 0 0 1.14 0 .7.7 0 0 0-.57-1.2zm.25.63a.25.25 0 0 1-.49 0A.33.33 0 0 1 34 94a.34.34 0 0 1 .29.4zm-12.98-.63a.63.63 0 0 0-.5.12c-.82.56.31 1.9 1.07 1.07a.7.7 0 0 0-.57-1.19zm.16.79c-.32.3-.65-.45-.16-.55a.33.33 0 0 1 .16.55zm-.3-4.49a.1.1 0 0 0 0-.16.12.12 0 0 0-.17 0s-.18.16-.46.44a29.81 29.81 0 0 0-3.13 3.8c-.28.4-.44.66-.44.66s.08.28.18.16a25.88 25.88 0 0 0 4.02-4.9zm-2.83.87a.67.67 0 0 0-.78-.63.63.63 0 0 0-.5.12.76.76 0 0 0-.28.51.78.78 0 1 0 1.56 0zm-.78-.4c.49.11.18.86-.15.55a.2.2 0 0 1-.09-.15.34.34 0 0 1 .24-.4zm13.06 2.97-.45.66c-.45.65-.54.74-.43.83s.21 0 .74-.57l.55-.58c4.29-4.7 3.56-5.72-.41-.34zm-.29-1.77a.78.78 0 0 0 .57-.24.7.7 0 0 0-.57-1.19c-.92-.2-1.13 1.42 0 1.43zm0-1.2c.33.07.35.61 0 .61s-.29-.54 0-.61zM57.65 77.3c1.09 0 .92-1.62 0-1.43-.93-.2-1.12 1.43 0 1.43zm0-1.19c.34.07.32.61 0 .6s-.34-.53 0-.6zm11.74.23a.78.78 0 1 0 1.56 0 .8.8 0 0 0-1.56 0zm.78-.4c.48.1.18.86-.16.55a.33.33 0 0 1 .16-.55zm-11.41-11.4a3.79 3.79 0 0 1-4.76-.32v1.64s2.79 1.39 4.56.24z"></path><path d="M56.34 64.73a7.39 7.39 0 0 0 2.42-.4c-.06-.33-.4-1.39-2.39-1.33s-2.27.73-2.34 1h.06a4.66 4.66 0 0 0 2.25.73zm14.94-.35a3.77 3.77 0 0 1-4.74-.32v1.64s2.79 1.39 4.56.24zm10.36 14.97c-1.36 0-2.47 2.07-2.47 4.63s1.11 4.63 2.47 4.63 2.47-2.08 2.47-4.63-1.11-4.63-2.47-4.63zM62 80.53a.7.7 0 0 0-.56-1.2.66.66 0 0 0-.51.13c-.93.54.29 1.86 1.07 1.07zm-.56-1c.49.1.17.85-.16.55a.33.33 0 0 1 .12-.51z"></path><path d="M70.06 64.48a8.57 8.57 0 0 0 1.22-.31c0-.33-.39-1.39-2.39-1.33s-2.27.73-2.33 1a4.37 4.37 0 0 0 3.5.64zm4.42 15.89a.7.7 0 0 0-.56-1.2.66.66 0 0 0-.51.12c-.85.59.34 1.87 1.07 1.08zm-.56-1c.34.07.33.61 0 .61s-.35-.5 0-.57zM57.05 80.4a.1.1 0 0 0 0 .16.12.12 0 0 0 .17 0c.1-.1.66-.64 1.12-1.14a29.59 29.59 0 0 0 2.56-3.24l.35-.53a.12.12 0 0 0 0-.17.11.11 0 0 0-.16 0s-.18.16-.46.44a27.74 27.74 0 0 0-3.58 4.48zm12.52-.16a.12.12 0 1 0 .18.15c.1-.1.66-.64 1.12-1.14a27.18 27.18 0 0 0 2.91-3.77.14.14 0 0 0 0-.17.12.12 0 0 0-.17 0s-.18.16-.46.44-.42.42-.67.69a27.2 27.2 0 0 0-2.91 3.8zm23.04-.92c-1.36 0-2.46 2.08-2.46 4.63s1.1 4.64 2.46 4.64 2.47-2.08 2.47-4.64-1.08-4.63-2.47-4.63z"></path><path d="M109.5 97.9h-1c.4-26.75.23-26.31-.45-27.7-.87-1.77-2.44-2.34-2.88-3.11a5.84 5.84 0 0 1-.48-1.32 14.38 14.38 0 0 1-.33-1.73h.15l-.1-2.51h-6v2.52H99c-.26 1.42-1.24 1.87-2.85 4-1-.85-1.28-.83-1.7-2.45a12.63 12.63 0 0 1-.33-1.73h.15l-.11-2.51h-6v2.51h.51c-.26 1.43-1.23 1.85-2.83 3.95-1.23-1.07-1.86-.95-2.31-4.41h.16l-.11-2.51h-6v2.51h.52c-.26 1.41-1.25 1.88-2.8 3.9l-3.14-5a.25.25 0 0 0-.12-.11v-2.12a.22.22 0 0 0-.22-.22l-2-.05h-6c-1.17 0-2 .06-2 .06a.22.22 0 0 0-.22.22l.09 2.14-1.05 1.47-.87-1.38a.25.25 0 0 0-.12-.11v-2.12a.22.22 0 0 0-.23-.22h-8c-1.17 0-2 .06-2 .06a.22.22 0 0 0-.23.22l.1 2.14-1.06 1.32c-.7-1.09-.66-1.12-.8-1.18l.05-2.12a.22.22 0 0 0-.23-.22h-8c-1.17 0-2 .06-2 .06a.22.22 0 0 0-.22.22l.1 2.1c-.1.08-.12.13-2.74 3.34l-1.92-3a.11.11 0 0 0 .06-.1l.05-2.38a.22.22 0 0 0-.23-.22l-2-.06h-6c-1.17 0-2 .06-2 .06a.22.22 0 0 0-.22.22c.11 2.15.05 2.27.15 2.35l-1.27 1.6 2.76 4h1.3v31.37h-1.81V68.24a.12.12 0 0 0-.12-.12h-.07l-3.43-5.45c.1-.07 0 0 .11-2.48a.22.22 0 0 0-.23-.22l-2-.06h-6c-1.93 0-2.21 0-2.21.28.1 1.91.05 2.26.15 2.34l-4.12 5.3a.11.11 0 0 0-.07 0 .12.12 0 0 0-.12.12S5 90.36 5 91.35c0 1.79.15 7.81.15 7.81l.13 4.38 5.12 1.51 99.09-2.23zM10 62.53l.09-2h1.78c.86 0 7.53 0 7.73-.06l.15 2.14zm9 1.94-.48.13a5.08 5.08 0 0 1-4.14-.46h-.06c.08-.27.47-.91 2.33-1s2.32 1 2.38 1.31zm0 .25-.17 1.54c-1.72 1.14-4.5-.26-4.5-.26v-1.6a2.18 2.18 0 0 0 .4.36 3.76 3.76 0 0 0 4.33-.04zM10.23 100l-4.85-.78s.16-22.2.15-23.43c0-1.45-.14-7.7-.15-7.8l7.18.35v31.58zm2.45-31.8a.12.12 0 0 0-.11.09 39.44 39.44 0 0 1-2.77-5.65.12.12 0 0 0 .16-.08 40.54 40.54 0 0 1 2.77 5.61zm.12 31.75c0-.08.18-16.1.18-16.24.17-.43.49-1.25.7-1.66a17 17 0 0 1 .44 2.12.21.21 0 0 0 .21.18.22.22 0 0 0 .21-.18c0-.1.39-2.13.77-2.12.51.44 1.06 2.82 1.09 2.92a.29.29 0 0 0 .25.22A.28.28 0 0 0 17 85l1-2.43.8 2.37a.29.29 0 0 0 .3.2.31.31 0 0 0 .27-.24 19 19 0 0 1 .7-2.64 14.32 14.32 0 0 1 .33 2.35.28.28 0 0 0 .26.26.29.29 0 0 0 .31-.2 22.48 22.48 0 0 1 1.11-3.14 29.3 29.3 0 0 1 0 3.75.2.2 0 0 0 .17.21.2.2 0 0 0 .23-.14l.62-2.56c0 .43.16 16.47.17 16.9zm10.38-27.72c0 1.15-.08 8.9-.09 9.4 0 .17-.38 1.38-.49 1.78 0-.89.19-2.84-.55-2.62a.65.65 0 0 0-.3.25 10 10 0 0 0-.91 2.12 9.91 9.91 0 0 0-.18-1c-.22-.82-.64-.82-.89-.54a1.79 1.79 0 0 0-.3.55 14.05 14.05 0 0 0-.47 1.58l-.71-2.09a.29.29 0 0 0-.54 0l-1 2.4c-.2-.7-.74-2.54-1.45-2.53-.37 0-.6.36-.74.7a5.77 5.77 0 0 0-.26.8c-.1-.47-.3-1.43-.61-1.46s-.37.37-.72 1.35c0-.93-.18-14.62-.18-14.62h10.48s-.04 1.53-.09 3.93zm39.09-12h1.77c.87 0 7.53-.06 7.74-.07l.13 1.84h-9.73zm-12.52.16h1.77c.87 0 7.53-.06 7.74-.07l.12 1.85h-9.72zm-12.1.2h1.78c.87 0 7.53-.06 7.73-.06l.13 1.84h-9.72zm-14.92 2 .09-2h1.78c.86 0 7.53 0 7.73-.06l.15 2.14zm9.07 1.94a8 8 0 0 1-2.38.36 5.17 5.17 0 0 1-1.71-.41c-.5-.22-.52-.3-.59-.31.08-.27.47-.91 2.33-1s2.31 1 2.38 1.31zm0 .25-.17 1.54C29.88 67.4 27.1 66 27.1 66v-1.6a2.18 2.18 0 0 0 .4.36 3.76 3.76 0 0 0 4.33-.04zm-6.5 3.56c-.1-.17-.57-.93-.79-1.34a35 35 0 0 1-2-4.31.12.12 0 0 0 .19-.1 34.19 34.19 0 0 1 2.79 5.65.12.12 0 0 0-.16.04zm.24 31.37c0-.46.18-15.84.18-16 .16-.43.49-1.25.69-1.66a15.8 15.8 0 0 1 .45 2.12.2.2 0 0 0 .21.18.2.2 0 0 0 .2-.18c0-.1.47-2.39.81-2.1.51.42 1.06 2.82 1.09 2.92a.29.29 0 0 0 .25.22.28.28 0 0 0 .28-.17l1-2.43.8 2.37a.28.28 0 0 0 .3.2c.48 0 .28-1.29 1-2.88.48 1.59.08 2.56.59 2.61s.25-.33 1-2.38a8 8 0 0 1 .4-1 28 28 0 0 1 0 3.75.2.2 0 0 0 .17.21.2.2 0 0 0 .23-.14l.62-2.56c0 .43.15 16.11.17 16.64zM35 81.31zm1-9.08c0 1.15-.09 8.9-.09 9.4 0 .17-.38 1.38-.49 1.78a15 15 0 0 0 0-2.06c-.11-.72-.64-1-1.29.57-.16.39-.31.83-.45 1.24a4 4 0 0 0-.42-1.54.43.43 0 0 0-.32-.16.4.4 0 0 0-.33.17 1.79 1.79 0 0 0-.3.55 12.2 12.2 0 0 0-.45 1.57c-.73-1.94-.62-2.27-1-2.28s-.26.3-1.28 2.57a11.36 11.36 0 0 0-.57-1.6c-.6-1.31-1.41-1.35-1.88.57-.5-2.18-.75-1.68-1.34-.11 0-.93-.17-14.62-.17-14.62H36v3.95zm0-4.13L34.71 66l2.7-3.05.19.49a29.44 29.44 0 0 0 2.4 4.7L36.16 68a.13.13 0 0 0-.16.1zm4 20.79c0 1.1.15 9.91.16 10.45l-3.86.08V68.27s3.67.25 3.89.25C40.14 69 40 87.35 40 88.89zm-2.27-26.1 9.55.18L50.46 68c-.94 0-9.19.07-10.12.09a28.81 28.81 0 0 0-2.62-5.3zm2.69 36.55c0-.55.15-8.63.16-9.34H50.7c0 .71.14 8.57.15 9.12zm10.36-27.06c0 1.15-.09 14.1-.09 15.18H40.57c0-1.1-.15-18.44-.16-18.93 1 0 9.88.09 10.45.09-.01.56-.04 1.87-.08 3.66zm-2.29-8.48 1-1.14A28.23 28.23 0 0 0 52.14 68a10.25 10.25 0 0 1-1 0zm3.59 24.89c0 1.1.15 9.85.16 10.4h-1.11V68.57a4.47 4.47 0 0 1 1.14-.06c-.03.49-.19 18.64-.19 20.18zm-2.29-26.14 9.57.22 3.2 5.07-10.12.16a28.15 28.15 0 0 0-2.65-5.45zm2.72 36.54c0-.55.14-8.58.15-9.29h10.13c0 .71.14 8.52.15 9.07zm10.37-27c0 1.15-.1 14.1-.09 15.18H52.67c0-1.1-.16-18.53-.17-19l10.5.15c-.06.58-.09 1.87-.12 3.66zm-2.11-8.16L62 62.5a29.56 29.56 0 0 0 2.62 5.31h-1.45zm3.83 24.6c0 1.1.14 9.75.16 10.3h-1.54V68.36a5.13 5.13 0 0 1 1.56-.26c-.02.48-.18 18.9-.18 20.43zm.18-21.22a27.52 27.52 0 0 0-2.47-4.91l9.57.21 3.2 5.07c-.94 0-9.18.1-10.12.12-.03-.1-.1-.27-.18-.49zM65 98.83c0-.55.15-8.49.15-9.19h10.17c0 .71.13 8.43.14 9zm10.4-26.91c0 1.15-.09 14.1-.09 15.17H65.19c0-1.1-.16-18.5-.17-19l10.45.13c-.01.59-.04 1.91-.07 3.7zm.34 26.68V68.23a.34.34 0 0 0 .12-.12.29.29 0 0 0 0-.3l-.28-.44c1.64-2 2.77-2.56 3.05-4.1h4.47a10 10 0 0 0 .84 3.34 3.29 3.29 0 0 0 .79.86 8.26 8.26 0 0 1 1.72 1.66 5.4 5.4 0 0 1 .86 3.21c0 1.29.15 24.71.17 26zm12-.25c0-1.31.17-24.72.17-26a6.33 6.33 0 0 0-.6-2.88 5.14 5.14 0 0 0-1.2-1.58c1.54-1.9 2.77-2.59 3.05-4.09h4.47a16.11 16.11 0 0 0 .32 1.89c.69 2.76 1.68 2 3 4a5.5 5.5 0 0 1 .86 3.21c0 1.28.13 23.65.15 25.28zm10.54-.22c0-1.62.16-24 .16-25.27a6.62 6.62 0 0 0-.6-2.89 5.61 5.61 0 0 0-1.47-1.82c1.51-1.89 2.78-2.6 3.06-4.11h4.47a18.11 18.11 0 0 0 .32 1.89c.82 3.34 3.91 2.6 3.9 7.18 0 1.28.12 23.12.15 24.82z"></path><path d="M103.43 79.45c-1.36 0-2.47 2.08-2.47 4.64s1.11 4.63 2.47 4.63 2.47-2.08 2.47-4.63-1.11-4.64-2.47-4.64zm-57.31-2.18a.7.7 0 0 0-.56-1.2.62.62 0 0 0-.51.13c-.85.58.33 1.86 1.07 1.07zm-.56-1c.32.07.34.61 0 .61s-.34-.5 0-.57zm-1.31-11.33a6.84 6.84 0 0 0 1.91-.26 4.34 4.34 0 0 0 .48-.14c-.06-.33-.4-1.38-2.39-1.33s-2.27.73-2.34 1h.05a4.72 4.72 0 0 0 2.29.73z"></path><path d="M46.67 64.74a4 4 0 0 1-2.44.67 3.34 3.34 0 0 1-2.3-1v1.64s2.78 1.39 4.56.25zM45 80.6a.12.12 0 0 0 .19.15l.57-.56a29.87 29.87 0 0 0 3.11-3.82c.36-.53.44-.61.33-.7a.11.11 0 0 0-.16 0s-.18.16-.46.45a13.15 13.15 0 0 0-1.09 1.16A27.67 27.67 0 0 0 45 80.6zm3.52-.44a.79.79 0 0 0 1.35.57.7.7 0 0 0-.56-1.2.66.66 0 0 0-.51.13.74.74 0 0 0-.28.5zm.57-.21a.33.33 0 0 1 .22-.18c.34.07.32.61 0 .61a.29.29 0 0 1-.22-.38zm70.68-6.86a.12.12 0 1 0-.23 0c0 .12-.07.23-.1.34A6.08 6.08 0 0 1 118 76a.12.12 0 0 0 0 .16.12.12 0 0 0 .17 0 2.77 2.77 0 0 0 1.6-3.07zm8.59 1.35c0-.23-.33 0-1.05-.71a8.1 8.1 0 0 1-1-1.5.12.12 0 0 0-.24 0 2.87 2.87 0 0 0 0 .41c.41 2.04 2.29 2.17 2.29 1.8zM118.65 42a2.68 2.68 0 1 0 2.66-2.36 2.53 2.53 0 0 0-2.66 2.36zm29.13 7.15a2.61 2.61 0 1 0-2.66-2.61 2.64 2.64 0 0 0 2.66 2.61zm-.09-25.61c2.81-.15 8.48-3.2 10.11.06 2 4.06-1.14 6.57-4.56 8.52a13.29 13.29 0 0 0-5.64 8c-.31 1.74 3.58 2.09 3.93 1.08a12.18 12.18 0 0 1 4.91-5.94c3.88-2.21 10.24-6.41 8.2-12.46s-9.14-9.95-18.31-3.72c-1.33.92-.33 4.56 1.36 4.46zm-37.49 3.92c.36-.86 1.86-5.7 4-5.5s3.48 1.54 2.47 4.54-2.25 8.25-.46 11.67c0 0 2.51 1.07 3.92-.84a7.88 7.88 0 0 1-.74-5.18c.7-2.54 2.31-6.31 1.57-8.84-.89-3-3.5-6.17-8.4-5.07s-6 6.36-5.15 7.61c.99 1.54 2.43 2.48 2.79 1.61zm9.57 51.74a.66.66 0 0 0-.74-.51.59.59 0 0 0-.43.74c.11.43.23.85.37 1.27a.66.66 0 0 0 .78.45c.75-.22.25-1.15.02-1.95zm9.13-1.27a.67.67 0 0 0-.74-.51.58.58 0 0 0-.43.74c.11.43.23.85.37 1.27a.65.65 0 0 0 .77.45.59.59 0 0 0 .37-.78c-.13-.38-.24-.78-.34-1.17zm-77.31 37.95a7 7 0 0 0 .37-.83 10.32 10.32 0 0 0-6.87 6 10.25 10.25 0 0 0 6.5-5.17zm91.18 9.62a1.11 1.11 0 1 0 .11 2.22 1.11 1.11 0 0 0-.11-2.22z"></path><path d="M191.94 127a35.53 35.53 0 0 0-7.09-13.6 42.53 42.53 0 0 0-7.5-7 55.85 55.85 0 0 0-11.16-6.27 61.61 61.61 0 0 0-11.92-3.73.14.14 0 0 0 0-.06l-7.9-16.27a.11.11 0 0 0-.08-.07h-.15a.14.14 0 0 0 0 .15s7.08 15.46 7.44 16.22l-11.27 10.78-7.31-9.07c3.8-.86 7.94-3.89 8.66-13.57.53-8.46-1-12-1-12s3.39-3.89 4.73.58c1.43 4.81-1.87 7-1.87 7a1.94 1.94 0 0 0 .61-.08.11.11 0 0 1 .11 0c.8-.28 2-1.14 2.72-3.84 1.46-5.65.43-10.67-3.27-16-4.41-6.3-11.52-8.49-19.63-5-4.06 1.83-8.82 3.75-10.55 12.63a.28.28 0 0 1 .06-.06c-.91 2.65-.38 6.31.28 9a54.92 54.92 0 0 0 3.11 9c.41.91.86 1.87 1.35 2.86l.45.9c.26 1.31 4.1 8.48 8.54 8.71a19.81 19.81 0 0 0 5.5-.15.16.16 0 0 0 0 .16s.66.9 1.59 2.14a61.74 61.74 0 0 0-19.32 9.64c-7.63 5.74-11.93 12.44-13.33 16.85C95.48 115 96 115.76 95.7 116l-.1.06c-.27-.06-2.74-.64-3.55-.81l.2-2.24-4.25-.67-.28 1.4c-.66-1.56-.63-1.61-.81-1.6l-8.68.21a.36.36 0 0 0-.24.13.32.32 0 0 0 0 .27l.73 2a.36.36 0 0 0 .1.14l-1.48 6.18a.23.23 0 0 0 0 .18l17.25 24.27a.23.23 0 0 0 .1.07l3 .81a4.49 4.49 0 0 0 1.64 2.28 4.1 4.1 0 0 0 .64 2.46c-11.88-1.85-20.43-3.23-22.72-8a3 3 0 0 0 0-2.16c-1.3-3.11-13.95-17.87-18.38-20-1.25-.6-3.9-2-4.71-3.13l-2-2.72a9 9 0 0 1-.36 1.11 8.68 8.68 0 0 1-6.65 5l2.35 2.29s.29-.09.76-.29c3.11 3.24-.6 6.21 11.77 17-1 2.65-.9 6.53.86 8.82a9.12 9.12 0 0 0 4.07 2.61c7 2.66 6.77.06 18 8.25 7.13 5.18 19.64 14.32 28.27 15.92.11 1.29.22 2.44.32 3.39a.14.14 0 0 0 .15.12.14.14 0 0 0 .13-.15c-.08-1.46-1.15-27.62-1.19-28.31 2.33-1.07 4-1.09 5.91 0s4.06 3.2 7.27 6.36c2.28 2.25 6.72 6.45 12.16 10.88a120.79 120.79 0 0 0 13.27 9.48c7.27 4.39 14.71 7.35 20.54 6.27 9.79-1.8 16.83-11.26 19.7-20.59l2.13.47a.26.26 0 0 0 .28-.12c0-.22 6.96-10.85.04-36.64zM127.4 89.19c-1.1-.11-.81 1.5-2 1.57s-.73-2.28.45-3c.72-.45 3.63-.44 3.75.91s-1.1.63-2.2.52zm3.79-2c-2.27-2.83-4.68-2.83-6.12-1.83-1.15.79-1.84.57-2.08.45a.12.12 0 0 0 0-.1c-.19-.8-.63-4.11-.65-4.32 0-.36-.08-.71-.12-1 0-.14-.23-1.61-.25-1.7a.12.12 0 0 0-.12-.12.13.13 0 0 0-.12.13 15.82 15.82 0 0 0 1 7.07c-.36 0-1.41.37-1.91 3.07l-.18-.39c-2.19-5-6.64-15.9-4.63-21.11 1.77-1.3 8-4.72 20.82.45v6.76s3.8 3.09 2.92 11a4.56 4.56 0 0 1-3.14 4.13c-2.01.87-4.01-.68-5.42-2.46zm16 16.2c2.72-2.59 5.79-5.52 6.73-6.43a29.83 29.83 0 0 1-.22 6.86 54 54 0 0 1-1 5.44c-.47 1.95-.95 3.54-1.25 4.46-1.63-4.91-4.75-5.27-8.54-6.24.68-.67 2.39-2.28 4.25-4.06zm-10.57-2.79c.34.46 4.22 5.65 5 6.65-2.5.16-5.27 4.23-6.54 6.36a23.61 23.61 0 0 1 1.14-12.86zm-40.81 16 13.66 18.83a.32.32 0 0 0 0 .3l2.78 4.46c-4.55 3.26-6.85 2.71-10.17 2.28-.49-.69-14.08-19.59-14.7-20.44zm-7.52-1.53c.34.06 2.94.55 3.63.66.84.14 3.11.47 3.37.51l-8.11 5.26c.43-2.33.71-3.98 1.08-6.44zm-9.59-2.13c.46 0 7.73-.36 8.14-.39l1 2v.06l-8.56-.16zm.38 2.07 8.65-.16c-.34 2.29-.6 4.23-.86 6.86-.11.07-.08 0-.15.12a60.68 60.68 0 0 0-8.88-.77zm19.09 29.37c-.61.26-.64 1.15-.5 1.81l-2.76-.86-16.9-24a60.76 60.76 0 0 0 8.68.74c0 .07 14.91 20.18 15 20.35-3.56-.46-3.77-.75-3.88-.27a3.67 3.67 0 0 0 .33 2.22zM48.5 123.15c1.54-.68 4.37-2.26 5.55-5a16.52 16.52 0 0 0 4.62 3.22c3.88 2 16.81 16.93 18.07 19.87.49 1.14 0 2.39-.91 3.56-1 1.39-4.16 4.26-5.83 4.37a1.7 1.7 0 0 1-1.07-.25 9.72 9.72 0 0 1-.39-2.93c.12-1.8.09-5-1.61-4.45a1.26 1.26 0 0 0-.39.22c.5-1 .87-2.28-.21-2.61a2.64 2.64 0 0 0-2.39 1 5.35 5.35 0 0 0-.91 1.43c0-.18.06-.35.1-.51.48-2.12-.4-3.61-1.63-2.86a4.38 4.38 0 0 0-1.39 1.79c-12.61-12.57-8.02-13.48-11.61-16.85zm62.69 52.44C100.13 173.32 83.36 158.8 76.8 155c-7.76-4.45-16.53-2.13-16.75-10.81-.13-5.23 3.4-7.61 2.43-3.35a20.69 20.69 0 0 0-.19 5.55.33.33 0 0 0 .65 0c0-2.12.11-4.34 1.46-5.88a2.58 2.58 0 0 1 1-.72 1.2 1.2 0 0 1 .73-.08c.56.16.19 1.12-.07 1.64a11.28 11.28 0 0 0-.87 2.57 21.38 21.38 0 0 0-.42 4 .25.25 0 0 0 .26.23c.47 0 0-.58.51-3.18a8 8 0 0 1 .25-1c.86-3 2.64-3.28 2.38 1.95a9.55 9.55 0 0 0 .41 2.9.13.13 0 0 0 0 .14c.31 1.08.41 1.4.6 1.33a.15.15 0 0 0 .08-.18s-.14-.36-.3-.9a2 2 0 0 0 1 .19c1.78-.07 5-2.85 6.2-4.36a7 7 0 0 0 .9-1.49c2.86 6.17 16.35 7.39 23.18 8 1 1 4.15 1.22 5.9.9a18.24 18.24 0 0 0 4.12-1.38c.05 6.64.34 17.41.93 24.52zM169.7 183c-5.74 1-12.58-1.76-19.7-6.11a125.38 125.38 0 0 1-13.63-9.28c-5.4-4.42-9.82-8.61-12.1-10.85-3.26-3.23-5.45-5.39-7.41-6.48s-4-1.18-6.55 0a17.63 17.63 0 0 1-4.24 1.46 9.88 9.88 0 0 1-4.4-.27 2.21 2.21 0 0 1-1.62-2.33 6.8 6.8 0 0 0 2.77.72 6.41 6.41 0 0 0 3-.24.35.35 0 0 0 .21-.42.34.34 0 0 0-.4-.24c-7.3 1.42-7.88-4.34-7.06-4a4.92 4.92 0 0 0 3.24 1.49 13.61 13.61 0 0 0 4.61-.47.34.34 0 0 0-.17-.66c-3.4.68-7.89.74-7.75-2.73a62.46 62.46 0 0 0 7.34.84c3.17.08 7-2.87 7.07-2.92a.33.33 0 0 0 .08-.44l-2.69-4.28a4.14 4.14 0 0 1 2.32.53 15 15 0 0 1 2.87 2.26 47 47 0 0 0 6.77 5.58c2.31 1.5 6.31 2.52 10.93 3.26 23.27 3.74 22.62 1.2 33.92 7.21a32.31 32.31 0 0 1 7.59 5.76.12.12 0 0 0 .09 0l13.94 2.74c-2.73 8.51-9.6 18.22-19.03 19.87zm21.82-19.8-16.42-3.36a50.78 50.78 0 0 0-7.27-5.57 33.46 33.46 0 0 0-7.31-3.55.12.12 0 0 0 .14-.1c1.23-6.09 4.42-12.77 7.65-18.18.91-1.51 1.51-2.4 1.51-2.4a.12.12 0 0 0 0-.17.14.14 0 0 0-.17 0s-.67.85-1.66 2.32c-3.52 5.25-6.65 11.93-7.54 18.37a.1.1 0 0 0 .06.12c-.34-.11-.67-.21-1-.3-5.38-1.46-17-2-26.25-3.5-4.52-.75-8.44-1.73-10.69-3.22a46.09 46.09 0 0 1-6.67-5.53 15.46 15.46 0 0 0-3-2.36 4.75 4.75 0 0 0-3.23-.55l-5.69-8.16c1.24-3.81 5.8-10.76 13.54-16.59a71.28 71.28 0 0 1 18.39-9.64 23 23 0 0 0-1.2 13.51.25.25 0 0 0 .22.2c.5.07 2.8-5.14 5.85-6.51a2.25 2.25 0 0 1 1.14-.22A48.65 48.65 0 0 0 140 119.2a68.09 68.09 0 0 0 .35 11.85l.17.21a11.42 11.42 0 0 0 2.83.38 7.93 7.93 0 0 0 2.81-.44.11.11 0 0 0 .07-.15.11.11 0 0 0-.15-.07 7.53 7.53 0 0 1-2.72.29 11.39 11.39 0 0 1-2.54-.43c-.83-9.65.07-18.17 1.28-22.9a.26.26 0 0 0 .15 0c3.32 1 7.25.84 8.82 6.82a.3.3 0 0 0 .26.22.29.29 0 0 0 .28-.2 53.72 53.72 0 0 0 2.45-10.9 29.76 29.76 0 0 0 0-7.12l.07-.07a61.73 61.73 0 0 1 11.87 3.85 56.52 56.52 0 0 1 11 6.34 42.76 42.76 0 0 1 7.36 6.93 34.94 34.94 0 0 1 6.93 13.36c2.71 10.09 5.06 26.83.23 36.05z"></path><path d="M143 117.2a1.11 1.11 0 0 0 .11 2.22 1.11 1.11 0 0 0-.11-2.22z"></path></g></svg>