<svg xmlns="http://www.w3.org/2000/svg" viewBox="0 0 200 200" height="400" width="400"><g fill="#000000"><path d="M92.86 50.48c.17.37.56.12.85.07a1.51 1.51 0 0 1 1.2.36c.32.33.52-.45-.5-.88-.41-.19-1.82-.15-1.55.45zm.27-4.04c1.08-.05 2.52-.17 3.27.79a.21.21 0 0 0 .29 0 .2.2 0 0 0 .06-.29c-.68-1.32-2.33-1.53-3.61-1.48-.92.1-.92 1.03-.01.98zM84 49.58c-.33.22-.83 1.63-.1 1.62s.87-2.2.1-1.62zm1.53-5.03c-1.51-.4-3.27.59-3.44 1.47a.21.21 0 0 0 .18.24.17.17 0 0 0 .14 0 3 3 0 0 1 3-.85c.41.08.59-.75.12-.86zM29 41.93c-.79 3 3.71 2.92 3.4.72s-3.01-2.27-3.4-.72zm59.89 108.34c-1.56 2.91-.64 8 3.41 7.91 3.3-.12 4.6-3.8 4.07-6.63a4 4 0 0 0-7.48-1.28zm3.44 7.22c-3.4.2-4.41-4.48-2.88-7a3.34 3.34 0 0 1 6.25 1.16c.51 2.43-.51 5.69-3.37 5.84zM88.86 56.07c-2.32-.06-2.06-.09-2-.83a28.44 28.44 0 0 1 1.21-6.13c.08-.25-.28-.41-.38-.16a22.58 22.58 0 0 0-1.46 6.43c-.09 1.1.29 1.12 1.29 1.26 2.16.3 1.6-.57 1.34-.57z"></path><path d="m194.64 187.12-53.07.07c-.21-.23-2.9-3.73-3.23-3.73h-7.57c-3-7.56-5.79-15.17-8.76-22.72 12.58 0 25.15-.13 37.72 0 10 .08 16.36.41 17.77-11.52 2.2-18.6 9.31-87.3 9.31-87.66.22-6.15 0-9.57-5.78-12.22a19 19 0 0 0-8.84-2h-44.28c.73-5.66 4.7-10.08 6.37-15.39 1.3-4.15 1.11-10.9-1.26-14.66-5.52-8.77-22.14-6.45-24.72 6-4.52-2.92-12.35-3.93-17.8-2.82-9.74 2-14.79 11.46-12.63 20.92a7.28 7.28 0 0 0-4.61 5.91c-5.48 0-11 0-16.45.07A19.68 19.68 0 0 0 52 30.07C42.25 19.61 21.85 19 11.44 28.71c-13.3 12.4-5.73 33.55 20.2 34.15q-4.89 32.7-9.76 65.4c-.9 6-1.64 12-2.59 18-1.62 10.12 1.82 14.38 12.28 14.4h66.82c.09 1.78 3.49 21.48 3.85 22.74-9.8 0-19.61-.16-29.41.06-.52 0-2 3.25-2.21 3.79l-31.47.05c-6.39 0-12.79-.07-19.16.16-.23 0-.24.41 0 .41 11.28.18 22.59.08 33.88.08l140.84-.22c.43.06.36-.61-.07-.61zm-8.51-125.73c-3 28.91-5.94 58.15-9.13 86.75-1 9.32-3.63 11.61-12.2 11.91 5.62-2.38 5.46-10.89 6.11-16.19 1.16-9.38 10.16-84.27 9.62-90.64a6.26 6.26 0 0 0-1.79-4.14c6.93 2.31 7.98 6.52 7.39 12.31zM172.23 48c6.19-.08 8.16 2.06 7.56 8.84-2.52 28.31-6 58.17-9.49 86.64h-7.63c6.64-23.24-9.07-53.65-36.57-67-.19 1.15-1.15 8-1.5 8.68a.35.35 0 0 1-.67-.09c-.12-.69 1.41-8.09 1.56-8.88a64.18 64.18 0 0 0-17-5.21c.16-3.74.31-7.49.46-11.23 6-.2 10.37-6.45 9.46-11.88h5.1a8.93 8.93 0 0 0 4.49 5c.21.11.58-.1.48-.35a10 10 0 0 1-.7-4.69c14.81.07 29.71.34 44.45.17zM90.79 73.43c.29-.3.67-4.58.11-4.65a10.69 10.69 0 0 1-10-5.91c-2.53-5.13-1.6-13.67-.56-19.24.18-.94.36-3.77 1.75-4.15a67.89 67.89 0 0 1 13.13-.57c11.13.84 5.92 2.83 6.33 9.3.11 1.74 1.5 2.9 2.73 1.64-.15 2.75.37 9.82 4.16 9.9a79 79 0 0 0-.67 11.46A36.85 36.85 0 0 1 96 77.79a22.67 22.67 0 0 1-5.21-4.36zm4.84 4.86a19.31 19.31 0 0 0-4.77 5.1 22.05 22.05 0 0 1-2.46-9.7c.63-.09 1.27-.17 1.9-.22.11.86 4.2 4.29 5.33 4.82zm14.56-21a.3.3 0 0 1-.15.4.3.3 0 0 1-.4-.15 15.88 15.88 0 0 1-.84-12.06c1.54-4.62 3.11-3.44 2.57-2.83-3.37 3.72-3.11 10.24-1.18 14.6zm-1.75 14.3 4 1c-4 5.62-6.13 7.3-11.92 10.85a17.39 17.39 0 0 0-4-5.15c4.02-1 8.9-4.01 11.92-6.74zm15-24.26h-5.14a8.75 8.75 0 0 0-1.41-3 16.28 16.28 0 0 0-1.76-11.69 11.78 11.78 0 0 1-1.53-2.73c4.05-2.66 9.3-2.45 11.08 1.64 1.55 3.45-2.2 10.45-1.29 15.74zm-8.92-14.5a15.53 15.53 0 0 1 1.86 10.79 7.82 7.82 0 0 0-2-1.67 22.77 22.77 0 0 0 .09-9.16zM132 17c2.6 3.45 2.9 10.09 1.79 14.12-1.84 6.7-8.78 13.68-6.07 21-3.72-2.69-4.13-4.86-3.72-9.12.43-4 2.83-8.72 1.1-12.06-2.18-4.17-7.52-4.42-11.73-1.55a13.85 13.85 0 0 0-4.55-5.72C111 12.88 125.68 8.58 132 17zm-23.36 8a12.46 12.46 0 0 1 2.89 3.37 16.35 16.35 0 0 0-3-2c.03-.49.07-.95.12-1.37zm3.81 5.2a19.16 19.16 0 0 1 .72 11.17c-1.06-.45-4.65-1.08-5.46-.25a13 13 0 0 0-3.35 8.18c-2.73 2.19-2.19-2.7-2-4 .77-4.37 2.4-6-6.59-6.91a67.46 67.46 0 0 0-14.69.61c-.79-15.08 21.86-18.7 31.38-8.83zm-33.62 4.31c2.27-16.74 22.43-14.87 29.25-10v1.55c-7.35-3.47-18.26-2.78-24.11 3.21A12.86 12.86 0 0 0 80.08 39a6.26 6.26 0 0 0 .23 1.56 12.67 12.67 0 0 0-1.48.34 32.89 32.89 0 0 1 0-6.39zm-1.54 8.25c.35-.38.85-.11.5.28-2.37 2.64-1.82 7.5-.72 10.57a.3.3 0 0 1-.54.24c-1.8-3.17-1.85-8.21.76-11.09zm-50 19.12c-5.16-.64-10.34-2.25-14.46-5.51C4.64 50 3.3 39.83 9.68 31.59c11.15-14.38 41.87-11.75 46.37 7.49a17.51 17.51 0 0 1-1.32 12.08c-.13.4-.14.65.23 1.67 1.39 3.8 6.24 8 10.12 9-4.84 1.05-11.31-1.14-15-4.5-.4-.37-.55-.38-.69-.28a24.3 24.3 0 0 1-5.77 3.3 34.11 34.11 0 0 1-16.37 1.53zm-2.62 52q3.82-25.47 7.63-51c6.19 0 12.53-1.4 17.46-5.31 2.4 3.3 11.27 6.21 16.44 4.58.4-.13.86-.62.29-.7-6.71-.93-11.49-8.45-11.32-9.8a16.24 16.24 0 0 0 1.52-3.86c5.49.11 11 .1 16.49.1-.3 3.06.09 5.69 2.61 7.75-9.62 4.55-10 15.06-.4 14.85.39 1.65 3 1.76 4.29 1.7 3.64-.19 3.71-3.89-.16-4.23-1.4-.13-4.19-.08-4.18 1.86-10.53-1.24-5.46-10.88 1.14-13.64a7.19 7.19 0 0 0 2.35 1.13c.39 4.13 1.73 7.83 5.31 10.23a10.8 10.8 0 0 0 6.49 1.89l-.34 3.47A42.2 42.2 0 0 0 82 74.61c-.91.3-1.82.65-2.73 1-2 3.89-4.2 7.69-6 11.67-3.34 7.14 3.73 7.3 2.62 11.32-.64 2.27-2.85 2.68-1.58 7.73 1.55 6.14 6.48 16.37 9.55 22.08.5-1.07 1-2.12 1.55-3.19-5.73-14.77-4.68-39.73-3.49-50a36.8 36.8 0 0 1 5.86-1.42c0 5.24 2.57 10.83 3.11 10.23l1.61-1.9c.41 1.74 1.12 3.77 1 4.33s-9.31 22.06-9.81 23.9c.48 2.42 2 11 2.29 11.65 1.08-1.9 6.59-10 7.24-11 .17-2.2 1.7-23.65 2-24.2a42 42 0 0 1 4.22-4c.1.16 1 1.86 1.29 1.06 4.09-1.73 10.22-7.1 12.46-11.13a68 68 0 0 1 8.75 2.67 68.31 68.31 0 0 0-6.58 6.92 3.57 3.57 0 0 0-3.49 1.4 4.34 4.34 0 0 0-3.13.88c-1.06-.46-4.21-2.28-5.22-1.3-.66.63-.13 1.27.41 1.71a64.87 64.87 0 0 1 5.37 5c-7.4 9.89-15.07 21.86-20.32 30.58a90.34 90.34 0 0 0-4.67 9.14 129.16 129.16 0 0 0 19.06-15.78c3.69-3.73 6.31-6.79 5.21-12.55-.66-3.41-.63-5.75 3-7.23.46-.18.74.57.32.76-6.76 2.91 2.05 8.69-5.62 17.23a115.77 115.77 0 0 1-14.63 13.27 88.25 88.25 0 0 1-7.83 5.51c-.46 1.12-.91 2.27-1.3 3.41l-.83-.39a35.09 35.09 0 0 1 1.82-4.55c-2.83-4.71-9.51-19-10.26-24.37-.83-5.91 4.19-5.73.76-9.47-1.22-1.33-2.19-2.34-2.37-4.25-.35-3.93 4.66-11.58 6.6-15.18-27.29 12.41-45.25 37.3-43.28 68.05-5 0-9.93.08-14.88.2 1.6-10.18 3.02-20.4 4.55-30.52zm60.21 28.77a14.94 14.94 0 0 0-.59-3c-.13-.24-.56-.21-.56.11 0 1.09.94 3 .4 6.22-.38 2.28-1.72 4.4-1.75 2 0-1.25-.67-5.29-1.32-5.51-.28-2.57-1-1.75-.91-1.39 1.25 5.46-1.37 8-1.66 7.35s.72-4.45-2-6.43a.17.17 0 0 0-.25 0 .18.18 0 0 0 0 .26 5.35 5.35 0 0 1 1.06 1.66h-7c-.42-4.77 2.11-10 7-11.46a80.11 80.11 0 0 0-19.91-2.73c-2.73.08-5.49.17-8.24.23a.27.27 0 0 1 0-.54 47 47 0 0 1 7.74-.48c-.51-7.13 3.63-19.71 5.91-26.23 2.65-7.62 3.07-5.69 3-5.49A40.05 40.05 0 0 0 63 104c-2.73 8.09-5.31 16.38-5.37 25a79 79 0 0 1 21.12 3.07c.54.16.34.82-.18.87a6.22 6.22 0 0 0-1.48.33l2.13.46c4.74 1.23 8.8 5 9 10.16.11 3.18-2 6.14-2 3.74-.1-2.75-.56-2.99-1.38-4.98zm2.12-4.43a11.89 11.89 0 0 0-2.31-2.49c3.38.83 6.64-.74 5.77.53a5.09 5.09 0 0 1-3.46 1.96zM57.29 160.1c-8.51 0-17 0-25.54.1-13.95.16-12.51-8.78-11.75-15.14 9.78.13 19.55-.23 29.33-.28l28.2-.15c.43 1.52.15 3.45.34 4 .58 1.59 3.19-.41 3.19-5a18.48 18.48 0 0 1 .69 4.89c.18 2.58 3.19.86 3.14-4.7 1 3.24.22 5.35 1.74 5.33s2.21-3.35 2.25-4.55l44.7-.24c-6.36-7.65-20.74-36.26-20.28-46.55 0 0 1.47-1.55 1.64-1.75-2.94-4.49-6.8-8.1-10.79-11.62-.21-.19-.51-.46-.17-.7.76-.52 5.09 1.61 6 2.25.11.07.89 0-.91-1.13 2.76-1.3 4.18.07 4.74.13s.54-.77-1.42-1.16c2.92-2.71 6.14 1.31 6.5.45.87-2.06 1.49-4.32 3.18-5.88 2.32-2.1-1.92 4.55 2.08 11.22.34-.14 1.91-.9 2.23-.72 9.67 4.92 26.73 23.3 31.89 32.19a.28.28 0 0 1-.48.28c-5.41-8.73-22.2-26.76-31.76-31.66A65.21 65.21 0 0 0 114 98.05c.64 10.62 14.18 40.36 21.89 47.52 7.68 6.51 23.22 8.72 26.6-1.41h7.76c-.29 2.22-.35 4.49-.7 6.63-1.07 6.6-3.05 9.27-9.74 9.27l-102.52.04zm41.54.63h22.63c2.16 6.92 5.64 15.11 8.64 22.74h-27.22c-.11-4.42-2.95-18.96-4.05-22.74zm-27.71 26.58 1.77-3.23c19.39-.11 46.1.38 65.35 0a22.36 22.36 0 0 0 2.49 3.08z"></path><path d="M98 59.3c0-.46-.24-2.44-.66-2.73-.6-.38-.83.91-1.45 1.47-1.14 1.05-3.69 1.51-5.15 1.43-.15 0-.36.12-.35.26a3.76 3.76 0 0 0 4.14 3.34A4 4 0 0 0 98 59.3zm-7.14.58c2 .4 5.11-.45 6.21-2.38.27 1.36.7 2.58-.66 4a3.29 3.29 0 0 1-5.55-1.62zm-49-16.55C43 41.77 40.6 40.09 39.25 41c-2.16 1.31.75 4.86 2.61 2.33zM21 40.88a1.58 1.58 0 0 0 .25 3.12c1.89-.18 1.82-3.36-.25-3.12z"></path></g></svg>