<svg xmlns="http://www.w3.org/2000/svg" fill="none" viewBox="0 0 200 200" height="400" width="400"><g id="emptystates-add-product--e-commerce-emptystates-add-product"><g id="mobile"><path id="vector" fill="#000000" d="M81.921 175.856C78.442 175.901 75.65 178.768 75.695 182.246C75.74 185.724 78.613 188.529 82.085 188.471C85.564 188.426 88.356 185.559 88.311 182.081C88.265 178.603 85.391 175.777 81.921 175.856Z"></path><path id="vector_2" fill="#000000" d="M122.496 147.661C122.332 153.241 122.143 158.426 121.934 163.085C121.965 165.47 120.05 167.435 117.665 167.466C117.62 167.466 117.575 167.473 117.532 167.486C105.777 170.863 58.372 171.55 46.103 168.417C46.062 168.406 46.012 168.401 45.97 168.401C43.604 168.413 41.62 166.517 41.588 164.106C41.569 163.825 39.69 135.503 38.295 92.939C36.9 50.398 39.653 18.242 39.683 17.872C39.652 15.585 41.434 13.528 44.013 13.486C44.156 13.466 58.564 11.523 81.235 10.969C105.791 10.373 115.433 12.521 115.527 12.543C115.698 12.584 117.307 12.405 118.721 13.783C119.548 14.589 120.012 15.67 120.03 16.871C120.374 20.086 120.686 23.556 120.967 27.236C124.003 26.883 127.047 26.598 130.095 26.378C129.509 14.789 128.98 10.777 128.971 10.727C128.933 7.79104 126.525 5.44104 123.663 5.47804C123.361 5.43004 115.864 4.29304 80.047 4.76004C40.818 5.27104 38.651 6.59104 34.315 6.64904C29.482 6.71304 24.574 9.20404 24.029 14.358C22.779 26.158 23.994 164.359 26.381 186.403C26.454 192.039 33.551 194.372 38.249 194.281C48.025 195.43 71.416 195.538 82.013 195.484C114.513 195.316 126.001 193.15 126.024 193.137C128.96 193.099 131.258 190.679 131.279 187.764C131.28 187.593 131.608 175.601 131.699 146.58C128.637 146.985 125.567 147.345 122.495 147.663L122.496 147.661ZM27.379 186.347C24.868 160.176 23.888 25.357 24.989 14.507C25.408 10.381 28.998 8.32304 32.57 7.78904C31.289 8.82204 30.599 10.34 30.582 11.985C30.58 12.201 29.836 34.225 30.527 91.472C31.217 148.715 32.873 188.642 32.889 189.025C32.908 190.447 33.482 191.78 34.501 192.773C29.814 191.736 27.422 189.591 27.379 186.347ZM82.002 189.972C77.744 189.972 74.252 186.536 74.196 182.266C74.14 177.96 77.597 174.412 81.902 174.356C86.196 174.301 89.755 177.756 89.811 182.062C89.867 186.4 86.357 189.972 82.002 189.972Z"></path></g><g id="cart"><path id="vector_3" fill="#000000" d="M143.84 151.677C143.059 147.655 138.529 147.348 137.253 149.474C136.338 150.998 136.058 152.863 136.485 154.589C137.468 158.558 141.834 157.133 143.093 155.35C143.81 154.334 144.09 152.961 143.84 151.677ZM137.456 154.349C137.092 152.877 137.33 151.288 138.11 149.989C139.029 148.457 140.749 149.705 141.284 151.564C141.973 153.955 140.334 156.287 139.029 156.182C138.239 156.117 137.67 155.215 137.456 154.349Z"></path><path id="vector_4" fill="#000000" d="M110.738 157.579C108.807 157.579 107.56 157.158 105.686 156.487C68.318 143.108 69.201 143.7 67.761 142.293C65.33 139.917 66.068 136.204 64.724 133.383C64.605 133.134 64.711 132.835 64.96 132.716C65.208 132.598 65.508 132.703 65.627 132.952C66.98 135.792 66.394 139.558 68.46 141.577C69.665 142.754 68.489 142.107 106.023 155.545C108.973 156.601 109.86 156.763 113.294 156.408C122.567 155.452 131.868 153.873 140.938 151.714C141.585 151.56 142.212 151.357 142.421 150.916C142.819 150.073 141.487 149.17 140.628 148.802C138.734 147.991 136.779 147.25 134.816 146.599C134.554 146.512 134.412 146.229 134.499 145.967C134.586 145.705 134.868 145.562 135.131 145.65C137.12 146.31 139.101 147.061 141.021 147.882C142.52 148.524 144.02 149.869 143.325 151.342C142.882 152.278 141.768 152.543 141.169 152.685C127.452 155.95 113.572 157.576 110.737 157.576L110.738 157.579Z"></path><path id="vector_5" fill="#000000" d="M74.742 146.497C73.971 142.529 69.496 142.181 68.216 144.316C67.31 145.825 67.033 147.671 67.457 149.38C67.732 150.494 68.537 151.834 69.897 151.945C71.092 152.039 73.101 151.412 74.003 150.135C74.713 149.129 74.99 147.769 74.743 146.496L74.742 146.497ZM68.427 149.14C68.067 147.685 68.302 146.115 69.073 144.83C70.013 143.262 71.712 144.675 72.204 146.386C72.886 148.754 71.26 151.055 69.978 150.948C69.2 150.885 68.638 149.994 68.427 149.14Z"></path><path id="vector_6" fill="#000000" d="M111.086 159.842C110.211 155.344 105.146 154.914 103.686 157.346C102.649 159.073 102.332 161.186 102.817 163.141C103.909 167.548 108.749 166.104 110.245 163.988C111.054 162.842 111.368 161.292 111.086 159.842ZM103.787 162.902C103.366 161.201 103.641 159.364 104.543 157.861C106.268 154.985 110.323 160.156 107.542 163.939C106.11 165.884 104.336 165.119 103.788 162.901L103.787 162.902Z"></path><path id="vector_7" fill="#000000" d="M136.69 97.9139C134.407 99.6689 132.845 100.25 129.188 100.819C121.416 102.031 113.513 102.397 105.663 101.908C103.448 101.769 102.824 101.477 101.33 100.065C98.736 97.6129 96.288 95.0079 93.998 92.2699C82.566 92.1939 71.1 92.9229 59.279 94.4699C56.634 91.6549 53.737 89.0499 50.657 86.7199C49.319 85.7119 47.791 84.9919 46.516 86.7729C45.501 88.1929 45.833 90.4459 47.624 91.2799C48.58 91.7249 49.611 91.5639 50.316 90.7679C52.695 93.1119 55.153 95.4059 57.645 97.6099C57.43 109.147 59.406 121.067 62.926 132.153C62.964 132.273 63.046 132.374 63.155 132.436C71.795 137.374 81.639 141.459 92.954 144.787C94.826 145.529 109.988 149.168 110.857 149.168C112.001 149.168 129.539 147.902 146.743 144.699C146.917 144.667 147.061 144.545 147.121 144.379C149.352 138.233 151.21 131.781 152.656 125.072C153.732 121.535 155.92 105.105 155.782 103.519C155.634 102.633 147.07 100.24 136.689 97.9129L136.69 97.9139ZM49.184 90.4079C48.364 90.8149 47.249 90.0859 47.03 89.1829C46.571 87.2989 48.267 86.0679 49.311 87.0079C50.189 87.7989 50.332 89.8379 49.184 90.4079ZM141.488 105.718C141.339 108.93 141.11 112.142 140.803 115.347C135.639 116.288 130.532 117.051 125.534 117.629C125.603 114.123 125.584 110.612 125.478 107.113C130.887 106.726 136.228 106.259 141.488 105.718ZM125.512 118.638C130.484 118.066 135.565 117.311 140.701 116.382C140.333 120.028 139.865 123.667 139.296 127.289C134.448 128.221 129.653 128.974 124.965 129.541C125.24 125.912 125.423 122.275 125.512 118.638ZM139.128 128.339C138.655 131.253 138.117 134.155 137.515 137.043C132.939 137.981 128.415 138.732 123.997 139.292C124.353 136.389 124.649 133.476 124.885 130.559C129.545 130 134.31 129.257 139.128 128.339ZM107.695 130.783C107.243 127.165 106.974 123.537 106.89 119.929C112.527 119.82 118.433 119.423 124.508 118.751C124.417 122.39 124.231 126.029 123.952 129.66C118.344 130.308 112.895 130.686 107.695 130.783ZM123.872 130.676C123.633 133.597 123.333 136.512 122.974 139.418C118.283 139.981 113.717 140.325 109.34 140.438C108.719 137.57 108.214 134.679 107.825 131.781C112.963 131.682 118.34 131.309 123.872 130.676ZM107.29 108.102C113.079 107.88 118.814 107.572 124.479 107.178C124.585 110.695 124.602 114.219 124.53 117.743C118.44 118.42 112.519 118.82 106.871 118.93C106.821 115.289 106.96 111.67 107.29 108.102ZM108.278 140.256C104.789 139.342 98.615 137.668 91.641 135.512C91.145 132.827 90.744 130.131 90.414 127.429C96.057 129.005 101.682 130.436 106.796 131.635C107.175 134.521 107.67 137.399 108.277 140.257L108.278 140.256ZM90.563 135.176C85.882 133.712 80.891 132.042 76.141 130.247C75.623 127.721 75.162 125.182 74.758 122.634C79.391 124.204 84.376 125.724 89.37 127.135C89.691 129.821 90.081 132.504 90.562 135.176H90.563ZM90.287 126.355C89.886 122.878 89.599 119.396 89.372 115.923C95.06 117.397 100.734 118.735 105.888 119.853C105.968 123.418 106.227 127.001 106.662 130.576C101.536 129.369 95.913 127.933 90.287 126.355ZM106.294 108.02C105.964 111.582 105.825 115.193 105.871 118.826C100.693 117.699 95 116.354 89.306 114.873C89.084 111.267 88.924 107.674 88.769 104.111C94.705 105.561 100.532 106.86 106.294 108.02ZM89.247 126.062C84.222 124.637 79.218 123.103 74.587 121.521C74.075 118.146 73.664 114.755 73.355 111.356C78.091 112.857 83.216 114.311 88.355 115.657C88.576 119.119 88.857 122.592 89.248 126.061L89.247 126.062ZM87.758 103.864C87.912 107.42 88.07 111.007 88.288 114.608C83.126 113.252 77.989 111.788 73.259 110.279C72.967 106.824 72.779 103.361 72.697 99.8959C77.813 101.328 82.824 102.647 87.758 103.864ZM58.049 94.6479C57.618 94.8139 57.715 95.2559 57.681 96.3039C55.354 94.2269 53.061 92.0739 50.838 89.8779C50.998 89.4289 51.062 88.9189 50.954 88.2129C54.386 90.9009 58.15 94.6089 58.049 94.6479ZM58.7 95.7829C63.114 97.1389 67.438 98.4139 71.691 99.6129C71.766 103.062 71.945 106.509 72.228 109.948C67.035 108.263 62.381 106.528 58.791 104.829C58.614 101.765 58.583 98.7419 58.7 95.7829ZM58.864 105.966C62.511 107.651 67.163 109.364 72.321 111.027C72.621 114.414 73.021 117.792 73.521 121.155C68.323 119.348 63.642 117.487 59.997 115.66C59.465 112.403 59.086 109.163 58.865 105.966H58.864ZM60.201 116.876C63.9 118.675 68.557 120.501 73.69 122.27C74.083 124.798 74.531 127.318 75.036 129.827C70.019 127.895 65.326 125.829 61.621 123.729C61.074 121.444 60.6 119.156 60.201 116.876ZM63.822 131.666C63.129 129.47 62.504 127.264 61.947 125.055C65.707 127.104 70.352 129.112 75.274 130.987C75.769 133.36 76.314 135.723 76.908 138.073C72.256 136.121 67.903 133.989 63.823 131.666H63.822ZM78.061 138.551C77.451 136.182 76.891 133.8 76.383 131.406C81.147 133.188 86.122 134.842 90.769 136.288C91.233 138.732 91.778 141.166 92.419 143.586C87.339 142.066 82.562 140.391 78.061 138.551ZM93.544 143.919C92.887 141.502 92.328 139.068 91.852 136.624C98.977 138.816 105.206 140.493 108.517 141.353C109.018 143.595 109.588 145.823 110.227 148.03C104.331 146.816 98.779 145.448 93.544 143.919ZM121.857 147.219C118.393 147.571 114.871 147.876 111.299 148.132C110.649 145.919 110.068 143.683 109.559 141.433C113.83 141.316 118.279 140.982 122.844 140.44C122.552 142.706 122.223 144.966 121.857 147.219ZM122.887 147.113C123.251 144.855 123.578 142.588 123.868 140.316C128.255 139.768 132.745 139.03 137.288 138.11C136.755 140.598 136.175 143.074 135.547 145.537C131.427 146.135 127.203 146.662 122.887 147.113ZM146.278 143.771C143.132 144.353 139.91 144.89 136.619 145.38C137.246 142.897 137.826 140.4 138.358 137.891C141.891 137.155 145.454 136.309 149.021 135.358C148.188 138.209 147.273 141.014 146.279 143.771H146.278ZM149.343 134.236C145.743 135.207 142.148 136.071 138.581 136.822C139.175 133.941 139.706 131.045 140.173 128.138C143.931 127.403 147.719 126.562 151.514 125.617C150.87 128.531 150.147 131.404 149.344 134.235L149.343 134.236ZM151.75 124.528C147.933 125.487 144.121 126.341 140.339 127.087C140.9 123.47 141.361 119.837 141.724 116.196C145.683 115.463 149.673 114.625 153.669 113.688C153.149 117.355 152.509 120.97 151.75 124.528ZM153.816 112.626C149.805 113.573 145.799 114.419 141.824 115.16C142.123 111.986 142.347 108.8 142.492 105.619C142.492 105.619 150.713 104.7 154.738 104.172C154.501 107.017 154.193 109.836 153.816 112.626Z"></path></g><g id="elements"><path id="vector_8" fill="#000000" d="M149.09 24.0391C148.687 24.0391 148.443 23.5771 148.687 23.2441C152.638 17.8431 156.952 12.6181 161.507 7.71209C161.695 7.51009 162.011 7.49809 162.214 7.68609C162.416 7.87409 162.428 8.19009 162.24 8.39309C157.711 13.2691 153.423 18.4651 149.494 23.8341C149.396 23.9681 149.244 24.0391 149.09 24.0391Z"></path><path id="vector_9" fill="#000000" d="M162.733 39.6881C167.028 37.9181 171.278 35.9051 175.366 33.7051C175.609 33.5731 175.913 33.6651 176.043 33.9081C176.174 34.1511 176.083 34.4541 175.84 34.5851C171.722 36.8011 167.44 38.8291 163.114 40.6121C162.494 40.8701 162.13 39.9371 162.733 39.6881Z"></path><path id="vector_10" fill="#000000" d="M175.979 93.043C175.546 93.043 171.049 90.814 162.817 88.691C162.549 88.622 162.389 88.349 162.458 88.082C162.527 87.814 162.801 87.655 163.067 87.723C167.512 88.869 171.921 90.335 176.17 92.08C176.675 92.287 176.524 93.043 175.979 93.043Z"></path><path id="vector_11" fill="#000000" d="M81.941 25.759C81.787 25.759 81.636 25.688 81.538 25.555L73.374 14.447C73.21 14.225 73.258 13.912 73.481 13.748C73.703 13.584 74.017 13.632 74.18 13.855L82.344 24.963C82.588 25.295 82.345 25.759 81.941 25.759Z"></path><path id="vector_12" fill="#000000" d="M72.949 48.8771C72.082 48.8771 66.792 48.1341 61.722 46.6221C61.457 46.5431 61.307 46.2651 61.386 46.0001C61.465 45.7351 61.744 45.5851 62.008 45.6641C65.588 46.7321 69.287 47.4771 73.002 47.8801C73.625 47.9481 73.576 48.8771 72.949 48.8771Z"></path><path id="vector_13" fill="#000000" d="M49.544 61.7641C56.741 60.5441 64.09 59.8571 71.388 59.7231C71.657 59.7251 71.892 59.9381 71.897 60.2141C71.902 60.4901 71.682 60.7181 71.406 60.7231C64.158 60.8561 56.859 61.5381 49.711 62.7501C49.055 62.8641 48.896 61.8741 49.544 61.7641Z"></path><path id="vector_14" fill="#000000" d="M65.708 89.0421C65.208 89.0421 65.018 88.3861 65.441 88.1191L76.359 81.2361C76.593 81.0891 76.901 81.1591 77.048 81.3921C77.195 81.6261 77.125 81.9341 76.892 82.0811C65.754 89.1011 65.933 89.0421 65.708 89.0421Z"></path></g><g id="parcel"><path id="vector_15" fill="#000000" d="M151.727 47.1759C148.082 42.4699 143.261 35.5699 134.565 27.3459C133.075 25.9379 132.379 25.7159 130.414 25.8529C115.966 26.8699 101.575 29.3859 87.641 33.3299C86.445 33.6669 86.356 34.2729 86.156 34.8269C83.437 42.3449 83 50.8099 82.254 59.3399C81.674 65.9699 80.995 73.4829 84.56 79.6479C89.006 87.3359 94.533 94.3289 100.987 100.43C102.556 101.913 103.287 102.263 105.633 102.409C113.525 102.901 121.481 102.529 129.266 101.315C133.856 100.6 135.267 99.8419 138.716 96.9049C149.44 87.7719 157.116 77.5169 161.551 66.4059C161.862 66.0729 162.125 65.5509 162.12 64.7359C162.095 60.5599 154.83 51.1809 151.727 47.1759ZM130.859 26.8259C126.891 30.6499 121.155 37.4459 119.556 42.6309C110.218 38.0009 100.269 35.0099 89.944 33.7279C104.513 29.7629 120.062 27.4049 130.859 26.8259ZM87.618 34.4689C88.758 34.7129 102.828 35.3389 119.566 43.7539C123.558 45.7609 124.04 47.1919 123.992 49.9629C123.816 60.1079 118.93 68.4939 113.475 76.8899C111.952 76.2579 110.65 75.1219 109.536 74.0899C103.884 68.8549 98.935 62.3549 94.828 54.7719C93.217 51.7979 85.528 36.7229 87.618 34.4689ZM156.547 74.4329C153.932 75.7709 151.044 76.9059 147.983 77.8799C145.856 83.0269 142.483 87.5399 139.195 91.9129C141.131 91.2889 143.037 90.5709 144.902 89.7389C142.785 91.9289 140.506 94.0649 138.067 96.1419C134.752 98.9659 133.505 99.6409 129.111 100.325C121.382 101.531 113.503 101.895 105.694 101.409C103.596 101.279 103.081 101.033 101.673 99.7019C95.289 93.6669 89.822 86.7509 85.425 79.1459C81.57 72.4809 82.844 64.2549 83.55 55.9209C84.084 49.6139 84.619 43.1199 86.443 37.1309C87.381 42.9819 93.17 53.8099 93.948 55.2479C98.108 62.9289 103.124 69.5149 108.856 74.8239C112.371 78.0789 114.204 78.6309 118.557 78.5039C133.889 78.0629 148.925 74.0279 160.058 67.3969C159.041 69.7839 157.869 72.1299 156.546 74.4339L156.547 74.4329ZM118.528 77.5039C117.179 77.5429 115.766 77.5479 114.456 77.2149C118.578 70.8599 122.358 64.4939 124.055 57.3369C135.57 62.3559 147.744 65.3029 160.264 66.1019C149.208 72.9069 134.027 77.0579 118.528 77.5039ZM160.968 65.1429C148.276 64.4089 135.933 61.4489 124.276 56.3429C124.702 54.2939 124.954 52.1789 124.992 49.9799C125.044 46.8759 124.339 45.1039 120.461 43.0879C122.022 37.8049 128.185 30.6859 132.208 26.9229C132.841 27.1049 133.37 27.5929 133.877 28.0709C139.41 33.3029 144.64 39.2959 149.864 46.3889C151.619 48.7759 162.244 61.8549 160.968 65.1429Z"></path><path id="vector_16" fill="#000000" d="M115.238 95.8908C122.632 95.4098 130.284 94.5448 137.569 92.4118C140.932 87.9278 144.454 83.3988 146.729 78.2678C138.752 80.6638 129.739 82.0458 121.438 83.1648C119.86 87.6278 117.781 91.8968 115.238 95.8908Z"></path><path id="vector_17" fill="#000000" d="M120.323 83.315C117.448 83.702 114.484 84.092 111.619 83.723C112.173 82.119 112.695 80.506 113.184 78.885C113.264 78.621 113.115 78.342 112.85 78.262C112.587 78.182 112.307 78.332 112.227 78.596C110.23 85.207 107.683 91.847 104.228 98.826C103.934 99.42 104.832 99.858 105.124 99.27C105.604 98.3 106.072 97.324 106.528 96.341C108.966 96.232 111.464 96.119 113.997 95.967C116.586 92.006 118.708 87.76 120.322 83.314L120.323 83.315Z"></path><path id="vector_18" fill="#000000" d="M94.194 87.0968C91.838 84.3588 89.59 81.4738 87.513 78.5238C84.984 74.9308 84.782 73.5348 85.237 69.8578L87.372 52.6248C87.431 52.1468 88.072 52.0188 88.306 52.4458C88.368 52.5588 94.529 63.7608 97.772 68.8738C98.572 70.1338 98.641 70.6278 98.356 71.9188L95.06 86.8778C94.971 87.2788 94.462 87.4078 94.194 87.0968ZM88.175 54.2748C85.994 71.8728 85.86 71.9998 86.138 73.5598C86.419 75.1368 87.336 76.5358 88.33 77.9478C90.196 80.5988 92.202 83.1968 94.3 85.6808C97.532 71.0138 97.564 71.1558 97.498 70.6428C97.369 69.6448 97.24 70.6168 88.174 54.2738L88.175 54.2748Z"></path><path id="vector_19" fill="#000000" d="M95.019 71.2668C94.873 71.2668 94.727 71.2028 94.629 71.0798C92.381 68.2768 90.533 65.1768 89.136 61.8668C89.029 61.6128 89.148 61.3188 89.402 61.2118C89.657 61.1038 89.95 61.2238 90.057 61.4778C91.418 64.7028 93.218 67.7228 95.409 70.4548C95.673 70.7838 95.434 71.2668 95.019 71.2668Z"></path><path id="vector_20" fill="#000000" d="M93.734 74.776C93.588 74.776 93.443 74.712 93.344 74.589C91.261 71.995 89.459 69.166 87.99 66.181C87.868 65.933 87.97 65.634 88.218 65.512C88.466 65.39 88.765 65.492 88.887 65.74C90.324 68.66 92.085 71.427 94.123 73.963C94.386 74.291 94.151 74.776 93.734 74.776Z"></path><path id="vector_21" fill="#000000" d="M93.285 78.685C93.146 78.685 93.007 78.627 92.908 78.514C90.884 76.197 89.087 73.665 87.567 70.988C87.431 70.748 87.515 70.443 87.755 70.306C87.995 70.169 88.3 70.254 88.437 70.494C89.924 73.113 91.681 75.589 93.661 77.856C93.945 78.181 93.708 78.685 93.285 78.685Z"></path><path id="vector_22" fill="#000000" d="M102.268 91.2429C102.138 91.2429 102.009 91.193 101.911 91.093C100.55 89.706 99.284 88.205 98.146 86.632C97.984 86.408 98.034 86.0959 98.258 85.9339C98.482 85.7719 98.794 85.8219 98.956 86.0459C100.064 87.5779 101.299 89.0409 102.624 90.3929C102.934 90.7089 102.708 91.2429 102.268 91.2429Z"></path><path id="vector_23" fill="#000000" d="M101.498 94.2478C101.362 94.2478 101.227 94.1928 101.128 94.0848C99.729 92.5508 98.468 90.8758 97.381 89.1058C97.236 88.8708 97.31 88.5628 97.545 88.4178C97.779 88.2738 98.088 88.3468 98.233 88.5818C99.287 90.2978 100.51 91.9228 101.867 93.4108C102.16 93.7328 101.928 94.2478 101.498 94.2478Z"></path><g id="group"><path id="vector_24" fill="#000000" d="M102.059 79.5348C101.737 80.4018 101.795 81.3298 102.211 81.9568C102.645 82.6108 103.562 82.9088 104.173 82.5918C104.617 82.3628 104.878 81.8898 105.018 81.5338C106.075 78.8598 103.045 76.8758 102.059 79.5348Z"></path><path id="vector_25" fill="#000000" d="M107.93 79.4079C107.742 77.0989 105.545 75.6179 103.583 75.2189C99.906 74.4669 98.192 79.6639 99.792 82.9949C100.422 84.3069 101.787 85.5989 103.407 85.5989C105.259 85.5989 106.483 84.0369 107.255 82.3369C107.638 81.4939 108.018 80.4869 107.93 79.4079ZM105.949 81.9019C104.498 85.5719 99.623 83.2209 101.122 79.1869C101.695 77.6429 102.689 77.3319 103.231 77.2849C105.201 77.1119 106.948 79.3709 105.949 81.9019Z"></path></g></g></g></svg>