<svg xmlns="http://www.w3.org/2000/svg" fill="none" viewBox="0 0 200 200" height="400" width="400"><g id="feasibility-meeting--work-feasibility-meeting"><g id="document 2"><path id="vector" fill="#000000" d="M35.059 74.0671C36.363 71.4581 37.202 69.4451 38.605 66.7421C39.02 65.9421 39.523 65.1611 39.865 64.3281C40.084 63.7951 39.276 63.5411 38.987 63.9581C38.429 64.7631 36.862 68.2151 36.569 68.8741C35.836 70.5231 35.197 72.1821 34.717 73.9221C34.662 74.1221 34.963 74.2611 35.06 74.0661L35.059 74.0671Z"></path><path id="vector_2" fill="#000000" d="M39.557 74.8459C40.202 73.8829 40.78 72.0279 42.367 68.2889C44.184 64.0069 45.103 62.3709 45.207 61.8339C45.287 61.4209 44.749 60.9839 44.424 61.3779C43.711 62.2409 40.59 69.9679 40.118 71.2259C39.701 72.3369 39.178 73.5209 39.044 74.7069C39.011 75.0009 39.421 75.0499 39.557 74.8459Z"></path><path id="vector_3" fill="#000000" d="M43.976 76.6716C44.468 76.1056 44.813 75.4026 45.16 74.7406C45.514 74.0666 47.6059 70.0306 47.7729 69.7026C47.9439 69.3676 48.208 68.9926 48.164 68.6036C48.131 68.3126 47.8479 68.0956 47.5639 68.2596C47.2409 68.4466 47.347 68.2126 44.431 74.3146C44.107 74.9936 43.733 75.7016 43.574 76.4386C43.527 76.6556 43.808 76.8646 43.976 76.6716Z"></path><path id="vector_4" fill="#000000" d="M58.04 59.2215C61.035 60.1065 63.958 61.1305 66.794 62.3215L67.128 61.3775C64.281 60.1845 61.341 59.1535 58.324 58.2625C37.521 52.1225 36.96 53.1405 36.657 53.6895C31.363 63.2795 26.865 73.3905 23.287 83.7425C23.197 84.0035 23.335 84.2875 23.595 84.3785C26.682 85.4555 32.513 88.1305 38.878 91.2155C38.776 90.7765 38.656 90.3425 38.517 89.9165C32.747 87.1375 27.489 84.7375 24.394 83.6035C27.915 73.5015 32.315 63.6355 37.48 54.2675C38.421 54.0215 44.306 55.1635 58.041 59.2235L58.04 59.2215Z"></path><path id="vector_5" fill="#000000" d="M71.2519 92.9863L69.4299 96.4633L70.8209 95.9073L72.1739 93.3043C71.8669 93.1993 71.5579 93.0933 71.2519 92.9863Z"></path><path id="vector_6" fill="#000000" d="M48.556 94.8643C48.253 94.9003 47.686 95.0463 47.028 95.2353C51.049 97.2503 54.916 99.2303 58.086 100.883L59.352 100.401C56.303 98.8013 52.529 96.8623 48.556 94.8643Z"></path><path id="vector_7" fill="#000000" d="M89.342 112.57L84.581 102.264C84.465 102.013 84.575 101.716 84.826 101.6C85.077 101.483 85.374 101.594 85.49 101.844L90.251 112.15C90.529 112.751 89.619 113.168 89.343 112.569L89.342 112.57Z"></path><path id="vector_8" fill="#000000" d="M84.6519 110.003C84.4549 110.003 84.2679 109.886 84.1889 109.692L81.7939 103.824C81.6899 103.568 81.8119 103.276 82.0679 103.172C82.3219 103.067 82.6149 103.19 82.7199 103.446L85.1149 109.314C85.2499 109.644 85.0049 110.003 84.6519 110.003Z"></path><path id="vector_9" fill="#000000" d="M81.5879 112.813C80.7939 112.813 81.2869 111.767 78.2109 105.71C78.0859 105.464 78.1839 105.163 78.4299 105.038C78.6769 104.913 78.9769 105.011 79.1019 105.257C80.2309 107.48 81.2259 109.797 82.0589 112.145C82.1749 112.473 81.9299 112.812 81.5879 112.812V112.813Z"></path><path id="vector_10" fill="#000000" d="M44.5639 128.292L45.2749 127.408C43.2909 122.749 41.1019 118.177 38.7199 113.725C40.4689 113.175 42.2159 112.607 43.9599 112.022C45.6629 115.606 47.3149 119.235 48.9109 122.893L49.6189 122.016C48.0989 118.547 46.5289 115.103 44.9139 111.7C46.8739 111.035 48.8299 110.348 50.7779 109.64C51.8019 112.025 52.8149 114.425 53.8169 116.834L54.5339 115.954C53.6059 113.725 52.6669 111.505 51.7199 109.297C53.6519 108.588 55.5759 107.858 57.4899 107.109C58.0019 108.242 58.5079 109.374 59.0069 110.506C59.2609 110.2 59.4999 109.915 59.7219 109.651C59.2929 108.681 58.8599 107.712 58.4209 106.742C60.1139 106.073 61.7989 105.388 63.4729 104.689C64.3439 106.852 65.2169 108.94 66.0759 110.975L67.5959 111.998C66.1849 108.625 64.8119 105.345 64.2429 103.925C64.0939 103.553 63.5879 103.558 63.3259 103.667C55.0109 107.145 46.4469 110.267 37.8439 112.951C37.5479 113.042 37.4019 113.386 37.5529 113.666C40.1159 118.415 42.4589 123.304 44.5639 128.292Z"></path><path id="vector_11" fill="#000000" d="M98.21 116.205C94.846 110.312 92.026 104.021 88.811 97.9942C88.38 97.8982 87.949 97.8002 87.519 97.7002C90.81 103.776 93.651 110.158 97.048 116.185L98.21 116.205Z"></path><path id="vector_12" fill="#000000" d="M39.35 134.788L40.031 133.938C39.479 132.888 38.944 131.829 38.442 130.753C37.39 128.504 31.384 113.206 31.308 111.02C43.186 107.012 55.063 102.668 66.792 98.0452C69.184 104.283 71.731 110.503 74.414 116.664L75.984 117.757C73.065 111.12 70.303 104.409 67.722 97.6772C70.391 96.6212 73.052 95.5512 75.704 94.4662C75.209 94.3102 74.716 94.1512 74.223 93.9902C59.917 99.8142 45.338 105.235 30.759 110.149C30.592 110.205 30.461 110.331 30.387 110.502C29.635 112.26 37.452 130.998 37.536 131.176C38.106 132.395 38.718 133.596 39.35 134.787V134.788Z"></path><path id="vector_13" fill="#000000" d="M84.323 170.678C79.743 177.939 74.998 185.091 69.809 191.928C67.941 194.389 67.757 195.074 65.818 193.998C49.152 184.737 33.107 174.067 18.118 162.28C21.533 157.943 55.746 114.831 61.393 108.465C69.122 113.555 76.788 118.852 84.33 124.312L84.303 123.058C76.831 117.662 69.238 112.426 61.584 107.394C61.379 107.259 61.107 107.292 60.94 107.473C60.495 107.958 16.851 161.532 16.921 162.408C16.932 162.547 17.001 162.675 17.11 162.761C32.251 174.702 48.475 185.507 65.332 194.874C65.93 195.207 66.523 195.502 67.177 195.502C68.685 195.502 69.56 193.911 70.601 192.539C75.904 185.55 80.734 178.252 85.395 170.85C85.04 170.795 84.683 170.738 84.322 170.68L84.323 170.678Z"></path><path id="vector_14" fill="#000000" d="M72.571 161.49C72.735 161.273 72.695 160.965 72.481 160.797C71.878 160.321 69.105 158.186 68.504 157.712C68.3 157.551 68.005 157.573 67.827 157.766C66.787 158.892 67.311 158.3 57.4 170.399C56.152 169.553 54.9 168.712 53.645 167.876L71.228 144.714C71.384 144.508 71.357 144.216 71.166 144.042C71.124 144.005 66.804 140.416 65.867 140.806C65.58 140.927 65.794 140.759 47.404 163.776C46.102 162.932 44.796 162.094 43.488 161.261C57.882 143.707 57.753 144.055 57.801 143.465C57.847 142.901 57.437 142.495 57.24 142.301C56.23 141.301 55.105 140.415 53.897 139.667C53.693 139.542 53.432 139.576 53.269 139.751C47.892 145.502 42.62 151.492 37.593 157.559C36.393 156.815 35.192 156.077 33.989 155.344L58.865 125.594C58.787 125.909 58.703 126.185 58.635 126.328C58.515 126.577 58.62 126.876 58.869 126.995C59.119 127.116 59.417 127.009 59.536 126.761C59.773 126.266 60.189 124.521 60.088 123.86C60.029 123.475 59.57 123.3 59.27 123.555C58.607 124.119 57.542 124.535 56.737 124.543C56.077 124.55 56.083 125.554 56.748 125.543C57.053 125.54 57.381 125.493 57.715 125.411L32.849 155.148C32.756 155.26 32.716 155.407 32.74 155.55C32.852 156.235 33.656 155.791 52.539 168.341C52.733 168.562 58.705 172.279 70.333 180.654C70.026 180.624 69.697 180.595 69.336 180.566C68.672 180.512 68.597 181.508 69.253 181.563C70.328 181.652 71.105 181.729 71.9 181.858C72.282 181.92 72.585 181.544 72.446 181.184L71.593 178.983C71.493 178.725 71.205 178.598 70.946 178.697C70.689 178.797 70.561 179.086 70.66 179.344L70.829 179.782C68.24 177.918 65.63 176.072 63.001 174.245C65.853 169.765 69.372 165.733 72.566 161.49H72.571ZM66.19 141.792C66.837 142.05 68.974 143.506 70.149 144.483L52.812 167.321C51.295 166.314 49.774 165.314 48.249 164.322C66.224 141.825 66.1 141.892 66.19 141.792ZM53.719 140.737C54.732 141.397 55.679 142.16 56.54 143.012C56.779 143.248 56.81 143.347 56.807 143.384C56.798 143.5 56.836 143.409 42.64 160.721C41.247 159.838 39.852 158.961 38.454 158.092C43.354 152.182 48.485 146.347 53.719 140.737ZM62.184 173.675C60.869 172.764 59.549 171.858 58.225 170.958C58.225 170.958 67.429 159.701 68.252 158.785C68.762 159.184 70.975 160.887 71.477 161.28C68.399 165.336 64.985 169.283 62.184 173.676V173.675Z"></path><path id="vector_15" fill="#000000" d="M118.612 121.769C118.606 121.5 118.389 121.284 118.121 121.279C90.2099 120.787 90.4429 120.718 90.2059 120.958C90.1099 121.057 90.0589 121.19 90.0639 121.327C90.7409 139.012 89.6519 139.686 90.6379 139.83C94.1389 140.34 97.0839 140.412 118.497 140.556C118.63 140.556 118.758 140.503 118.852 140.408C119.095 140.164 119.011 140.379 118.612 121.769ZM91.2889 132.615C91.2879 130.957 91.2709 129.277 91.2409 127.577C93.7319 127.765 96.2339 127.915 98.7409 128.029L98.6799 133.029C93.1599 132.814 91.7059 132.615 91.2889 132.615ZM99.7399 128.073C102.848 128.203 105.962 128.277 109.072 128.295L109.044 133.185C105.923 133.213 102.798 133.173 99.6799 133.066L99.7399 128.073ZM99.7519 127.073L99.8139 121.967L109.108 122.126L109.078 127.295C105.969 127.277 102.857 127.203 99.7519 127.073ZM110.072 128.299C112.441 128.306 115.084 128.274 117.747 128.199L117.847 132.926C115.254 133.056 112.65 133.138 110.044 133.174L110.072 128.299ZM117.726 127.199C115.183 127.271 112.632 127.304 110.078 127.299L110.108 122.143L117.623 122.272L117.726 127.199ZM98.8129 121.949L98.7509 127.029C96.2339 126.914 93.7209 126.762 91.2189 126.573C91.1849 125.002 91.1399 123.416 91.0809 121.817L98.8119 121.949H98.8129ZM91.2199 138.901C91.2599 137.169 91.2819 135.405 91.2869 133.615C93.7389 133.795 96.1999 133.933 98.6669 134.029L98.6029 139.288C96.1519 139.238 93.6619 139.218 91.2199 138.901ZM99.6029 139.309L99.6669 134.065C102.942 134.177 106.004 134.21 109.038 134.185L109.007 139.478C103.421 139.393 101.355 139.346 99.6029 139.309ZM110.007 139.486L110.038 134.174C112.654 134.139 115.266 134.056 117.868 133.926L117.987 139.551L110.007 139.486Z"></path><path id="vector_16" fill="#000000" d="M118.37 157.729L118.386 158.482C110.473 159.356 105.014 159.788 98.763 159.349C98.955 157.061 99.107 154.757 99.218 152.452C105.55 152.606 111.908 152.612 118.254 152.207L118.309 154.81C118.636 154.468 118.968 154.127 119.288 153.802L119.107 145.192C119.101 144.922 118.882 144.706 118.612 144.703C96.501 144.457 93.774 144.409 90.59 144.005C90.297 143.969 90.042 144.189 90.028 144.477C89.78 149.634 89.356 154.382 88.767 158.589C88.727 158.871 88.932 159.131 89.216 159.156C90.156 159.237 95.955 160.512 103.737 160.512C108.369 160.512 113.021 160.086 118.952 159.426C119.209 159.397 119.402 159.177 119.397 158.918L119.365 157.379C119.019 157.504 118.685 157.622 118.372 157.729H118.37ZM99.426 145.454C109.103 145.672 109.51 145.606 118.116 145.697L118.232 151.206C111.975 151.607 105.661 151.608 99.262 151.453C99.348 149.449 99.403 147.446 99.426 145.454ZM97.766 159.272C95.323 159.067 92.738 158.729 89.824 158.234C90.084 156.317 90.31 154.292 90.502 152.171C93.089 152.269 95.66 152.359 98.218 152.427C98.108 154.715 97.957 157.001 97.766 159.272ZM98.263 151.427C95.719 151.359 93.162 151.269 90.59 151.173C90.756 149.211 90.892 147.17 91 145.06C93.515 145.342 95.932 145.376 98.427 145.432C98.404 147.423 98.35 149.425 98.264 151.428L98.263 151.427Z"></path><path id="vector_17" fill="#000000" d="M96.215 164.602L88.754 163.797C88.48 163.767 88.281 163.521 88.311 163.246C88.34 162.971 88.591 162.771 88.862 162.803L96.269 163.605C96.893 163.672 96.843 164.602 96.216 164.602H96.215Z"></path><path id="vector_18" fill="#000000" d="M95.6049 167.786L88.0559 167.175C87.7809 167.153 87.5759 166.912 87.5979 166.636C87.6199 166.361 87.8709 166.154 88.1369 166.178L95.6449 166.788C96.2789 166.839 96.2409 167.786 95.6049 167.786Z"></path><path id="vector_19" fill="#000000" d="M124.508 155.345L124.823 170.287C108.393 172.106 98.7469 172.648 82.7529 169.911C85.2389 151.739 85.1439 130.951 84.6049 116.473L123.703 117.142L124.248 143.015C124.415 142.894 124.635 142.814 125.241 142.672L124.693 116.641C124.687 116.372 124.47 116.156 124.202 116.152C83.7439 115.456 83.9659 115.372 83.7279 115.616C83.6319 115.714 83.5809 115.847 83.5859 115.985C84.1459 130.574 84.2719 151.835 81.6939 170.273C81.6659 170.471 81.6979 170.802 82.3589 170.859C98.8419 173.706 108.658 173.095 125.388 171.234C125.645 171.205 125.838 170.985 125.833 170.727L125.498 154.803C125.053 155.061 124.751 155.226 124.509 155.349L124.508 155.345Z"></path></g><path id="vector_20" fill="#000000" d="M193.454 163.078C191.76 162.285 156.149 151.608 154.549 150.86C153.618 150.424 153.114 150.359 152.169 150.863C148.721 149.054 145.517 147.099 142.233 145.121L163.215 132.205C164.869 131.187 165.415 128.996 164.431 127.321C163.39 125.549 161.085 125.009 159.364 126.132L136.017 141.353C134.406 140.489 133.47 140.426 131.774 140.751L124.817 142.095C122.394 142.562 123.993 145.178 121.628 150.804C120.327 151.985 117.222 155.128 115.967 156.643C115.206 157.562 116.102 158.967 117.292 158.606C118.628 158.204 123.321 156.48 124.695 155.84C124.907 155.741 125.001 155.702 125.932 155.141C126.033 155.362 126.151 155.57 126.288 155.759C126.012 157.714 126.646 159.906 128.4 160.889C128.305 161.892 130.11 163.831 132.474 163.655C133.079 163.611 134.221 163.237 135.239 162.682C138.098 163.521 141.491 163.425 145.083 162.401L145.746 162.828C145.772 163.13 145.809 163.432 145.86 163.732C146.042 164.816 146.389 165.111 146.86 165.409C148.269 166.302 174.627 190.39 176.98 191.727C177.553 192.056 178.048 191.185 177.474 190.858C176.162 190.112 165.162 180.284 157.13 173.107C155.057 171.255 153.852 170.718 154.08 166.961C154.403 161.628 157.663 155.114 162.729 154.538C176.175 158.679 192.058 163.528 193.029 163.983C193.279 164.101 193.577 163.992 193.694 163.742C193.811 163.492 193.703 163.194 193.453 163.077L193.454 163.078ZM159.912 126.97C160.519 126.574 161.236 126.454 161.925 126.616C164.185 127.147 164.641 130.155 162.692 131.354L160.269 132.845C158.677 132.031 157.484 130.424 157.398 128.613L159.912 126.97ZM154.16 130.728C154.115 132.711 155.363 134.334 156.808 134.974L137.869 146.602C135.526 145.93 133.337 144.977 131.053 145.829L154.16 130.728ZM125.008 143.077C132.557 141.618 132.789 141.538 133.438 141.556C133.948 141.571 134.492 141.738 135.044 141.988L129.672 145.481C127.596 146.004 127.611 145.797 127.236 147.064L126.416 147.596C124.587 148.259 124.048 148.357 123.477 148.652C124.512 144.888 123.849 143.303 125.007 143.079L125.008 143.077ZM117.006 157.65C116.752 157.723 116.615 157.433 116.739 157.283C117.837 155.959 119.856 153.925 121.026 152.769C121.127 153.971 121.702 155.015 122.761 155.556C121.137 156.207 118.386 157.234 117.006 157.65ZM124.351 154.901C123.651 154.878 123.09 154.74 122.61 154.194C122.111 153.626 121.917 152.801 122.045 151.801C122.222 151.608 122.428 151.421 122.654 151.24C123.405 152.301 125.547 153.105 126.816 153.387L124.351 154.9V154.901ZM126.778 154.629L128.425 153.621C129.238 153.677 130.059 153.641 130.868 153.511C130.997 153.725 131.168 153.909 131.31 154.061C131.75 154.531 131.776 154.715 132.357 154.855C133.224 155.062 134.015 155.251 134.749 155.591C135.082 156.278 135.394 156.797 135.955 157.376C135.759 157.523 135.458 157.655 135.03 157.758C132.388 158.393 130.493 157.929 128.033 156.045C127.445 155.594 127.096 155.292 126.778 154.629ZM131.949 153.278C132.25 153.197 132.548 153.102 132.843 152.994C133.411 152.783 133.435 152.652 134.16 154.286C132.137 153.649 132.837 154.266 131.949 153.279V153.278ZM128.85 159.994C127.71 159.346 127.239 157.979 127.229 156.686C129.822 158.731 132.065 159.5 135.263 158.729C135.524 158.666 135.751 158.592 135.95 158.51C136.055 158.655 136.025 158.739 135.902 158.903C135.479 159.464 134.729 159.726 133.865 159.988C132.008 160.551 130.46 160.91 128.85 159.994ZM132.402 162.658C131.394 162.73 130.216 162.281 129.647 161.393C131.155 161.785 132.635 161.406 134.154 160.945C134.759 160.761 135.533 160.526 136.158 160.046C136.246 160.086 136.306 160.139 136.319 160.2C136.517 161.174 133.46 162.579 132.402 162.658ZM145.708 161.613C145.461 161.455 145.293 161.299 145.023 161.378C141.885 162.304 138.916 162.492 136.364 161.938C137.613 160.899 137.511 159.791 136.839 159.295C137.05 158.924 137.067 158.547 136.918 158.2C139.038 159.718 142.103 160.303 144.573 159.927C144.846 159.886 145.033 159.631 144.992 159.358C144.951 159.085 144.695 158.896 144.423 158.939C141.48 159.388 137.398 158.28 135.94 155.709C134.524 153.218 134.601 151.28 132.48 152.063C129.819 153.044 126.653 152.751 124.219 151.297C122.946 150.536 122.981 149.789 124.64 149.26C127.005 148.507 129.309 147.559 131.543 146.713C133.554 145.954 136.313 147.305 138.44 147.781C138.837 147.869 139.162 147.474 139.012 147.105L141.271 145.714C144.807 147.835 147.844 149.695 151.173 151.467C147.874 153.706 145.787 157.631 145.71 161.612L145.708 161.613ZM153.253 169.644C150.297 167.008 148.182 165.137 147.699 164.769C147.179 164.373 147.005 164.502 146.848 163.567C146.669 162.501 146.661 161.417 146.805 160.352C148.815 162.067 151.084 163.705 153.256 165.285C153.045 166.674 152.949 168.273 153.253 169.644ZM153.456 164.193C151.344 162.646 149.113 161.05 147.017 159.214C147.293 158.059 147.747 156.944 148.353 155.921C148.353 155.921 154.007 159.502 154.877 160.062C154.241 161.374 153.763 162.766 153.456 164.193ZM155.341 159.171C154.488 158.624 148.899 155.083 148.899 155.083C149.415 154.358 150.013 153.693 150.681 153.108C152.993 154.153 155.369 155.123 157.752 155.992C156.851 156.856 156.034 157.925 155.341 159.171ZM158.621 155.243C156.197 154.368 153.922 153.458 151.568 152.409C151.905 152.172 152.256 151.953 152.62 151.756C153.239 151.421 153.394 151.422 154.126 151.765C154.567 151.972 157.166 152.805 160.888 153.965C160.101 154.259 159.34 154.69 158.621 155.244V155.243Z"></path><g id="laptop"><path id="vector_21" fill="#000000" d="M178.121 95.8146C177.566 95.8146 174.34 95.2226 171.355 93.9816C170.872 93.7806 170.605 93.2776 170.734 92.8106L174.47 79.2856C174.607 78.7936 175.12 78.5016 175.658 78.6076C177.746 79.0126 179.882 79.6056 182.188 80.4216C182.663 80.5896 182.927 81.1376 182.802 81.6946C181.75 86.4176 180.511 90.9026 179.121 95.0276C178.96 95.5016 178.553 95.8156 178.12 95.8156L178.121 95.8146ZM175.469 79.5876L171.698 93.0756C173.751 93.8946 175.894 94.4846 178.108 94.8106C178.51 94.4916 182.013 81.6016 181.818 81.3386C179.597 80.5636 177.508 79.9826 175.469 79.5876Z"></path><path id="vector_22" fill="#000000" d="M188.288 58.804C175.54 54.51 163.806 51.291 152.454 48.974C152.391 48.34 152.094 47.744 151.601 47.318C148.227 44.406 144.571 42.268 140.733 40.964C138.703 40.273 136.286 39.567 135.47 42.042C128.759 62.373 122.795 83.959 117.744 106.2C117.229 108.47 119.58 109.543 121.885 109.866C126.01 110.448 130.159 110.421 134.222 109.87C134.612 109.817 134.977 109.671 135.293 109.454C146.841 114.046 159.062 117.479 171.628 119.662C173.13 119.922 174.589 119.066 175.098 117.629C181.119 100.631 186.249 82.049 190.346 62.4C190.669 60.854 189.784 59.308 188.288 58.804ZM134.087 108.88C130.014 109.432 125.955 109.431 122.025 108.877C121.111 108.748 120.5 107.868 120.704 106.971C125.75 84.754 131.705 63.2 138.405 42.905C138.679 42.074 139.584 41.631 140.413 41.912C144.128 43.175 147.673 45.249 150.949 48.077C151.403 48.469 151.579 49.106 151.398 49.699C145.531 68.884 140.139 88.402 135.37 107.711C135.218 108.328 134.703 108.798 134.088 108.882L134.087 108.88ZM189.367 62.196C185.278 81.801 180.16 100.341 174.155 117.296C173.809 118.274 172.822 118.855 171.799 118.677C159.436 116.527 147.41 113.166 136.036 108.673C136.172 108.452 136.276 108.208 136.34 107.949C143.715 78.086 152.325 50.09 152.357 49.975C163.636 52.282 175.298 55.484 187.968 59.752C188.985 60.094 189.586 61.145 189.367 62.196Z"></path><path id="vector_23" fill="#000000" d="M132.527 106.701C130.31 107.137 127.086 107.026 124.499 106.796C123.703 106.725 123.238 105.736 123.499 104.655C128.316 84.6762 133.706 65.0502 139.751 45.8282C140.068 44.8202 140.91 44.2122 141.619 44.4722C144.09 45.3772 146.791 47.0572 148.766 48.4642C149.232 48.7962 149.235 49.6452 149.025 50.3532C132.309 106.586 134.616 106.291 132.527 106.701Z"></path><path id="vector_24" fill="#000000" d="M175.112 60.2796C168.325 57.7806 162.021 56.0266 155.839 54.9186C154.739 54.7196 153.684 55.3916 153.384 56.4766L140.244 104.044C139.96 105.07 140.474 106.167 141.439 106.594C147.471 109.263 153.881 111.076 160.944 111.95C162.033 112.081 162.949 111.063 163.302 109.986C168.048 95.4996 172.392 79.7696 176.213 63.2316C176.527 61.8716 176.065 60.6306 175.112 60.2796ZM152.182 109.269L166.235 58.3976C167.651 58.8086 169.083 59.2546 170.534 59.7356L156.578 110.254C155.097 109.973 153.631 109.644 152.181 109.269H152.182ZM146.597 107.565L160.588 56.9176C162.134 57.2776 163.694 57.6786 165.274 58.1226L151.216 109.012C149.655 108.584 148.115 108.101 146.598 107.565H146.597ZM141.208 104.31L154.348 56.7426C154.489 56.2326 154.959 55.8856 155.467 55.8856C155.85 55.8856 159.216 56.6086 159.612 56.6966L145.654 107.225C144.366 106.748 143.096 106.234 141.844 105.679C141.329 105.451 141.055 104.862 141.208 104.31ZM175.238 63.0056C171.425 79.5146 167.089 95.2156 162.352 109.673C162.067 110.541 161.475 111.009 161.067 110.956C159.892 110.811 158.725 110.636 157.566 110.434L171.483 60.0546C172.565 60.4226 173.659 60.8096 174.766 61.2176C175.159 61.3626 175.45 62.0866 175.238 63.0056Z"></path></g><g id="document 1"><path id="vector_25" fill="#000000" d="M62.019 77.5885C65.661 66.9635 69.32 56.5135 73.173 46.2085C76.2 47.5955 79.266 48.9095 82.364 50.1495C82.427 49.8875 82.507 49.5665 82.606 49.1695C79.401 47.8835 76.231 46.5185 73.103 45.0755C72.838 44.9535 72.527 45.0825 72.425 45.3535C68.471 55.9065 64.725 66.6075 60.996 77.4895C61.338 77.5145 61.679 77.5475 62.02 77.5875L62.019 77.5885Z"></path><path id="vector_26" fill="#000000" d="M108.606 57.6502C100.448 55.5772 98.537 54.6802 97.622 54.6182C97.164 54.9132 96.662 55.0672 96.143 55.1102C99.969 56.3372 103.828 57.4532 107.71 58.4532C100.455 70.6792 96.167 84.5982 95.285 98.7892C82.598 96.5142 70.284 92.6872 58.668 87.4102L59.995 83.5112C59.641 83.5232 59.287 83.5292 58.933 83.5262L57.575 87.5172C57.492 87.7602 57.607 88.0262 57.841 88.1322C76.771 96.8002 95.063 99.8802 95.751 99.8802C96.014 99.8802 96.235 99.6742 96.25 99.4082C97.056 84.9622 101.434 70.7792 108.912 58.3942C109.084 58.1072 108.932 57.7342 108.607 57.6512L108.606 57.6502Z"></path><g id="group"><path id="vector_27" fill="#000000" d="M90.519 63.6812C91.141 64.0702 92.001 64.1992 93.301 64.5482C95.373 65.1052 95.839 65.3173 96.189 65.3043C96.642 65.2883 96.755 64.7382 96.409 64.4912C96.06 64.2422 93.905 63.7612 93.485 63.6712C92.564 63.4742 91.507 63.1543 90.564 63.3383C90.398 63.3703 90.391 63.6012 90.519 63.6812Z"></path><path id="vector_28" fill="#000000" d="M72.678 60.2209C76.079 61.3519 81.558 64.9648 93.724 68.0198C95.872 68.5588 96.18 68.6469 96.63 68.4019C96.821 68.2979 96.928 67.9869 96.788 67.8009C96.307 67.1639 96.083 67.4709 90.851 66.0399C80.132 63.1079 76.27 60.4509 72.778 59.8599C72.543 59.8199 72.446 60.1429 72.678 60.2209Z"></path><path id="vector_29" fill="#000000" d="M70.725 64.8711C77.437 68.5651 85.649 71.3671 93.216 73.0511C93.713 73.1621 94.232 73.3351 94.743 73.2951C95.254 73.2551 95.549 72.5341 95.024 72.2581C93.494 71.4521 88.106 71.6321 71.015 64.3761C70.685 64.2361 70.392 64.6871 70.725 64.8711Z"></path><path id="vector_30" fill="#000000" d="M82.155 75.7241C85.676 77.0171 89.228 78.2351 92.807 79.3571C93.015 79.4221 93.234 79.3451 93.388 79.2031C93.719 78.8971 93.582 78.3481 93.124 78.2041C89.551 77.0841 85.946 76.0591 82.323 75.1131C81.923 75.0091 81.777 75.5861 82.155 75.7241Z"></path><path id="vector_31" fill="#000000" d="M81.343 80.2508C82.057 80.7688 83.06 81.0078 83.888 81.2958C85.458 81.8408 90.709 83.5668 91.839 83.7108C92.489 83.7938 92.481 82.8698 91.981 82.6638C90.799 82.1768 89.98 82.2618 84.138 80.3908C83.298 80.1218 82.389 79.7088 81.504 79.6588C81.16 79.6398 81.11 80.0828 81.343 80.2508Z"></path><path id="vector_32" fill="#000000" d="M75.67 84.1734C75.896 84.5984 76.209 84.6994 78.737 85.6724C81.263 86.6444 84.496 87.6984 88.114 88.6194C88.717 88.7734 89.392 89.0404 90.018 88.9684C90.492 88.9144 90.701 88.3344 90.266 88.0514C89.632 87.6384 88.766 87.7114 82.879 85.9614C76.621 84.1004 76.464 83.6564 75.782 83.8984C75.665 83.9394 75.61 84.0614 75.67 84.1734Z"></path></g></g><g id="hand 1"><path id="vector_33" fill="#000000" d="M87.443 47.0706C87.634 45.0086 89.82 43.3296 91.026 41.8186C91.24 41.8186 91.348 43.7396 88.682 16.6026C88.512 14.8756 86.953 13.5806 85.239 13.7146C83.409 13.8566 82.073 15.4946 82.301 17.3166L86.336 49.4596C86.336 49.4596 87.251 49.1546 87.443 47.0706ZM84.128 23.8386L83.777 21.0446C85.149 21.1616 86.735 20.9406 88.055 20.4466L88.337 23.3236C87.304 23.8496 85.673 24.1886 84.128 23.8386Z"></path><path id="vector_34" fill="#000000" d="M88.914 55.0017C88.041 55.5727 87.274 55.5837 86.936 54.9557C87.026 55.6277 87.199 56.5297 87.57 57.9817C88.156 60.2717 88.692 61.4767 89.518 63.2477C89.958 64.1917 91.281 64.2097 91.643 63.0837C91.95 62.1297 92.459 59.6407 92.603 57.8857C92.649 57.3217 92.679 57.3227 92.095 51.3057C91.397 52.7967 90.293 54.0997 88.914 55.0017ZM90.691 62.7767C90.62 62.9997 90.498 62.9827 90.424 62.8237C89.666 61.2097 89.141 60.0747 88.551 57.7817C89.545 58.1667 90.706 58.1177 91.635 57.3497C91.569 58.9417 91.009 61.7867 90.691 62.7767Z"></path><path id="vector_35" fill="#000000" d="M106.567 41.8476C106.175 41.7156 105.792 41.5586 105.421 41.3776C104.811 41.7516 104.588 41.8196 104.537 42.1186C104.071 44.8806 103.112 47.2426 101.744 49.0196C101.37 47.7016 100.467 47.3936 99.833 47.6876C99.657 47.4506 99.429 47.3086 99.177 47.2526C101.13 46.1276 102.706 43.9826 103.342 41.9446C103.425 41.6806 103.278 41.4006 103.014 41.3186C102.75 41.2366 102.469 41.3826 102.388 41.6466C101.617 44.1166 99.201 46.8806 96.644 47.0406C94.284 47.1886 92.595 46.3576 92.388 48.4206C92.141 50.8726 90.705 53.2336 88.641 54.5826C87.508 55.3226 87.099 54.8696 87.295 53.5306C87.612 51.3676 87.75 49.1786 87.941 47.1156C88.111 45.2686 90.235 43.6116 91.417 42.1306C91.589 41.9146 91.554 41.5996 91.338 41.4276C91.122 41.2556 90.808 41.2906 90.635 41.5066C89.749 42.6156 88.283 43.8516 87.487 45.3296C86.951 45.6126 86.65 45.6126 86.575 45.9726L85.842 49.4626C85.724 50.0236 85.948 50.2196 86.61 50.8196C86.371 53.2696 86.252 53.4726 86.242 54.0616C83.721 51.8776 82.319 51.7976 82.568 50.8726C84.403 44.0546 84.346 44.1546 84.602 43.6656C85.098 42.7186 86.379 41.9516 87.509 41.2736C88.611 40.6136 96.354 35.6226 99.57 33.2606C99.529 32.9326 99.48 32.3866 99.509 32.0596C96.244 34.4986 87.862 39.8966 86.995 40.4156C85.752 41.1606 84.344 42.0046 83.717 43.2006C83.395 43.8146 83.432 43.8126 81.603 50.6116C81.265 51.8686 82.313 52.5196 83.007 52.9486C87.281 55.5946 87.264 57.3276 88.592 57.3276C89.645 57.3276 90.038 56.0096 90.004 54.8346C90.168 54.6986 90.334 54.5496 90.498 54.3906C91.462 54.8046 92.369 54.8926 92.969 54.7806C94.415 55.7476 96.394 56.0816 97.833 55.0986C97.968 55.1656 98.323 55.1876 98.475 55.1876C99.89 55.1876 101.153 54.0986 101.631 52.9016C101.826 52.4146 101.981 51.3726 101.938 50.3456C103.687 48.4166 104.909 45.7166 105.484 42.5106C105.672 42.3966 106.092 42.1396 106.567 41.8476ZM93.474 48.0956C93.569 47.9966 94.085 47.9976 94.717 48.0166C93.493 49.3356 94.148 48.9616 93.282 49.2216C93.358 48.8076 93.415 48.1566 93.474 48.0956ZM91.224 53.6016C91.957 52.7086 92.611 51.5926 93.013 50.3076C93.339 50.2696 93.658 50.1416 93.907 50.0836C94.266 50.0006 94.426 49.9056 94.649 49.6326C95.155 49.0176 95.594 48.4846 96.122 48.0526C96.76 48.0556 97.254 48.0176 97.912 47.8126C97.94 48.0326 97.915 48.3056 97.852 48.5916C97.343 50.8936 96.258 52.1956 93.85 53.3996C92.989 53.8286 92.418 54.0156 91.224 53.6016ZM97.265 54.2766C96.373 54.8866 95.199 54.7696 94.218 54.3326C96.711 53.0716 98.185 51.7096 98.828 48.8086C98.875 48.5976 98.904 48.4036 98.917 48.2266C99.01 48.2256 99.036 48.2756 99.093 48.3876C99.364 48.9196 99.283 49.5996 99.159 50.3696C98.883 52.0886 98.585 53.3756 97.265 54.2766ZM100.703 52.5316C100.402 53.2856 99.687 53.9836 98.86 54.1506C99.66 53.1406 99.927 51.8966 100.147 50.5276C100.234 49.9856 100.345 49.2936 100.216 48.6186C100.254 48.5936 100.289 48.5816 100.315 48.5876C101.118 48.7946 101.033 51.7076 100.704 52.5306L100.703 52.5316Z"></path><path id="vector_36" fill="#000000" d="M140.923 27.9822C140.768 27.7542 140.457 27.6962 140.228 27.8522C138.907 28.7552 120.22 36.3232 116.121 37.9982C115.83 37.9592 114.807 38.3912 112.501 37.0882C108.458 34.8032 104.596 29.7672 106.068 25.5952C112.877 18.3512 124.288 6.06021 125.119 5.39021C125.334 5.21621 125.368 4.90221 125.194 4.68721C125.02 4.47221 124.705 4.43821 124.491 4.61221C123.187 5.66521 101.164 29.5532 99.937 30.5442C99.209 31.1312 98.963 31.5212 99.004 32.4952C99.191 36.9812 102.451 41.1602 106.756 42.4332C107.925 42.7772 108.157 42.4412 108.718 42.1632C110.489 41.2692 138.926 29.9552 140.792 28.6782C141.02 28.5222 141.078 28.2112 140.922 27.9832L140.923 27.9822ZM107.114 33.6672C105.51 34.6572 102.503 36.6192 101.544 37.2402C101.117 36.5692 100.767 35.8482 100.509 35.0982C102.197 33.6992 103.94 32.2242 105.453 30.7952C105.87 31.8232 106.435 32.7672 107.114 33.6672ZM100.063 31.8522C100.146 31.6592 100.369 31.4792 100.565 31.3212C100.889 31.0592 102.379 29.5092 104.777 26.9662C104.714 27.8622 104.822 28.8012 105.093 29.7552C103.629 31.1662 101.903 32.6382 100.212 34.0452C100.117 33.6152 99.887 32.2572 100.063 31.8532V31.8522ZM102.121 38.0582C103.52 37.1492 106.345 35.3132 107.747 34.4532C108.475 35.3002 109.294 36.0732 110.182 36.7512C108.193 37.7822 105.906 38.8552 103.784 39.7482C103.168 39.2522 102.609 38.6832 102.121 38.0582ZM107.745 41.5582C107.135 41.7122 105.296 40.7772 104.738 40.4282C106.885 39.5052 109.155 38.4252 111.097 37.4002C112 37.9952 113.027 38.5552 114.067 38.8382C107.698 41.4472 107.845 41.5332 107.745 41.5582Z"></path></g><g id="hand 3"><path id="vector_37" fill="#000000" d="M46.2169 81.5483C45.3609 82.8063 45.7039 82.4923 40.9829 83.7383C41.2159 84.0183 41.4379 84.3063 41.6479 84.6033C46.2029 83.4293 46.0619 83.5543 47.0429 82.1123C50.5729 76.9423 56.7649 73.9773 63.0229 73.1273L63.3879 72.0693C56.6929 72.8593 50.0049 75.9823 46.2169 81.5483Z"></path><path id="vector_38" fill="#000000" d="M63.152 89.9004C61.627 90.4334 60.457 91.0394 58.417 92.1824C50.977 96.3524 51.1929 94.4644 48.7249 94.3574C48.1679 94.3314 46.0659 94.9764 44.1619 95.6074C44.0979 95.9864 44.019 96.3624 43.924 96.7344C44.933 96.3964 46.2519 95.9784 47.9539 95.4904C49.5159 95.0434 50.2849 96.1044 52.0709 95.8414C56.5909 95.1744 59.48 92.0214 64.591 90.4874C64.111 90.2944 63.631 90.0984 63.153 89.9014L63.152 89.9004Z"></path><path id="vector_39" fill="#000000" d="M40.787 82.7647C39.922 81.8487 39.391 81.7277 38.279 81.8667C32.83 82.5507 33.58 82.5197 33.171 82.3637C31.771 81.8297 30.36 82.0407 27.104 82.2127C24.693 82.3387 13.503 83.5637 13.009 83.6197C12.422 83.6857 11.757 83.7617 11.14 84.0187C9.22997 84.8157 8.44097 86.9877 7.96697 88.7917C7.41397 90.8937 6.96697 93.0507 6.63597 95.2027C5.36997 103.451 7.30397 107.164 14.496 113.151C14.807 113.41 15.278 113.802 15.877 113.847C16.632 113.894 16.926 113.618 19.968 111.779C26.138 109.009 34.666 104.344 37.133 102.981C37.932 102.539 38.335 102.227 38.686 101.313C39.765 100.932 42.83 99.7047 43.575 98.8357C43.911 98.4447 44.076 97.9767 44.203 97.5687C45.8 92.4637 44.459 86.6527 40.785 82.7647H40.787ZM43.251 97.2697C42.98 98.1327 42.802 98.3207 42.035 98.7367C41.077 99.2557 40.087 99.7117 39.073 100.104C41.011 93.1997 38.888 86.7507 34.746 83.3197C38.79 82.8107 38.931 82.7577 39.264 82.8547C39.561 82.9407 39.832 83.2087 40.062 83.4517C43.438 87.0247 44.719 92.5777 43.251 97.2697Z"></path><path id="vector_40" fill="#000000" d="M38.1229 85.7281C38.6059 86.2331 39.6329 85.8841 39.7089 85.1891C39.4919 83.5591 36.9869 84.5401 38.1229 85.7281Z"></path><path id="vector_41" fill="#000000" d="M47.523 91.7312C51.793 90.6392 55.436 87.4082 57.03 83.2992C57.108 83.0972 57.305 82.9632 57.526 82.9812C61.329 83.2082 65.217 82.5912 68.763 81.1932C68.923 81.1302 69.41 80.9382 69.462 80.6902C69.516 80.4282 69.086 80.1082 68.635 79.9072C63.351 77.5502 57.183 77.2802 51.714 79.1672C51.451 79.2572 51.168 79.1182 51.078 78.8572C50.988 78.5962 51.126 78.3112 51.388 78.2212C57.094 76.2522 63.529 76.5332 69.043 78.9932C70.087 79.4592 70.597 80.1512 70.441 80.8932C70.298 81.5812 69.665 81.9112 69.13 82.1222C65.561 83.5292 61.66 84.1742 57.826 83.9972C56.052 88.2412 52.23 91.5592 47.771 92.6992C47.122 92.8672 46.889 91.8932 47.523 91.7312Z"></path></g></g></svg>