<svg width="48" height="48" viewBox="0 0 48 48" fill="none" xmlns="http://www.w3.org/2000/svg">
<path fill-rule="evenodd" clip-rule="evenodd" d="M10 2C5.58172 2 2 5.58172 2 10V38C2 42.4182 5.58172 46 10 46H38C42.4182 46 46 42.4182 46 38V10C46 5.58172 42.4182 2 38 2H10ZM12.4091 15.8182C14.2919 15.8182 15.8182 14.2919 15.8182 12.4091C15.8182 10.5263 14.2919 9 12.4091 9C10.5263 9 9 10.5263 9 12.4091C9 14.2919 10.5263 15.8182 12.4091 15.8182ZM15.8182 39V18.5455H9V39H15.8182ZM24.6818 18.5455H18.5455V39H24.6818V26.6608C25.4724 25.3752 26.836 24 28.7728 24C31.5 24 32.1818 26.7272 32.1818 28.091V39H39V28.091C39 24.4368 37.405 18.5455 31.5 18.5455C27.7442 18.5455 25.6588 19.9157 24.6818 21.1992V18.5455Z" fill="#FBF2E4"/>
</svg>
