<svg width="101" height="27" viewBox="0 0 101 27" fill="none" xmlns="http://www.w3.org/2000/svg">
<g clip-path="url(#clip0_13_62)">
<path d="M30.48 0.200012H28.49V26.96H30.48V0.200012Z" fill="white"/>
<path d="M17.12 13.01H7.42001V14.85H17.12V13.01Z" fill="white"/>
<path d="M0 0.200012V26.96H1.99V2.04001H22.6V0.200012H0Z" fill="white"/>
<path d="M90.25 0.0999756H74.41V26.86H76.4V1.93998H90.1C94.92 1.93998 98.2 4.15998 98.2 8.39997V8.47997C98.2 12.45 94.84 15.05 89.87 15.05H83.6V16.88H89.75C95.33 16.88 100.18 13.98 100.18 8.35997V8.27997C100.19 3.11998 96.14 0.0999756 90.25 0.0999756Z" fill="white"/>
<path d="M62.85 15.05L53.58 0H51.67L35.14 26.95H37.2L52.58 2.18L60.6 15.05H62.85Z" fill="white"/>
<path d="M65.91 20H63.68L68.01 26.95H70.19L65.91 20Z" fill="white"/>
</g>
<defs>
<clipPath id="clip0_13_62">
<rect width="100.19" height="26.96" fill="white"/>
</clipPath>
</defs>
</svg>
