<svg xmlns="http://www.w3.org/2000/svg" fill="none" viewBox="0 0 200 200" height="400" width="400"><g id="on-site-work-field--work-on-site-work-field"><g id="laptop"><path id="vector" fill="#000000" d="M110.211 111.6C110.096 115.374 109.896 119.13 109.611 122.954C109.503 124.407 108.3 125.578 106.814 125.677C85.144 127.118 65.541 127.161 45.456 126.104C43.98 126.026 42.762 124.882 42.615 123.356C41.394 110.658 41.39 98.4189 42.369 86.2479C42.485 84.8059 43.684 83.6429 45.16 83.5429C66.459 82.0979 86.251 82.0789 106.535 83.1219C108.014 83.1979 109.233 84.3419 109.371 85.7839C109.509 87.2199 109.621 88.6189 109.727 90.0099C110.06 90.0009 110.394 89.9969 110.728 89.9889C110.621 88.5749 110.506 87.1509 110.366 85.6879C110.181 83.7569 108.556 82.2239 106.586 82.1229C85.773 81.0479 65.884 81.1329 45.091 82.5449C43.125 82.6789 41.526 84.2359 41.37 86.1679C40.391 98.3229 40.384 110.626 41.626 123.539C41.812 125.468 43.435 127 45.401 127.103C67.17 128.249 86.763 128.012 106.878 126.675C108.858 126.543 110.461 124.975 110.606 123.029C110.895 119.147 111.099 115.313 111.214 111.439C110.879 111.492 110.545 111.548 110.209 111.601L110.211 111.6Z"></path><path id="vector_2" fill="#000000" d="M115.858 138.679C110.201 132.613 110.643 133.003 110.33 133C87.873 132.726 67.687 133.169 40.657 132.793C40.387 132.796 41.017 132.349 33.112 138.876C32.754 139.171 32.96 139.755 33.424 139.761C49.413 139.983 106.122 140.057 115.686 139.969C115.742 139.539 115.795 139.109 115.858 138.679ZM40.827 133.795C67.684 134.167 87.793 134.226 110.12 134.002L111.992 136.006C91.164 136.268 61.358 136.167 38.457 135.755L40.827 133.795ZM34.798 138.779L37.273 136.733C51.933 137.006 104.994 137.099 112.915 136.994L114.769 138.979C91.923 139.199 60.163 139.12 34.797 138.78L34.798 138.779Z"></path><path id="vector_3" fill="#000000" d="M88.674 147.341C79.342 147.204 70.442 146.954 60.708 147.062C60.346 147.086 60.06 146.646 60.279 146.296L62.777 142.309C62.867 142.166 63.023 142.078 63.192 142.075C70.888 141.939 78.686 142.08 86.371 142.492C86.536 142.501 86.686 142.591 86.772 142.733L89.103 146.582C89.305 146.914 89.064 147.347 88.674 147.341ZM87.769 146.312L86.053 143.478C78.566 143.082 70.975 142.945 63.48 143.071L61.612 146.053C69.679 145.974 79.441 146.053 87.769 146.312Z"></path><path id="vector_4" fill="#000000" d="M22.647 149.652C23.03 150.847 23.383 152.053 23.72 153.265H115.135C115.073 152.062 115.047 150.857 115.045 149.652H22.647Z"></path><path id="vector_5" fill="#000000" d="M115.89 131.447C114.831 130.335 113.343 129.697 111.807 129.697H110.666C112.567 129.191 114.331 127.415 114.47 125.505C114.829 120.565 115.084 115.703 115.195 110.768C114.861 110.826 114.525 110.88 114.19 110.937C114.077 115.762 113.828 120.546 113.472 125.433C113.35 127.115 111.988 128.469 110.305 128.583C92.368 129.797 58.973 129.967 42 129.059C40.329 128.97 38.95 127.645 38.783 125.881C37.449 111.757 37.388 97.9093 38.504 83.7673C38.636 82.0983 39.994 80.7533 41.664 80.6383C65.325 79.0043 87.263 78.9753 109.989 80.1693C111.663 80.2573 113.044 81.5813 113.201 83.2503C113.416 85.5283 113.59 87.7473 113.737 89.9273C114.09 89.9233 113.737 89.9223 114.738 89.9133C114.591 87.7093 114.414 85.4643 114.197 83.1553C113.994 80.9963 112.208 79.2833 110.043 79.1693C87.278 77.9723 65.2 78.0103 41.596 79.6393C39.436 79.7883 37.679 81.5293 37.508 83.6883C36.384 97.9363 36.454 111.844 37.799 126.073C37.953 127.698 39.005 129.07 40.44 129.698C38.991 129.698 37.684 129.966 36.39 131.08L21.2 145.612C21.334 145.947 21.463 146.284 21.59 146.622L37.062 131.82C37.903 131.096 38.978 130.697 40.087 130.697H111.808C113.071 130.697 114.295 131.222 115.137 132.102L116.681 134.048C116.769 133.635 116.883 133.229 116.978 132.818L115.89 131.447Z"></path></g><g id="sign"><path id="vector_6" fill="#000000" d="M118.239 92.5631C118.061 90.6491 116.356 89.2331 114.486 89.4101C114.049 89.4151 113.611 89.4311 113.174 89.4381C88.328 79.8501 89.07 80.004 88.22 80.081C87.281 80.168 88.02 79.845 68.301 93.525C67.545 93.652 66.786 93.767 66.032 93.9C64.04 94.086 62.708 95.883 62.881 97.618C62.619 102.019 63.081 107.012 64.245 112.4C64.413 114.206 65.938 115.566 67.685 115.566C80.585 115.566 99.74 114.071 116.474 111.06C118.377 110.872 119.779 109.176 119.604 107.317C119.624 102.729 119.162 97.7511 118.239 92.5631ZM88.312 81.0771C88.814 81.0241 88.499 81.0441 110.526 89.4941C97.165 89.8181 83.767 91.041 70.6 93.145C88.137 80.951 87.783 81.1251 88.313 81.0771H88.312ZM116.359 110.066C115.267 110.179 96.228 114.15 67.947 114.553C66.656 114.676 65.381 113.771 65.232 112.248C64.078 106.89 63.623 101.988 63.878 97.602C63.756 96.288 64.687 95.031 66.165 94.891C83.234 91.889 101.494 90.3981 114.767 90.3981C116.036 90.3981 117.123 91.37 117.248 92.697C118.166 97.867 118.623 102.784 118.605 107.361C118.732 108.729 117.727 109.94 116.359 110.066Z"></path><path id="vector_7" fill="#000000" d="M115.062 107.311C109.704 108.79 104.079 109.28 98.212 108.873C97.64 108.926 97.087 108.005 96.977 106.816C96.401 103.006 96.052 99.4356 95.99 96.1676C95.88 94.9786 96.254 93.9706 96.826 93.9176C102.392 92.4306 108.01 91.9236 113.676 92.3556C114.248 92.3026 114.777 93.2266 114.911 94.4136C115.326 98.0856 115.661 101.64 115.898 105.062C115.981 106.254 115.634 107.258 115.062 107.311Z"></path><path id="vector_8" fill="#000000" d="M70.155 100.095C69.518 100.095 69.483 99.1442 70.118 99.0962L90.902 97.5452C91.562 97.4892 91.636 98.4932 90.976 98.5422C90.976 98.5422 70.166 100.094 70.154 100.094L70.155 100.095Z"></path><path id="vector_9" fill="#000000" d="M70.351 104.212C69.705 104.218 69.682 103.243 70.328 103.212C75.049 102.985 79.826 102.591 84.526 102.043C85.183 101.963 85.3 102.96 84.642 103.036C78.652 103.735 71.991 104.196 70.351 104.212Z"></path><path id="vector_10" fill="#000000" d="M70.693 108.213C70.063 108.213 70.017 107.278 70.644 107.215C77.019 106.577 83.499 106.128 89.904 105.881C90.57 105.86 90.6 106.854 89.943 106.88C75.93 107.421 71.957 108.213 70.693 108.213Z"></path></g><g id="crane"><path id="vector_11" fill="#000000" d="M154.131 151.762C153.718 151.554 151.993 151.064 150.222 151.141C146.865 153.831 146.61 157.74 146.433 161.976C145.699 162.181 145.032 162.361 144.398 162.526C144.715 163.888 145.264 165.149 146.058 166.148C148.045 168.648 152.446 168.552 153.951 167.882C156.21 166.876 157.869 163.625 157.869 159.78C157.869 156.037 156.297 152.857 154.131 151.763V151.762ZM152.474 167.202C150.051 167.202 148.079 163.872 148.079 159.779C148.079 155.686 150.051 152.356 152.474 152.356C154.897 152.356 156.869 155.686 156.869 159.779C156.869 163.872 154.897 167.202 152.474 167.202Z"></path><path id="vector_12" fill="#000000" d="M152.656 164.137C150.924 164.137 149.567 162.077 149.567 159.447C149.567 156.817 150.924 154.757 152.656 154.757C154.388 154.757 155.744 156.817 155.744 159.447C155.744 162.077 154.388 164.137 152.656 164.137ZM152.656 155.757C151.524 155.757 150.567 157.447 150.567 159.447C150.567 161.447 151.524 163.137 152.656 163.137C153.788 163.137 154.744 161.447 154.744 159.447C154.744 157.447 153.787 155.757 152.656 155.757Z"></path><path id="vector_13" fill="#000000" d="M189.983 146.555C189.762 146.422 189.386 146.256 188.915 146.103C187.472 146.209 185.521 146.365 183.456 146.536C181.973 147.66 181.087 149.614 180.797 151.728C181.371 153.294 181.574 155.144 181.337 156.981C182.323 159.596 184.036 161.043 188.198 161.043C190.904 161.043 193.024 157.747 193.024 153.54C193.024 150.319 191.78 147.636 189.982 146.555H189.983ZM188.198 160.043C186.124 160.043 184.371 157.065 184.371 153.54C184.371 150.015 186.123 147.037 188.198 147.037C190.273 147.037 192.024 150.015 192.024 153.54C192.024 157.065 190.272 160.043 188.198 160.043Z"></path><path id="vector_14" fill="#000000" d="M188.359 157.449C186.796 157.449 185.571 155.603 185.571 153.246C185.571 150.889 186.796 149.043 188.359 149.043C189.922 149.043 191.147 150.889 191.147 153.246C191.147 155.603 189.922 157.449 188.359 157.449ZM188.359 150.043C187.39 150.043 186.571 151.51 186.571 153.246C186.571 154.982 187.39 156.449 188.359 156.449C189.328 156.449 190.147 154.982 190.147 153.246C190.147 151.51 189.328 150.043 188.359 150.043Z"></path><path id="vector_15" fill="#000000" d="M179.138 148.415C177.948 147.513 174.434 146.469 172.227 147.895C171.871 148.125 171.554 148.411 171.257 148.721C171.214 148.987 170.787 153.294 170.853 153.294C170.287 153.457 169.707 153.563 169.123 153.637C168.772 156.336 169.339 159.271 170.863 161.189C172.237 162.918 174.679 163.333 176.887 163.333C179.717 163.333 181.934 159.88 181.934 155.473C181.934 152.334 180.809 149.682 179.138 148.417V148.415ZM176.887 162.332C174.656 162.332 172.84 159.254 172.84 155.472C172.84 151.69 174.655 148.612 176.887 148.612C179.119 148.612 180.934 151.689 180.934 155.472C180.934 159.255 179.119 162.332 176.887 162.332Z"></path><path id="vector_16" fill="#000000" d="M177.056 159.555C175.428 159.555 174.152 157.626 174.152 155.163C174.152 152.7 175.428 150.771 177.056 150.771C178.684 150.771 179.96 152.7 179.96 155.163C179.96 157.626 178.684 159.555 177.056 159.555ZM177.056 151.771C176.024 151.771 175.152 153.324 175.152 155.163C175.152 157.002 176.024 158.555 177.056 158.555C178.088 158.555 178.96 157.002 178.96 155.163C178.96 153.324 178.088 151.771 177.056 151.771Z"></path><path id="vector_17" fill="#000000" d="M159.795 159.32C159.518 159.323 159.293 159.093 159.295 158.816C159.313 156.489 159.39 154.172 159.311 151.842C159.302 151.597 159.473 151.383 159.713 151.335L163.074 150.666C168.836 149.518 169.534 157.199 164.745 158.516C162.99 158.998 160.924 159.306 159.796 159.32H159.795ZM160.323 152.233C160.377 154.288 160.322 156.345 160.301 158.283C161.735 158.166 163.138 157.92 164.48 157.552C168.062 156.566 167.746 150.76 163.27 151.647L160.324 152.233H160.323Z"></path><path id="vector_18" fill="#000000" d="M169.522 136.011C168.895 136.011 168.845 135.082 169.468 135.014C174.675 134.445 179.891 133.517 184.97 132.256C185.236 132.192 185.509 132.352 185.576 132.621C185.642 132.889 185.479 133.161 185.211 133.227C177.941 135.032 170.247 136.011 169.522 136.011Z"></path><path id="vector_19" fill="#000000" d="M168.882 139.466C168.266 139.466 168.201 138.561 168.81 138.471C173.724 137.753 178.692 136.953 183.578 136.094C183.849 136.048 184.109 136.228 184.157 136.5C184.204 136.772 184.023 137.031 183.751 137.079C180.837 137.591 169.436 139.465 168.882 139.465V139.466Z"></path><path id="vector_20" fill="#000000" d="M142.41 139.226C142.15 139.213 141.943 139.003 141.934 138.743C141.772 133.778 141.889 128.232 143.982 124.74C144.023 124.672 144.078 124.615 144.145 124.573C148.142 122.07 151.641 122.373 156.193 121.836C156.412 121.81 156.633 121.938 156.716 122.148C157.913 125.168 158.026 133.168 158.019 136.467C158.019 136.688 157.874 136.882 157.663 136.945C152.18 138.591 148.036 139.498 142.41 139.226ZM142.919 138.247C147.976 138.428 151.849 137.631 157.02 136.094C157.017 133.309 156.91 125.942 155.916 122.874C151.674 123.337 148.385 123.141 144.78 125.356C142.94 128.529 142.786 133.6 142.919 138.247Z"></path><path id="vector_21" fill="#000000" d="M90.8 66.6173H90.166V27.0303C90.166 26.7543 89.942 26.5303 89.666 26.5303C89.39 26.5303 89.166 26.7543 89.166 27.0303V66.6173H88.753C87.395 66.6173 86.29 67.7223 86.29 69.0813V71.3493C86.29 72.7073 87.395 73.8133 88.753 73.8133H89.075C89.048 77.2453 89.066 78.1243 88.741 78.9393C87.887 81.0793 85.439 80.1673 85.687 77.8473C85.757 77.1933 84.763 77.0763 84.693 77.7413C84.322 81.2143 88.388 82.5223 89.67 79.3103C90.098 78.2403 90.049 77.1533 90.076 73.8133H90.8C92.158 73.8133 93.264 72.7083 93.264 71.3493V69.0813C93.264 67.7233 92.159 66.6173 90.8 66.6173ZM92.264 71.3483C92.264 72.1553 91.607 72.8123 90.8 72.8123H88.754C87.947 72.8123 87.291 72.1553 87.291 71.3483V69.0803C87.291 68.2733 87.947 67.6163 88.754 67.6163H90.8C91.607 67.6163 92.264 68.2733 92.264 69.0803V71.3483Z"></path><path id="vector_22" fill="#000000" d="M154.498 140.972C153.892 140.972 153.813 140.088 154.41 139.98C155.493 139.784 156.531 139.412 157.493 138.875C157.734 138.74 158.039 138.826 158.173 139.068C158.308 139.309 158.221 139.613 157.98 139.748C156.506 140.571 154.812 140.972 154.498 140.972Z"></path><path id="vector_23" fill="#000000" d="M136.749 143.571C136.74 142.881 136.155 142.351 135.466 142.382C129.717 142.643 125.248 142.206 119.808 140.472C119.087 140.242 118.336 140.741 118.246 141.493C118.032 143.278 117.877 144.719 117.943 146.623C117.959 147.102 118.273 147.519 118.717 147.698C121.132 148.673 122.787 149.655 125.244 150.907C126.531 151.563 126.905 151.617 128.267 151.301C131.095 150.643 133.144 149.963 135.814 149.301C136.357 149.166 136.745 148.685 136.748 148.125C136.754 146.92 136.767 144.885 136.751 143.572L136.749 143.571Z"></path><path id="vector_24" fill="#000000" d="M194.868 144.641C194.731 143.46 194.279 143.185 193.523 142.858C192.27 142.315 190.199 141.779 187.942 141.286C188.284 140.244 188.178 126.547 188.145 124.666C188.119 123.204 188.036 121.898 187.378 120.756C187.439 118.562 187.117 116.394 186.8 114.297C186.611 113.045 186.392 111.435 184.994 111.04C183.91 110.729 178.611 110.177 176.338 110.624L96.472 23.281C98.035 18.681 93.762 13.855 88.797 15.32C85.483 16.3 83.594 19.775 84.574 23.089C85.523 26.296 88.522 27.839 91.341 27.503L165.835 110.011C163.608 109.915 161.232 109.807 160.95 109.748C159.194 109.25 158.231 111.248 157.914 111.903C157.411 112.945 156.381 115.263 155.366 117.621C146.285 116.117 134.327 115.636 126.087 118.094C121.863 119.354 120.005 121.015 118.237 126.386C115.413 134.262 113.809 146.445 114.94 157.21C115.158 159.29 115.746 159.885 117.27 160.428C121.772 162.035 126.539 162.806 131.149 163.553C137.246 164.539 138.947 164.586 146.566 162.46C146.775 162.402 146.922 162.216 146.931 162C147.028 159.67 147.129 157.262 147.952 155.072C148.671 153.16 150.559 150.943 152.475 150.543C155.996 149.809 157.907 155.658 157.549 159.554C157.515 159.926 157.884 160.199 158.226 160.067L159.971 159.396C160.163 159.322 160.29 159.138 160.292 158.933C160.305 157.091 160.46 152.86 160.205 149.848C162.346 149.462 164.507 149.11 166.715 148.849C167.312 149.411 166.938 152.794 166.94 153.361C166.942 153.94 167.274 154.244 167.813 154.244C168.749 154.244 169.906 154.089 170.99 153.777C171.229 153.708 171.381 153.475 171.347 153.229C171.355 152.784 171.68 149.268 171.741 148.85C171.834 148.2 171.908 148.15 172.469 148.06C173.304 147.928 191.327 146.228 191.629 146.521C191.962 146.849 192.138 149.159 192.055 150.365C192.047 150.488 192.021 150.86 192.328 151.095C192.706 151.385 192.922 151.235 194.527 150.688C194.674 150.638 194.876 150.569 195.051 150.409C196.086 149.461 194.999 145.784 194.866 144.643L194.868 144.641ZM164.494 136.17C164.522 137.167 164.598 142.771 164.598 142.789C162.963 142.536 161.533 142.284 160.282 142.047C160.524 136.566 160.644 130.995 159.996 125.493L175.244 126.698C172.589 128.281 169.375 130.312 166.658 132.147C164.764 133.427 164.439 134.188 164.494 136.17ZM160.236 143.048C162.634 143.493 164.911 143.872 165.112 143.87C168.702 143.836 183.349 142.706 186.883 142.073C188.402 142.388 189.843 142.726 191.12 143.106C188.001 143.338 161.73 145.641 160.078 145.784C160.14 145.335 160.137 145.136 160.236 143.048ZM187.144 124.684C187.237 129.974 187.202 135.337 187.04 140.625C187.028 141.056 187.025 141.052 186.623 141.106C179.514 142.062 172.076 142.508 165.601 142.844C165.6 142.785 165.523 137.143 165.495 136.141C165.449 134.521 165.594 134.073 167.218 132.975C172.489 129.413 179.622 125.119 186.671 121.557C187.069 122.441 187.124 123.504 187.144 124.684ZM184.58 111.983C185.336 112.052 185.611 113.121 185.724 113.871C186.067 116.153 186.43 118.348 186.387 120.572C183.605 121.975 180.376 123.723 177.86 125.166C177.906 125.05 181.133 117.099 182.776 113.693C183.164 112.889 183.683 111.911 184.58 111.983ZM90.147 22.978C89.618 22.243 89.747 21.209 90.439 20.625C91.16 20.017 92.318 20.041 93.006 20.968L175.364 111.034C175.132 111.205 174.927 111.4 174.775 111.64C174.182 112.58 173.411 113.541 172.559 114.26L90.147 22.978ZM170.658 115.316C168.338 115.927 166.275 113.569 166.976 111.274C170.595 115.282 170.4 115.111 170.658 115.316ZM158.815 112.337C159.448 111.025 160.025 110.527 160.678 110.709C160.952 110.787 162.213 110.855 166.003 111.018C164.77 115.164 170.586 120.158 175.62 112.174C175.734 111.993 175.886 111.85 176.085 111.735C176.856 111.289 180.329 111.389 182.874 111.699C181.68 112.888 179.155 119.442 176.531 125.795C175.799 125.736 166.429 125.021 159.873 124.503C159.647 122.834 159.349 121.171 158.955 119.521C158.84 119.04 158.378 118.17 158.034 118.102C157.495 117.994 156.939 117.89 156.373 117.789C157.179 115.9 158.043 113.935 158.815 112.337ZM122.457 120.933C125.61 118.297 133.546 117.553 138.031 117.417C143.318 117.254 148.628 117.588 153.862 118.388C149.06 118.723 142.255 119.843 140.416 124.291C133.917 124.686 127.44 124.043 121.147 122.396C121.522 121.858 121.948 121.359 122.457 120.933ZM120.696 123.322C126.968 124.986 133.424 125.658 139.904 125.323C139.065 129.791 138.659 134.353 138.695 138.899C132.858 139.725 126.784 139.349 121.098 137.806C119.933 137.49 119.068 137.2 118.292 136.865C117.745 136.629 117.009 136.26 116.888 135.677C117.787 130.991 118.721 127.388 120.696 123.322ZM115.556 149.132C116.768 150.179 117.606 150.585 118.497 151.068C118.51 151.411 118.462 152.043 118.401 152.152C118.29 152.173 116.218 151.783 115.582 151.672C115.559 150.826 115.55 149.979 115.556 149.132ZM140.124 162.889C140.061 162.953 139.857 162.988 139.76 163.004C136.964 163.478 134.089 163.013 131.309 162.564C126.743 161.825 122.021 161.061 117.606 159.485C116.455 159.073 116.113 158.804 115.934 157.104C115.78 155.64 115.681 154.168 115.619 152.694C117.979 153.106 118.388 153.269 118.823 153.057C119.665 152.646 119.481 150.828 119.478 150.81C119.329 149.934 118.025 150.21 115.58 147.782C115.673 144.183 116.022 140.584 116.634 137.034C118.458 138.612 128.267 141.366 138.785 139.889C138.771 142.553 138.84 145.232 139.032 147.875C139.086 148.624 139.241 149.158 139.47 149.545C139.439 149.68 139.443 149.549 139.507 150.649C138.193 151.267 136.295 151.879 134.334 152.308C133.928 152.397 133.698 152.743 133.649 153.348C133.603 153.916 133.234 154.721 133.73 155.408C134.144 155.982 134.891 156.039 135.292 156.07L139.844 156.42C140.207 162.648 140.258 162.754 140.126 162.888L140.124 162.889ZM139.568 151.723L139.783 155.414L135.367 155.075C134.391 155 134.391 154.807 134.551 154.018C134.666 153.452 134.636 153.414 134.664 153.261C135.656 153.04 137.761 152.516 139.568 151.723ZM147.016 154.718C146.181 156.94 146.045 159.298 145.948 161.592C144.543 161.983 142.82 162.441 141.179 162.756C141.209 162.4 141.202 162.588 140.49 150.365C141.126 150.574 141.816 150.542 143.903 150.542C146.261 150.542 148.562 150.346 151.891 149.682C149.708 150.349 147.775 152.699 147.016 154.718ZM147.491 149.36C145.254 149.6 143.81 149.522 142.342 149.533C140.665 149.543 140.155 149.549 140.029 147.804C139.541 141.071 139.667 132.891 140.885 126.251C141.281 124.093 142.217 122.788 144.118 121.746C148.064 119.581 153.21 119.378 157.346 119.214C157.791 119.195 157.851 119.197 157.983 119.754C159.963 128.051 159.544 136.72 159.138 145.104C159.081 146.279 158.987 146.676 157.398 147.207C154.192 148.276 150.859 149 147.492 149.361L147.491 149.36ZM159.296 158.581L158.591 158.852C158.687 154.797 156.717 149.281 152.874 149.486C154.188 149.196 157.719 148.322 158.869 147.652C159.535 149.387 159.315 156.687 159.296 158.581ZM194.378 149.668C194.278 149.752 193.163 150.09 193.063 150.124C193.081 149.208 193.066 146.512 192.323 145.797C191.962 145.449 191.454 145.455 191.186 145.46C189.587 145.481 173.889 146.82 172.313 147.07C171.344 147.224 170.914 147.578 170.752 148.703C170.747 148.738 170.381 151.534 170.379 152.903C169.601 153.1 168.798 153.212 167.943 153.235C168.008 151.556 168.506 147.819 166.653 147.819C166.091 147.819 162.679 148.374 160.095 148.83C159.989 148.049 159.845 147.401 159.643 146.993C159.683 146.939 159.71 146.877 159.744 146.819L193.092 143.974C193.629 143.927 193.779 143.944 193.874 144.757C193.956 145.462 194.845 149.186 194.377 149.668H194.378Z"></path><path id="vector_25" fill="#000000" d="M128.689 158.381C126.867 158.264 125.034 158.038 123.241 157.708C122.98 157.657 122.725 157.826 122.664 158.085C122.546 158.585 122.518 159.038 122.577 159.508C122.602 159.711 122.749 159.879 122.947 159.93C124.824 160.42 127.15 160.729 128.654 160.744C128.926 160.747 129.153 160.524 129.154 160.245L129.157 158.88C129.157 158.616 128.952 158.398 128.689 158.381Z"></path><path id="vector_26" fill="#000000" d="M126.3 154.467C125.257 154.467 124.806 154.196 120.628 152.395C120.375 152.286 120.257 151.992 120.366 151.738C120.475 151.485 120.769 151.368 121.023 151.476C125.818 153.525 125.595 153.609 127.24 153.378C128.829 153.153 130.432 152.893 132.006 152.602C132.28 152.551 132.538 152.732 132.589 153.003C132.639 153.274 132.46 153.535 132.188 153.586C131.254 153.758 127.25 154.467 126.3 154.467Z"></path><path id="vector_27" fill="#000000" d="M126.395 157.071C125.545 157.071 125.357 156.907 120.62 154.808C120.368 154.696 120.254 154.401 120.366 154.148C120.477 153.896 120.773 153.782 121.026 153.894C126.379 156.264 125.942 156.241 127.414 155.922L132.007 154.929C132.274 154.871 132.543 155.042 132.601 155.312C132.659 155.582 132.488 155.848 132.218 155.906C126.934 157.051 126.965 157.071 126.396 157.071H126.395Z"></path><path id="vector_28" fill="#000000" d="M120.529 133.594C122.258 131.95 123.363 130.694 125.266 128.966C126.178 128.138 126.183 128.224 126.814 127.392C127.008 127.136 126.642 126.837 126.397 126.975C126.059 127.165 125.755 127.357 125.466 127.619C123.991 128.957 121.684 131.383 120.357 133.461C120.289 133.568 120.441 133.677 120.529 133.594Z"></path><path id="vector_29" fill="#000000" d="M129.064 136.65C131.466 133.436 132.885 132.466 133.281 131.988C133.485 131.742 133.686 131.495 133.896 131.254C134.189 130.917 133.82 130.373 133.404 130.616C132.757 130.993 132.107 131.292 130.596 133.154C129.791 134.146 129.082 135.181 128.498 136.318C128.301 136.702 128.816 136.982 129.065 136.649L129.064 136.65Z"></path><path id="vector_30" fill="#000000" d="M146.132 134.585C149.817 129.533 151.695 128.272 152.197 127.053C152.333 126.723 151.911 126.521 151.658 126.638C150.906 126.986 150.409 127.669 149.888 128.288C148.131 130.379 146.812 132.232 145.579 134.261C145.36 134.621 145.894 134.91 146.132 134.584V134.585Z"></path><path id="vector_31" fill="#000000" d="M151.521 134.012C152.816 132.743 152.612 132.952 153.778 131.669C154.201 131.204 154.249 131.011 154.388 130.692C154.543 130.338 154.179 130.099 153.95 130.254C153.554 130.52 153.444 130.555 153.072 131.042C152.003 132.438 152.151 132.227 151.141 133.719C150.984 133.951 151.329 134.201 151.521 134.012Z"></path><path id="vector_32" fill="#000000" d="M188.391 146.227C188.391 146.227 189.895 146.649 190.925 147.916C191.955 149.183 192.456 150.661 192.456 150.661C192.496 145.878 192.278 145.962 190.925 146.016C190.265 146.042 188.391 146.227 188.391 146.227Z"></path></g><g id="cone"><path id="vector_33" fill="#000000" d="M27.532 163.162C27.87 161.879 28.155 160.796 28.4 159.881C27.366 161.593 26.286 163.283 25.123 164.901C24.119 166.297 23.715 166.439 22.163 166.418C16.851 166.348 10.83 166.269 5.67901 163.929C5.63801 163.911 5.51501 163.855 5.49901 163.851C5.49601 163.575 7.87601 160.542 11.156 157.814L10.365 160.749C10.313 160.939 10.379 161.143 10.532 161.267C16.344 165.996 25.237 162.916 25.696 159.662C25.797 158.947 25.57 158.303 25.175 156.77C26.424 156.866 27.893 157.077 29.024 157.617C29.132 157.242 29.231 156.912 29.32 156.631C27.998 156.038 26.361 155.855 24.909 155.745C23.572 150.634 22.058 145.455 19.493 140.736C18.78 139.424 17.78 138.856 16.891 139.247C15.719 139.762 15.781 140.517 11.583 156.219C9.08301 158.12 6.77401 160.401 4.89001 162.898C4.29701 163.683 4.33901 164.419 5.26501 164.839C10.375 167.16 16.617 167.421 22.465 167.421C24.769 167.421 25.231 166.63 27.532 163.162ZM17.295 140.161C17.706 139.98 18.27 140.578 18.615 141.213C19.689 143.189 20.577 145.256 21.345 147.37C19.672 148.475 17.274 148.89 14.797 147.995C16.38 142.049 16.766 140.393 17.295 140.161ZM12.877 155.231C16.293 156.739 20.934 157.269 23.657 154.921C24.627 158.549 24.77 159.072 24.707 159.522C24.383 161.819 16.694 164.667 11.418 160.69C11.912 158.862 12.396 157.045 12.878 155.232L12.877 155.231Z"></path><path id="vector_34" fill="#000000" d="M44.512 173.26C42.906 171.972 40.644 171.713 38.591 171.559C37.187 166.197 35.602 160.763 32.912 155.812C32.331 154.744 31.318 153.775 30.215 154.261C28.992 154.799 29.033 155.683 24.661 172.049C22.038 174.042 19.617 176.434 17.642 179.052C17.03 179.864 17.072 180.62 18.025 181.05C23.38 183.482 29.923 183.755 36.05 183.755C37.867 183.755 38.58 183.249 39.667 181.735C41.467 179.232 43.14 176.593 44.637 173.893C44.755 173.68 44.702 173.413 44.512 173.26ZM30.617 155.176C31.134 154.948 31.768 155.804 32.032 156.289C33.158 158.361 34.088 160.527 34.894 162.742C33.123 163.92 30.577 164.345 27.985 163.403C29.678 157.045 30.051 155.425 30.617 155.175V155.176ZM31.688 172.268C34.184 172.295 35.774 172.076 37.32 170.664C38.344 174.495 38.488 175.042 38.422 175.5C38.087 177.861 30.048 180.976 24.437 176.731C24.957 174.807 25.467 172.895 25.974 170.986C27.894 171.822 30.08 172.25 31.688 172.268ZM38.854 181.151C37.798 182.621 37.364 182.774 35.731 182.751C30.16 182.678 23.845 182.595 18.437 180.138C18.318 180.084 18.248 180.045 18.236 180.037C18.216 179.751 20.756 176.519 24.234 173.639L23.386 176.79C23.334 176.98 23.4 177.184 23.553 177.308C29.591 182.222 38.926 179.074 39.413 175.641C39.518 174.904 39.291 174.26 38.857 172.584C40.405 172.701 42.262 172.948 43.546 173.793C42.123 176.325 40.546 178.798 38.854 181.151Z"></path></g></g></svg>