<svg xmlns="http://www.w3.org/2000/svg" viewBox="0 0 200 200" height="400" width="400"><g fill="#000000"><path fill-rule="evenodd" d="M86.5 80v2l2.26-1.03L86.5 80z"></path><path d="M192.48 144.09c-.08-68.13.35-63.6-1.37-65.32-2.12-2.11-4.32-1-11.62-1.27-.39 0-3.82-4.4-12.31-5.77a12.12 12.12 0 0 0-1.88-2.46c6.66-1.06 8.43-9.29 1.25-9.9a5.59 5.59 0 0 0-2.05.18c3.45-16.34-13.32-19.29-20.05-6.3a11 11 0 0 0-3.8.33c-.4.16.2.26 5.37 1.73a24.06 24.06 0 0 0-.55 5.29l-1.18 3.22a.25.25 0 0 0 .25.34h1.17c.28 3.07 1.72 6.15 4.77 5.67a8.56 8.56 0 0 0-2.06 3.44 17.4 17.4 0 0 0-5 2.3c-2.86-5.55-4.11-7.85-5.26-10-.15-.29-.21-.16-3.66 1.37-.4-1.14-.57-2-1.63-1.47-4.6 1.86-4.83 2-3.59 3.79-4.44 2-4.39 1.9-4.27 2.16s1.35 3 2.79 6v.06l-45.41-.06a361.14 361.14 0 0 0-5.4-7.6c1-2 0-3.58-.69-2.8a7.2 7.2 0 0 0-.6 1.34c-.32.68-.9 1.08-1.35.49a2.18 2.18 0 0 1-.23-1.85c.45-1.67 1.87-2 1.87-2.28v-2h3.41V52.28H76V28.92h4.39v-1.84c103.48.16 99.33.15 98.82-.35-.21-.19-6.61-6.54-8.07-6.49h-27.8l-3-.42c-7-1-47.35-7-100.47-14.75a.26.26 0 0 0-.43 0C24.8 12.12 7.63 20.35 7.53 20.4s0 5.63 0 6.51H31.8v20.46h4.54v4.2h-3.73v7h3.1c-.09 65.16.52 108.37.52 112.17H31.8v5.62h17.46v-5.62h-4.21c0-24.28-.06-43.37-.19-67.75a.21.21 0 0 0 0-.19c-.08-15.09-.15-25.09-.35-43.86l.23-.31a.09.09 0 0 0 0-.06h1.92v-7h-2.9v-4.2h3.76V26.91c5.86 0 9.89.12 20.75.15v1.86h4.78v23.36h-2.56v10.5h4.33v1.11a3.49 3.49 0 0 0-2.31 3.21 4.48 4.48 0 0 0 .77 3.18 2 2 0 0 0 .33.32c-.88 1-2.36 2.74-3.35 3.91l-2.42 2.91c-8.87.35-11-.88-13.12 1.29-1.74 1.74-1.32.15-1.34 38.71v53.34a.25.25 0 0 0 .25.24h91.12a112.23 112.23 0 0 0 3.8 17.65c-.57.31-6.38 3.18-7.95 4.85a1.31 1.31 0 0 0-.37.62c0 .2.06.41.36.55 1.7.79 10.29-.05 12.3-.49a1.71 1.71 0 0 0 .61-.21.69.69 0 0 0 .22-.37 5.29 5.29 0 0 0 .15-1.31c.11-8.09-.33-2.45 1.93-21.3h15.36c2.27 6.34 4.41 11.7 5.85 14h.15c-1.3 1.49-4.8 5.64-5.51 7.49a1.41 1.41 0 0 0-.12.72c0 .2.22.35.55.37 2 .09 11.27-4.82 11.68-5.54.22-.37-.13-1.26-.29-1.69a31.07 31.07 0 0 0-1.35-2.84c-.18-1.66-.66-6.31-1.25-12.46h11.47a.23.23 0 0 0 .23-.23s-.08-11.68-.09-26.72zm-39.16 49.25c-1.67.39-10.77.8-12.6.88h-.07a1 1 0 0 1 .11-.18 2.09 2.09 0 0 1 .33-.35 34.73 34.73 0 0 1 4.5-3.08c3.61-2 1.95-1.74 7.77-2a24 24 0 0 1-.04 4.73zm28.79-9.22a18.1 18.1 0 0 1 1.24 3.31c-1.4 1-9.67 4.82-11.33 5.59h-.08a.81.81 0 0 1 0-.2c0-.13.1-.29.17-.46a35.12 35.12 0 0 1 3-4.55c2.89-3.43 1.17-2.74 7-3.69zM141.05 53.67a14.37 14.37 0 0 1 3.47-.14c.29 0 1.89-3.92 6-6.41 6.8-4.09 16.36 0 13.42 12.61l-.87-.22c3.31-12.87-11.79-17.75-17.76-4.71zm4.47 1.19c6.39-12.35 20-7.63 17.35 4.6l-3.38-.89zm15.25 11.68a8.76 8.76 0 0 0-2.35-.28 7.32 7.32 0 0 0 1.88-1.58 9.37 9.37 0 0 0 .47 1.86zm-14.84-2.94h-1c1.07-3.06 1.05-2.92 1.05-3a28.8 28.8 0 0 1 .29-5.25l3.93 1.12a4.44 4.44 0 0 0 1.39 3.14c1.87 1.81 4.61 1.78 6.19 1.93-.85 2.79-2.38 2.14-2.43 2.41s2.31.4 2.57-2.29a6.06 6.06 0 0 1 0 4.61 11.82 11.82 0 0 0-7.16 3.24c-4.62.75-4.25-5.93-4.83-5.91zm21 8.08c-6.43-1-13.18.11-18.27 1.49a10.35 10.35 0 0 1 18.25-1.49zm6.73 6.55c6.76 1.1 11.34 16.77 11.23 19.88-.17 6.92-5.37 11.6-6.6 12.61l.09-1.33c.19-3 .38-6.33.53-9.55a121.64 121.64 0 0 0 .16-12.75.09.09 0 0 0-.07-.09.1.1 0 0 0-.09.1 93.57 93.57 0 0 1-.15 9.54c-.22 4.33-.55 9.24-.85 13.35-.27 3.85-.52 7-.62 8.27-8.54.56-15.66 1-42.25 3.38-.56-4.11-.75-11.83-.79-16 5 4.43 8.55.41 11.42-5.79 1-2.17 2.31-5.76 2.1-5.82s-3.48 10-7.56 12.5c-2.75 1.66-6.24-1.1-8.07-3.85 6.32 7.14 7.57-15 10.39-19.56 2.39-3.93 24.34-5.99 31.11-4.89zm3.76 42.91c0-1.7.31-2.53.58-6l1-.61a7.13 7.13 0 0 1-1.6 6.61zM159.64 142l1.67-.82c.57 1.83 1.33 4.3 2.23 7.14l-4.48-2.32c.21-1.46.4-2.81.58-4zm.09-.6c.2-1.43.39-2.65.54-3.63l.89 2.93zm-18.47-4.22c-5.14-2.54-10.94-5.37-11.11-5.45a.1.1 0 0 0-.14 0 .1.1 0 0 0 .05.14c.14.08 7.05 3.64 11.24 5.77.25 3.74.57 7.9.95 12.23l-1 .49c-5.49 2.7-12.68 6.29-12.84 6.37a.11.11 0 0 0 .09.19c.16-.08 7.84-3.7 12.95-6.15l.85-.41c.38 4.14.81 8.42 1.32 12.63h-22.69v-36.4h19.72c.13 2.7.35 6.34.61 10.54zm17.74 9.37 4.75 2.37c1.33 4.22 2.93 9.18 4.58 14.08h-11.55c.76-5.79 1.54-11.63 2.22-16.45zM179.78 160h4.13a.29.29 0 0 0 .18-.07.24.24 0 0 0 .07-.18v-2.97c0-1.49-.09-3-.09-3a.1.1 0 0 0-.2 0s-.08 1.49-.13 3v2.73h-3.93c-.09-.93-.17-1.88-.25-2.84.36.18.56.32.62.19s0-.13-.64-.44c-.68-7.87-1.32-16.23-1.71-23.41l2.31-1.15a.09.09 0 0 0 0-.13.1.1 0 0 0-.13 0l-2.24 1c-.06-1.15-.11-2.27-.16-3.35h6.15v2.73c.05 1.48.13 3 .13 3a.1.1 0 0 0 .2 0s.06-1.49.09-3v-2.97a.24.24 0 0 0-.07-.18.29.29 0 0 0-.18-.07h-6.36c0-.87-.07-1.7-.09-2.51h9.11l-.1 36.59h-6.44c-.05-.97-.18-1.97-.27-2.97zm-45.72-47.58c-14-.15-25.78-.15-33.95-.15v-3c13.57 0 20.64 0 33.9-.15-.01 1-.01 2.12.05 3.3zm-6-30.86A11.05 11.05 0 0 1 128 80a10 10 0 0 1 .13-1.59l1.59 3.52a.25.25 0 0 0 .23.15c.39 0 .63-1.58 1.4-2.32s.14 4.14.18 4.24a9.76 9.76 0 0 0-2.07 1.24 9.44 9.44 0 0 1-1.39-3.68zm8.05-13.85 1.41-.59c1.34 3.24 3.19 7 4.51 9.45a25.72 25.72 0 0 0-7.73 12.14l-2.22-5-.39.16a14.4 14.4 0 0 0 .24-4.28c-.18-.53-.71-.68-1.36.31-1-2.46-2.54-6-3.48-7.92L129 71c.26.44.31.92.6.79.1 0 2.57-1.07 5.51-2.48.8-.38 1.36-.67 1.36-.67a.22.22 0 0 0 .1-.11c0-.13-.11-.17-.45-.82zm-5 33.68c.12.2.24.39.37.57-.27.19 1.4 2.35 1.74 2.75-14.41-.15-21-.15-33.16-.15v-3c11.08.01 31-.09 31.1-.17zM137.86 66c1.47 2.72 4 7.18 5.42 9.66-.38.26-.74.53-1.08.8-1.09-2.69-4.28-9.91-4.65-9.72l-1.53.81-.33-.59zm-6.21.53c2.21-1 1.82-1.19 2.66.5l-4.79 2.13c-.87-1.6-.65-1.41 2.13-2.65zm3.84.52.59 1.35c-1.78.73-5.28 2.35-6.54 3l-.82-1.4c1.52-.64 5.28-2.29 6.77-3zm-10 4.39 3-1.3.34.71c-1.75.83-2.39.81-2.23 1.18 0 .1 1.75 4.23 3.81 8.16-.2.35-.39.73-.53 1-1.74-3.72-1.6-3.84-1.88-3.84-.9-2.18-1.5-3.6-2.49-5.93zM97 79.45h30.55v.54a9.28 9.28 0 0 0 .17 1.64c0 .25.11.49.17.72H97a1.45 1.45 0 0 1 0-2.9zm-6.67.45a1.49 1.49 0 0 1 .42 1.1c0 2.32-3.36 1.31-4.9 1.52l-.56-.82a7.63 7.63 0 0 0-.13-2.22c3.61.09 4.4-.33 5.14.42zm-19.5 10.37H57.7c1.72-2 3.84-4.46 5.57-6.55h22.8l1.2 1.73 2.2 3.07c.67.93 1.15 1.6 1.36 1.88zm20.1.3-.12 24.58H57.62V90.74h13.23zm-24.29-11a1.52 1.52 0 0 1-.64 2.92 1.49 1.49 0 0 1-1.21-.61c.33-.44 1.43-1.75 1.85-2.27zm6.43-.16a1.52 1.52 0 0 1 0 3 1.52 1.52 0 0 1 0-2.96zm10.09 0 .39.58-2.2.94 2.27 1v-1.81c.1.16.84 1.23 1.24 1.81 0 .08.07.42.09.56-3.61-.12-4.39.31-5.14-.45a1.52 1.52 0 0 1 1.07-2.59zm1.79 0A6.12 6.12 0 0 0 84.8 81c-.36-.54-.66-1-1-1.51zm-8.26-12.1c.79.35-.19 4.44-2.6 3 .26-.34.46-.6.59-.75 1.37.3 1.65-1.83 2.01-2.21zm3.42-41.52h-1.72l-6.33-5.18h13.06zm.31.91v-.59l5.23-5.33 7.45 5.9zm13.32-.14-7.5-5.92h14.74zm.64.11 7.28-5.9 7.75 5.88zm15.72-.13-7.73-5.86h14zm.63.11 6.27-5.79 5.34 5.82zm12.21-.13-5.35-5.82h12.33zm.65.12 7-5.84 4.95 5.83zm54.85 0h-12.3l5.37-5.82c1.61.77 5.66 4.61 6.93 5.84zm-7.13-5.9-5.53 5.9h-.15l-7.22-5.9c13.79.02 12.79-.01 12.9.02zm-13.49 0h.06l7.32 5.9h-14l6.59-5.9zm-.57 0-6.38 5.65-5.75-5.65zm-6.69 5.9h-13.79l7.74-5.89zm-6.75-5.9-7.71 5.82-4.94-5.83zM31.7 20.49H7.82C15.32 17 28.07 11 39.1 5.8c-1.72 3.34-7.4 14.51-7.4 14.69zm2.92 14.35v-5.92h2.86v5.92zm1.3 23.75a.07.07 0 0 0 0 .06l4.22 5.42-4 5a.15.15 0 0 0 0 .19l3.93 5.47c-4 5.55-4.14 5.45-4 5.68l3.91 5.24c-3.48 4.72-3.68 4.65-3.51 4.91l3.5 5.56-3.8 6c.06-8.75-.02-22.87-.25-43.53zm8.36 10.22-3.76-4.74 3.76-4.82c-.01 6.29 0 9.06 0 9.56zm-.1.39-3.82 5.25-3.83-5.25 3.83-4.91zm-7.74 78.3 3.68 5-3.67 5.11c0-3.08 0-6.22-.01-10.11zm0 10.72 3.91-5.35 4.1 5.62-4.1 6.11-3.91-5.82zm0-11.37 3.86-4.58 3.85 4.58-3.85 5.37zm.14-9.74 3.72-5 3.71 5-3.71 4.45zm0-10.78 3.72-5.92 3.71 5.92-3.71 5zm0-12.79 3.72-4.75 3.71 4.75-3.71 5.92zm-.26-10.64 4-6.3 4 6.3-4 5.08zm.67-12.42 3.31-4.43 3.3 4.43-3.3 5.22zm-.39-10.17 3.76-5.24 3.76 5.24-3.76 5zm-.32 23.27 3.76 4.8-3.72 4.75c-.01-3.21-.03-6.4-.04-9.55zm0 10.41 3.73 5.94-3.68 5.87c.04-1.37.03-3.74 0-11.8zm.05 12.83 3.67 4.91-3.63 4.87c.03-3.84.01-9.67.01-9.78zm0 10.77 3.64 4.33-3.62 4.33c.08-4.38.08-5.89.07-8.66zm0 21.77 3.75 5.48-3.76 5.58c.12-1.14.13-5.17.13-11.06zm0 11.4 3.9-5.69 3.89 5.69zm8.39 0h-.37c0-.1-.06-.11-4-5.92l4.21-6.15c.27 11.19.27 10.47.29 12.07zm-.13-12.47-4.13-5.75 4-5.51c.18 2.68.24 8.44.26 11.26zm-.1-11.63-4-4.74 3.9-4.63c.19 5.16.2 5.48.23 9.37zm-.09-88.07zm0 78.34-3.88-5.2 3.82-5.11c.15.84.19 8.59.2 10.31zm.08-10.93-3.83-6.1 3.76-6c.02 4.1.05 8.16.07 12.1zm-.07-12.88-3.74-4.77 3.69-4.71c.02 3.16.03 6.36.05 9.51zm0-11.14-3.72-5.86 3.51-5.56c.16-.26 0-.18-3.52-4.91l3.65-4.89c-.04 6.01 0 15.24.03 21.24zm-.08-22.17-3.7-5.08 3.7-5.15zm0-21.25v.33l-3.92 4.94-4.18-5.27zm.83-17.31h-4.63V28.92h4.58zM31.92 20.49c3.2-5.93 4.86-9.1 7.75-14.69 2.38 4.61 4.42 8.54 7.76 14.69zm15.72 0c0-.16-4.69-9.43-7.51-14.9 22.21 3.31 77.63 11.49 101.23 14.62l.36.05c-99.91.04-93.11.23-94.08.23zm1.62.18s2.88-.07 7.73-.06l-7.73 6.05zm.42 6 7.68-6 7.15 6.1c-8.11.02-13.51-.07-14.83-.06zm15.25 0-7.2-6.07h13.38zm3.36-.85v.93h-3l6.23-6 6.13 5.06zm5 43.74a4.69 4.69 0 0 1-.45-2.45 3.21 3.21 0 0 1 2.05-3A.12.12 0 0 0 75 64v-1.22h.72v1.89a3.7 3.7 0 0 0-2.1 2.89 2 2 0 0 0 .85 2l-.58.67a2.23 2.23 0 0 1-.56-.66zm-2.76 5.24c1-1.2 2.26-2.84 3.21-4a2.12 2.12 0 0 0 3.09-.7c2.44 3.76 3.72 5.63 4.91 7.38H68.4zm-4.43 4.67-1.58 1.92a1.51 1.51 0 0 1 1.58-1.92zm-7.22 0a1.52 1.52 0 0 1 0 3 1.52 1.52 0 0 1 0-3.02zm77.91 91.05h-83V83.69h8.88c-1.66 2-3.62 4.5-5.23 6.55h-.06a.23.23 0 0 0-.23.24c.1 26-.26 25.15.23 25.15h20.2c14.24 0 13.69.08 13.69-.25-.2-41.3-.06-11.11-.12-24.9a.14.14 0 0 0 0-.06l-1.37-2.1c-.57-.87-1.28-2-2.09-3.15l-1-1.47h41.65a8.23 8.23 0 0 0 .95 1.68 6.32 6.32 0 0 0-2.15 3s.3 2.14 1 4.83c-12.31-.15-23.37-.14-28.22-.14a.25.25 0 0 0-.25.25v3.49a.25.25 0 0 0 .25.25c28.08-.06 23.5-.06 29.19-.13a22.16 22.16 0 0 0 1.9 4.29c-33.35-.3-31.43-.23-31.43.1v3.5a.25.25 0 0 0 .25.25c11.55 0 15.54 0 33.59-.15.17.19.36.37.55.55v3.46c-17.59-.15-21-.13-34.15-.15-.46 0-.16.59-.25 3.75a.25.25 0 0 0 .25.25c10.27 0 16.81 0 34.21-.15.06 2.68.21 6.61.56 9.27a.2.2 0 0 0 .21.17l5.57-.44c0 .64.09 2.23.21 4.5h-19.94a.24.24 0 0 0-.24.24v36.89a.26.26 0 0 0 .26.26h23c.29 2.39.6 4.74.94 7zm-8.66-77.07c.26 1 .57 2.18 1 3.3-12.24-.15-21.84-.15-29-.15v-3c15 0 19.76-.08 28-.15zm27.67 77.08c.29-2.28.6-4.64.92-7h11.76c.81 2.4 1.63 4.78 2.44 7zm36.24 0h-11.29c-.21-2.2-.43-4.57-.66-7.07h6.6a.2.2 0 0 0 .2-.21l-.1-36.89a.1.1 0 0 0-.1-.1h-9.22c-.05-1.69-.08-3.25-.08-4.64a5.68 5.68 0 0 0 2-2.94 6.14 6.14 0 0 0-.24-4.16c8.35-5.27 11.86-11.12 5.81-28a22.74 22.74 0 0 0-5.38-8.71h.6a21.77 21.77 0 0 1 4.16 6h7.81c0 12-.06 39.5-.09 60.41-.01 13.67-.06 24.6-.06 26.3z" fill-rule="evenodd"></path><path d="M59.78 96.36a.1.1 0 1 0 .2 0c.12-1.73.14-1.55.17-3.76 4.62 0 6.18-.3 2-.47-2.09-.08-2.53-.14-2.53.21.09 2.02-.07.12.16 4.02zm65.73 38.72a.11.11 0 0 0 .1.1.11.11 0 0 0 .11-.1c0-.61.15-2.58.18-5.7 4.58.07 6 0 8.69-.08a.11.11 0 0 0 .1-.1.09.09 0 0 0-.1-.1c-3.13-.1-.05-.14-8.94-.22a.24.24 0 0 0-.25.25c0 .1.12 6.34.11 5.95zm-65.36-22.29c0-2.09 0-1.93-.17-3.76a.1.1 0 1 0-.2 0s0 .42-.06 1c-.23 3.92-.7 3.44 3.15 3.19 3.59-.22.9-.48-2.72-.43zM125.47 160a.29.29 0 0 0 .18.07c9.56-.09 5.71-.14 8.94-.22a.09.09 0 0 0 .1-.1.11.11 0 0 0-.1-.1c-1.87 0-2.05-.16-8.69-.08 0-3.16-.17-5.12-.18-5.7a.11.11 0 0 0-.11-.1.11.11 0 0 0-.1.1c0 .1-.12 6.35-.11 5.95a.29.29 0 0 0 .07.18zM89.36 92.61c.08 8.86 1-.52.25-.51-6.73.09-5.61.57-.25.51zm0 20.18c-10.06-.12 0 .84.43.43s-.35-9.32-.43-.43z" fill-rule="evenodd"></path><path d="M74.23 102.44c-14.82 9.54-19.49 12.87.46.31 15.55 10.36 19.32 12.21.46-.3 18.5-11.89 15.28-10.43-.46-.31-15.09-10.01-18.46-11.67-.46.3zm29.25 18.14c-14.64 0-2.65-.09-46.12-.15a.26.26 0 0 0-.25.25c.1 3.15-.21 3.75.25 3.75 24.66 0 17.41 0 46.12-.13a.12.12 0 0 0 .12-.12v-3.5a.1.1 0 0 0-.12-.1zm-.12 3.48c-18.42-.13-29.15-.13-45.74-.13v-3c16.06 0 27.69 0 45.76-.15zm.12 3.86c-26.57-.13-11.86-.11-46.12-.15a.26.26 0 0 0-.25.26v3.49a.25.25 0 0 0 .25.25c33.15 0 12.72 0 46.12-.13a.12.12 0 0 0 .12-.12v-3.49a.1.1 0 0 0-.12-.11zm-.12 3.48c-17.83-.12-28.27-.13-45.74-.13v-3c16 0 27.18 0 45.76-.15zm.12 3.87c-11.45-.06-9.64-.12-46.12-.15a.25.25 0 0 0-.25.25v3.49a.26.26 0 0 0 .25.26c33.33 0 12.81 0 46.12-.13a.12.12 0 0 0 .12-.13v-3.49a.09.09 0 0 0-.12-.1zm-.12 3.47c-17.75-.12-28.38-.13-45.74-.13v-3c16 0 27.18 0 45.76-.15z" fill-rule="evenodd"></path><rect x="68.29" y="146.84" width="22.14" height="8.72" rx="4.18"></rect><path d="M148.12 60.68c-.08-.43 0-1-.43-1a.32.32 0 0 0-.27.37c0 .23.05.47.09.7a.31.31 0 1 0 .61-.07zm-.93-2.75-.21.12a.1.1 0 1 0 .07.19 6 6 0 0 1 1.4.42c.1.09.24 0 .14-.14a1.12 1.12 0 0 0-1.4-.59zm.93 7.13a1.07 1.07 0 0 1-.44.28 3.48 3.48 0 0 1-.41.1c-.27 0-.3 0-.32.07s.19.12.32.14a1.27 1.27 0 0 0 .55 0 1.18 1.18 0 0 0 .53-.35c.27-.34.26-.79.18-.81a3.13 3.13 0 0 1-.41.57z" fill-rule="evenodd"></path></g></svg>