<svg xmlns="http://www.w3.org/2000/svg" viewBox="0 0 200 200" height="400" width="400"><g fill="#000000"><path d="M195 25.24c-.26-1.84-5.22-4-7.23-2.37a4.14 4.14 0 0 0-.81 1.29 41.94 41.94 0 0 0-8.1-1.64 15.66 15.66 0 0 0-10 3.61 8.61 8.61 0 0 0 .13-1.42c-.16-1.3-3.37-2.75-4.7-1.57a5.18 5.18 0 0 0-.81 1.5c-6.5-2.87-28.43-4.31-35.55-4.27a28.51 28.51 0 0 0 .67-4.24c-.11-1.22-2.87-2.5-4-1.38a9.75 9.75 0 0 0-1.21 2.72 1 1 0 0 0-.43-.93c-.83-.75-2.71-1.35-3.6-.68a37.27 37.27 0 0 0-7.36-3.43c-1-.25-1.63-.25-2.16.44a4.81 4.81 0 0 0-.79 3.38c.17.84.67 1.09 1.52 1.28.59.12 1.63.24 1.85.66a5.33 5.33 0 0 1-.54 2.67c-.65.1-2.83-1-3.79-.24s-1.36 3.49-1.23 4.51c.23 1.78 4.2.09 3.59 2.66a6.4 6.4 0 0 1-.28 1c-.32.85-3.34-.64-4.25.24-.74.71-1.58 3.43-.7 3.95a.71.71 0 0 0-.41.42c-.39 1.23 1.32 2.74 2.32 3.56.3.24.72.43 1 .66 0 .32-.07.9-.1 1.21a1.25 1.25 0 0 0-.7.71 51.1 51.1 0 0 0-1.43 11.72 38.15 38.15 0 0 0 1.4 11.72c1 3.28 11.33 9.44 14.29 11-.53 3.45-8.81 21.19-6.8 24.18a103.36 103.36 0 0 0-3.51 4.08c-5.4 6.64-6.2 9.45-6.85 13.18-9 .2-19.14.58-28.11 1.16A10.64 10.64 0 0 0 72 110a5.75 5.75 0 0 0 .94-.16c.95-.36 1.46-2.88.33-3.6a6.93 6.93 0 0 0-2.15-.37 140.42 140.42 0 0 0-3-17.29 23.86 23.86 0 0 0 3.21-.35c.89-.31 1.37-2.51.3-3.11a8.11 8.11 0 0 0-2-.32c.66-.19 1.15-2.39.3-3.07A25.65 25.65 0 0 0 71.11 76c0-1-.27-1.29-.75-1.48a3.87 3.87 0 0 0-2.64.09 1.15 1.15 0 0 0-.72 1.24c0 .54.11 1.24-.15 1.46a4.38 4.38 0 0 1-2 .12 3.61 3.61 0 0 1 0-.66c0-1.76-.08-2.36-2.15-2.3-2.41-6-8.06-10.78-18-11.7l-.31-.2a6.93 6.93 0 0 0 .61-1.49 4.54 4.54 0 0 0 2.65-2.94 22.45 22.45 0 0 0 1-6.79.84.84 0 0 0 .37-.1 5.7 5.7 0 0 0 2.66-2.37 2.05 2.05 0 0 0-.45-2.45 10.56 10.56 0 0 1-.88-1.24c.21 0 1.53-.31 1.74-.37s.44-.43.06-.76a20.55 20.55 0 0 0-3-1.65c-.13-1.65-.62-6.06-2.18-6.64-2.27-.83-4.38 2-6.18 1.8-1.32-.12-6.63-1.11-8 .27-1 1-1.06 4.07-1.06 5.54a.4.4 0 0 0-.2.32v1.62a.39.39 0 0 0 .23.34 29.85 29.85 0 0 0-1.86 2.54c-.12.22-.22.48 0 .6a4.81 4.81 0 0 0 1.36-.12 10.14 10.14 0 0 0 .05 4.07c.64 2 3.95 5.83 5.15 6.84L36.15 63C29.72 64.45 25 70.05 23 75.14c-3.14 5.65-2.82 12-.17 16.13.84 3.2 3.46 10.82 4.47 11.6-.16.39-.33.79-.48 1.21h-.39a6.22 6.22 0 0 0-1-2c-.2-.23-.5-.22-.82 0-.78.52-1.21 1.69-2.24 2.61-1.47 1.33-3.15 1.14-4.31 1.51-1.33.43-2 1.54-3.21 2.32-.22.14-1.47 1.28-2.52 2.17s-4.79 3.31-5.1 4.24a5.68 5.68 0 0 0 .77 5.45c1.86 2.22 5.6 1.1 8.2-.18a18.2 18.2 0 0 1 2.15.11c-1.88 6.34-3.24 6-4.76 10a10.5 10.5 0 0 0 .82 9.75c-.6.15-1.62.43-1.89 1a8.06 8.06 0 0 0-.74 2.84c-.83.19-2.35.56-2.75 1.32-1.19 2.3-1.4 6.37-.36 8.51a7.22 7.22 0 0 0-2.53.52c-2.07 1.71-1.33 5.07 1.52 5.16s12.33.22 19.46.19c.49 3.31 1.2 7.59 1.85 10.87-1 2.24-5.32 12.17-5 14.59 1.12 7.54 137.77-2.8 145.62-5.1.46-.13.66-.26.64-.75-.1-3.19-10-23.21-11.39-26.08a28.87 28.87 0 0 0 4-.25.31.31 0 0 0 .24-.16 41.42 41.42 0 0 0 2.86-5.32c.13-.74-1.91-2.4-2.54-2.82a3.58 3.58 0 0 0 .49-1c.32-1.15-3.59-6.53-4.31-7.5A78.26 78.26 0 0 0 145 120.74a88 88 0 0 0 5.21-15.47 3.6 3.6 0 0 0 1.86-1c.32-.38.42-2.89.47-3.83.44-8.67.33-20.66.54-20.57 2.29 1 5.94 2.87 8.57 2.43 4.9-.79 13.35-19.55 13.35-20.7a5.16 5.16 0 0 0 .78 0c1-.07 2.93-.25 3.66-1 2.36 2.59 7.37 2.83 8.19-.38S195.36 28 195 25.24zM15.83 127.13a19.31 19.31 0 0 0 2.76-6.82c3.38.07 5.48-1.34 5.81-4.81a.11.11 0 1 0-.21 0c-.71 6.36-7.3 4-8.11 4.4-2.37 1.13-6 2.25-7.68.21a5.2 5.2 0 0 1-.68-5 7.81 7.81 0 0 1 1.37-1.32c1.77-1.43 2.35-1.65 3.61-2.7 1-.86 2.25-2 2.48-2.13 1.11-.72 1.92-1.87 3.07-2.24s2.91-.19 4.51-1.63c1.09-1 1.71-2.43 2.31-2.63a7.23 7.23 0 0 1 1.14 2.86l.08.39c-2.79 9.37-2.25 23.84-1.48 33.61a49 49 0 0 0-10.07.65c-2.45-4.2-1.57-8.77 1.09-12.84zM13 141.24c.18-.36 1.27-.64 1.66-.74a52 52 0 0 1 10.15-.79c.09 1.12.19 2.23.29 3.34a68.06 68.06 0 0 0-12.76.69 7.46 7.46 0 0 1 .66-2.5zm-3.28 4.28c.22-.43 1.63-.79 2.11-.9 3.51-.82 9.72-1 13.33-1 .33 3.46.72 6.81 1.13 9.94-3.1-.11-6.28-.17-9.37-.16-8 0-7.28.41-7.47.06-.87-1.63-.92-5.56.3-7.94zm-2 13.3c-2.33-.07-2.9-2.8-1.2-4.21 1.15-1 18.15-.68 19.85-.64.24 1.79.48 3.5.72 5.12-5.32-.04-17.09-.2-19.37-.27zM164.5 23.34a2.36 2.36 0 0 1 2.35-.09c.65.25 1.71.89 1.77 1.5.13 1.4-5 22.75-5.31 23.8-.47 1.81-3.39 1.52-4.5-.13-.81-1.24 4.19-23.75 5.69-25.08zm7.23 36.19a1.8 1.8 0 0 0-.86-.15c-4.32 1.44-7.69 4.89-10.47 8.54-.9-.32-6.86-3-10.18-4.51a.3.3 0 0 0-.17-.24c-8.06-3.61-7.34-3.18-10.45-4.3 0-.61-.1-2.35-.14-3.79a4.33 4.33 0 0 0 4-1.32 1.74 1.74 0 0 0 .29-1.55 1.71 1.71 0 0 0 1-.35 3.35 3.35 0 0 0 1.33-1.86c.34-1.07.54-1.59-.3-2.51.58-.46.71-2.93-.34-3.45-.15-.07-.41-.14-.65-.25a4.36 4.36 0 0 0 0-.53s9.54 3.39 13.33 3.74a3.56 3.56 0 0 0 .15 1.76c1.4 2.09 5.06 2.37 5.7-.1a14.32 14.32 0 0 0 2.51 5.34c1.52 1.88 2.79 2.21 4.86 3.13-.46.5.03 1.87.39 2.4zm-32.45 5.59a34.56 34.56 0 0 1-3.11-2.68c6.78-2.71 3.35-2.64 7.39-1.45a43.86 43.86 0 0 1-4.28 4.13zm3.49-2.34a45 45 0 0 1-5.62 8.5c-.17-1.56-.29-2.91-.49-4.57a21.29 21.29 0 0 0 1.21-2.07 6.9 6.9 0 0 0 1.24 1 .38.38 0 0 0 .33 0 19.53 19.53 0 0 0 3.33-2.86zm-12.32 1.13c-.44-.87-2.23-5.51-2.66-6.62 1.93.32.29 0 3.71.63a26.77 26.77 0 0 0 1.75 2.38c1.61 2 1.79 1.81 1.64 1.88a39.33 39.33 0 0 1-4.44 1.73zm3.46 2.67c-.57 1.87-.52 1.73-1 3.43-.71-1.52-1.48-3.46-2.26-5.45.65-.18 1.9-.68 2.52-.94.21 2 .53 2.77.74 2.96zm-20.69-30.89c-.58-1.37-2.78.33-3.63-.12a11.28 11.28 0 0 1-2-1.79 44 44 0 0 0 7.06.8 1.09 1.09 0 0 0 .18.55 3.55 3.55 0 0 0 4 1.08 5.21 5.21 0 0 0 0 2.23c1.21 2 4.4 2.1 5-.15l.7-2.86c2.17 1 4.82 2.07 7 3-.8.48-.38.36-.73.29-1.28-.25-2.3.66-3.2 1.67a2.86 2.86 0 0 0-.83 1.53 2.9 2.9 0 0 0 1.24 2.81 2.55 2.55 0 0 0 1.38 4 7.47 7.47 0 0 1-1 3.28c-.26.46.06.93.86.89a5.62 5.62 0 0 0 2 3.37 3.07 3.07 0 0 0 1.93.33 3.62 3.62 0 0 0 .4-.13c0 .35 0 .94.06 1.33-1.27-.2-16.08-2.69-18.12-3.19-.63-.71-.36-7.12-3.44-15.49a1 1 0 0 0-.68-.48 9.14 9.14 0 0 1 0-1c.79-.26 2.11-1.27 1.82-1.95zm20.43 23.93a11.42 11.42 0 0 1-1.18-1.41c1.74.27 1.68.29 1.83.17a.31.31 0 0 0 .1-.25c-.05-2.16-.09-2.19-.29-2.28s-.72.09-.93.14a2.57 2.57 0 0 1-1.48-.23 5.2 5.2 0 0 1-1.84-3c-.06-.21-.12-.38-.32-.41s-.75.08-.62-.17a7.75 7.75 0 0 0 1-3.42 3.1 3.1 0 0 0 2.52-.64c.64.76 2.93.76 3.81-.51a4.09 4.09 0 0 0 1 1.24 1.27 1.27 0 0 0 .82.23c0 .19.18 1.64 1.49 1 .92-.18 1.05.07 1 .67 0 .4-1.23 1.6-1.58 1.92-.16.15-.12.48-.12.85 0 1.56.18 5.54.18 5.54 0 .31.24.28 1.3.7a41.88 41.88 0 0 1-4.63 2.06s-.55-.5-2.06-2.2zm29.63-34.38a122.23 122.23 0 0 0-5.11 21.13c-3-.27-10.74-2.87-13.63-3.86a3 3 0 0 0-2.09-1.95 2 2 0 0 0-1.37.1 3.25 3.25 0 0 0-2.52-2.16 2 2 0 0 0-2 .59 3.7 3.7 0 0 0-4.25-1.09c-2.29-.89-5.34-2.1-7.59-3.1 1-4.38 2.31-9.84 3.19-14.26 6.79.08 29.24 1.83 35.37 4.6zm-38.41-10.38c1.08-.79 3.31.45 3.37 1.3.08 1.28-4.88 21.55-5 22-.42 1.62-2.85 1.46-3.76 0a10.72 10.72 0 0 1 .16-2.7c.99-2.46 3.71-19.46 5.23-20.6zm-5.39 1.23a2.16 2.16 0 0 1 2 0c.47.18 1.46.7 1.53 1.16.14 1-3.73 17.13-3.89 17.75-.33 1.28-2.79 1-3.73-.27-.79-.97 2.96-17.73 4.09-18.64zm-13.14 13.35c.57-.53 3.29.8 4.24-.1a6 6 0 0 0 .66-2.67c-.15-1-3.24-1.12-3.73-1.64a8.14 8.14 0 0 1 .32-2.5c.45-1.63.83-1.59 1.52-1.51s2.15.62 2.73.47.67-.95.78-1.41a4.55 4.55 0 0 0 .12-2.19c-.38-.71-1.44-.79-2.28-1s-1-.27-1.1-1a4.43 4.43 0 0 1 .67-2.71c.24-.31.42-.48 1.28-.34 2 .34 5.79 2.28 7.58 3.23-1.44 2.11-4.58 14.71-4.5 18.15-2.1-.16-7.44-.65-9.18-1.82a4.31 4.31 0 0 1 .89-2.96zm1.14 7.05c-.89-.79-3-2.93-1.77-3s2.28 2 3.57 2.66c.78.39 1.84-.15 2.56-.31.4-.09.71-.21.85.07a2.74 2.74 0 0 1-1.31 1.22c-.23 0-.26.25-.27.48s0 .54 0 .9a6.46 6.46 0 0 0-2.66.1c.14-.88.19-1.18.07-1.32a10.48 10.48 0 0 0-1.04-.8zm.42 26.26a37.82 37.82 0 0 1-1.39-11.52 51.07 51.07 0 0 1 1.35-11.57c.27-.88 3.7-.82 3.86-.39 3.14 8.4 2.79 14.48 3.54 15.53.17.24-.15.18 5.91 1.23.43 5 2.27 12.8.68 17.28-2.85-1.45-12.98-7.55-13.95-10.56zm-1.9 86.34a31.47 31.47 0 0 0 4.09 1.33 9.74 9.74 0 0 1-.44 3c-1 .39-4.79-.18-6-.4-.1-.73-.2-1.44-.31-2.14 2.79-.42 2.16-.38 2.66-1.79zm-19.55 17.54c.66-6.07 2.93-18.93 4.44-23.67 2.94-.07 7.4-.21 10.32-.51.71 3 2.85 16.34 3.56 23.47-3.84-.85-14.33-.73-18.32.71zm19 .24c1.08 1.62 1 5 .43 6.74a179.07 179.07 0 0 0-20.92.17c-.39-1.42-.76-4.75.16-5.89 1.99-2.41 19.65-2.14 20.38-1.02zm-2.71-27.72c.68.54.25 2.5-.18 2.68-.65.27-13 .49-13.19.49-.85 0-1.09-1.74-.43-2.63 1.54-.75 13.06-1.17 13.85-.54zm-12.64-2.82c.38-.84 10.34-1.56 11-.64.44.57.29 2.14.14 2.88a55.38 55.38 0 0 0-11.48.21 5 5 0 0 1 .39-2.45zm14.47 11.8c.08.41.14.47 1.09.85-.52 1.33.13 1.16-2.44 1.43-.32-2.13-.92-5.93-1.41-8 .76-.09 1-.09 1.32-.63.38-.78.44-2.29-.23-2.81a3.22 3.22 0 0 0-1.21-.32c.12-.8.16-2.64-.39-3.15a9.45 9.45 0 0 0 2.22-2.53c.15 3.85.61 12.57 1.1 15.16zm-17-25.86c2.76-3.49 7.93-3.51 7.93-3.51 6.11.38 9 5.07 8.49 11a8.16 8.16 0 0 1-3.36 5.39c-2-.54-8.08-.49-10.3.33a8.32 8.32 0 0 1-4.11-4.75c-.56-2.94-.48-6.09 1.4-8.46zm-3.49-5.74c-1.1 3.24-3 8.93-5.29 15.81l-19.11.83c.15-1.44.27-2.8.38-4.1 1.57-.07 15.5-.62 17-1.21 1.32-.53 2.07-4.4.47-5.49a3.17 3.17 0 0 0-1.08-.32 30.51 30.51 0 0 0-.09-5.06c2.5-.17 5.1-.32 7.77-.46zm-6.71 6c1.44 1 .59 4.55-.47 5-1.23.47-14.81.88-16.8 1 .18-2.25.28-4.29.34-6.16 1.8-.16 15.56-.78 16.98.2zm-1.59-6.3a28.17 28.17 0 0 1 .42 5.77c-3.63-.54-11.8-.4-15.69-.24a71.94 71.94 0 0 0-.51-11.08c3.15-.11 7.86-.31 11-.6a10.53 10.53 0 0 1 4.83 6.19zm-2.73-9.84c.92.58.4 2.8-.32 3s-10.31.53-12.83.61c-.19-1.34-.42-2.54-.67-3.63 1.66-.02 12.77-.63 13.87.06zm-2.56-.61a104.65 104.65 0 0 0-11.39.08c-.43-1.82-.91-3.36-1.35-4.89.28-.05.11.69 1.64-11.12a6 6 0 0 0 1.68-1c2.26-.09 4.41-.19 6.68-.34a146 146 0 0 1 2.79 17.31zm.93-20.51c.82.5.37 2.35-.29 2.57s-8.43.4-9.4.43a7.75 7.75 0 0 0 1.75-3c1.31-.08 2.78-.17 4.09-.3 4.76.09 3.81.49 3.9.34zM70 83.21c0 .35-.26 1.11-.57 1.23a17.45 17.45 0 0 1-2.62.23h-3.09a12 12 0 0 0 .35-3c6.16-.2 5.51.32 5.6.21a1.44 1.44 0 0 1 .33 1.33zm-5.77-6.14c0 .49.06.82.48.94a5.17 5.17 0 0 0 2.14-.09c1.26-.34.48-2 .8-2.59s2.49-.63 2.82-.14c.58.87-.6 5.37-.88 6.38a29.39 29.39 0 0 0-5.52-.37 20.22 20.22 0 0 0-1.16-6.13c1.57 0 1.32.3 1.34 2zm-15-12.92c7.9 2 12.58 7.07 14 13.82.75 3.65.4 6.19-.35 8a6.65 6.65 0 0 1-3.28 3.51c-2.81 1.28-10.19 2.22-16.26 1A20.73 20.73 0 0 0 44.4 84a32.44 32.44 0 0 1 5.21-2.3c3.38-1.1 4-.41 4-.8a.15.15 0 0 0-.14-.16 6.89 6.89 0 0 0-1.12 0 23.18 23.18 0 0 0-1.21-6.21.15.15 0 0 0-.3.06A19.92 19.92 0 0 0 52 80.71a23.21 23.21 0 0 0-7.58 2.44 107.48 107.48 0 0 0 .38-11c0-.38 0-.8-.32-.91a.5.5 0 0 0-.15 0L44 66.16c.37-.31 5.41-1.07 5.25-2.01zm-3.57-.39c.71.11 1.85.31 2.54.49a17.86 17.86 0 0 1-3.13 1c.52-.54.86-.98.61-1.49zm-.66.34a3 3 0 0 1-.49.58c-1 1-1.36.94-1.34 1.32l.4 5.09c-1.25-.17-3.48-.38-5-.46 1.27-3.07 2-4.66 2.39-5.49.52-1.06.55-.69.39-1.69a4.89 4.89 0 0 1-.13-1.67c.29-.23.84 1.64 1.54.93a12 12 0 0 0 .82-1.05 8.49 8.49 0 0 1 .71-1 5.11 5.11 0 0 1-.78 1.81.38.38 0 0 0 .14.53A3.58 3.58 0 0 1 45 64.1zM33.14 38.21c1.13-1.09 6.32-.09 7.55 0 2.07.22 4.15-2.48 6-1.79.87.32 1.37 3.38 1.49 4.31a107.86 107.86 0 0 1-16.09 2.56c.04-1.29.17-4.23 1.05-5.08zm-2.89 10.18c1-1.74 1.79-2.5 1.79-2.67a51.86 51.86 0 0 0 8.4-1.08 80.85 80.85 0 0 0 8-1.89c.09.33 1 .55 2.73 1.52-1.25.25-19.55 3.94-20.92 4.12zm4.11 15.73c2-.8 2.25-.55 2.27-.89a33.15 33.15 0 0 0 .25-3.77c-.45-1.14-.3-1-1-3-.09-.79-1.75-.53-2.07-2a.85.85 0 0 1 1.11-1.08c.53.41.61 1 1.19 1.32 1.08.68 1.71-.79 2-2 .44-1.85-.69-3.22 1.69-4.06a11.09 11.09 0 0 0 5.77 1.45 16.54 16.54 0 0 0 2.53 1.23 21.84 21.84 0 0 1-1 6.7A3.87 3.87 0 0 1 45 60.4a.59.59 0 0 0-1-.17 19.86 19.86 0 0 0-1.52 2c-.29-.23-.82-1.46-1.5-.83-.4.37 0 1.75.22 2.71a15.46 15.46 0 0 0-.93 1.63 31.63 31.63 0 0 1-7.32-1c.5-.23.98-.45 1.41-.62zm-10.7 27.26a14.22 14.22 0 0 1-2.39-9.14c.41-6.25 6.16-14.51 11-17.1a29.61 29.61 0 0 0 7.67 1.24 89.92 89.92 0 0 0-2 4.22c-.32 0-.74 0-.87.17a46.65 46.65 0 0 0-6.94 15.32.14.14 0 0 0 .27.08 46.92 46.92 0 0 1 7.08-15 61.88 61.88 0 0 1 6.68.64 96.07 96.07 0 0 1-1 16.18c-.68 3-2.31 5.93-5.31 6.8-5.21 1.51-10.92.93-14.19-3.41zm4 11-.11.07c-.88-.79-3.3-8.15-3.8-9.88 2.8 3.12 7.74 4.81 14.23 2.94a7.72 7.72 0 0 0 4.78-4.33 32.12 32.12 0 0 0 16.25-1.08l-1.27 10.71c-5.08.83-22.18 1.87-30.04 1.52zm23.1 71.58c-1-.51-2-1.14-2.51-1.4v-.85c.87 0 2.07-.07 2.94-.14.06.48 0 .24 1 1a7.67 7.67 0 0 0-1.39 1.34zm2.61-.34.22.2a3.9 3.9 0 0 0-1.25.95l-.31-.14a7.18 7.18 0 0 1 1.38-1.06zm-6.87-60.08a.13.13 0 0 1 .25 0c-.12 7.46-.67 19.3-2.54 26.51-.2.78-.22.93-.37.89s.08-.74.35-2.41c-.06-.04.81-1.96 2.35-25.04zm-13.67 62.27c-.94-.61-1.86-1.29-2.38-1.61v-.95a18.78 18.78 0 0 0 2.95.29c0 .39-.06.18.88 1a8.34 8.34 0 0 0-1.45 1.27zm2.63-.11.2.22a3.56 3.56 0 0 0-1.32.84l-.3-.17a7.19 7.19 0 0 1 1.42-.89zM61 186.88c-3.81.1-33.62 1-36.27-1.73a.71.71 0 0 1-.09-.41c-.07-2.43 3.62-11 4.58-13.26.32 1.45.26 1.51.93 1.69-.08.76-.09.73-.11 1a.38.38 0 0 0-.18.32 1.86 1.86 0 0 0 .72 1.59 18.53 18.53 0 0 0 4.23 2.39c.26.09 1.75.58 2.3.24 1.19-.73-.3-2.49-1.31-3.45a.38.38 0 0 0-.11-.23c-.7-.66-.7-.7-.91-.67-1.08-.87-1-.67-1-.82.52 0 1.82 0 2.09-.43.51-.83 2.44-8.8 2.74-10 2.19 0 4.61-.05 7.23-.1.71 8.5.68 8.36.92 8.48a3.29 3.29 0 0 0 1.12.18v.88a.4.4 0 0 0-.15.34c.11 1.23.82 1.53 1.92 2.12a11.22 11.22 0 0 0 4.88 1.63 1.15 1.15 0 0 0 .8-.19c1.12-.84-.51-2.44-1.62-3.33 0-.18-.1-.21-.79-.73a.36.36 0 0 0-.3-.07c-1.18-.8-1-.56-1.08-.81l.82-.08a.3.3 0 0 0 .25-.22s1-3.82 2-8.38c4.45-.1 9.26-.23 14.29-.39-3.09 9.56-5.97 18.42-7.9 24.44zm-25.24-9.46c.27-.14.51-.25.78-.4a2.18 2.18 0 0 1 .18.31 1.83 1.83 0 0 1-.95.09zm18.1-2.17.74-.47.21.29a1.84 1.84 0 0 1-.94.18zm25.34-42.36 7.19-.32a9.83 9.83 0 0 0 3.33 3.28.69.69 0 0 0-.15.21 5.69 5.69 0 0 0-.37 2.86 1.46 1.46 0 0 0-.72.37c-1 1.28-.56 3.69.94 3.69h.79a145.27 145.27 0 0 0-3.5 18.25c-5.79.2-11.49.39-16.93.55 3-9.22 6.43-19.78 9.42-28.89zm28.84 44c-1.3.3-23.94.47-24 .47-1.79 0-2.3-1.65-1-2.57.72-.55 12.09-.8 12.61-.82 13.72-.31 12.72.36 12.78.23 1.12.52.57 2.45-.43 2.67zm-3.4-16c-.26-2.35-.57-4.8-.89-7.12 1.26.24 5 .8 6.16.29.46-.21.58-1.28.64-1.82.21-2-.11-1.65.21-1.7a.43.43 0 0 0 .35-.23 60.89 60.89 0 0 0 4.11-12.16c1.82 7.27 3.66 14.72 5.44 22-5.2.22-10.59.46-16.02.68zm22.6-52.05a.14.14 0 0 1 .27 0c0 .1.38 4 .29 6.4 0 .16.24.1-2 .06.53-.47 1-.9 1.38-1.26a24.29 24.29 0 0 1 .06-5.26zm.54 6.81c-.22 4.27 2.22 11.82 4.89 14.67l-15.91.57c.91-5 1.43-9 1.67-9.84 1.94-.89 5.42-4 7-5.44zM163.22 145a9.62 9.62 0 0 1 2.2 2.3 52.57 52.57 0 0 1-2.71 4.92c-3.2.41-4.55.24-4.6.14-.44-1.13 2.74-1.76 2.75-2 .07-1.74 0-1.69-.53-2.29a17.63 17.63 0 0 0 2.89-3.07zm-3.62 3.59c.13-.08.3-.18.48-.31.46.56.44.44.34 1.85a4.93 4.93 0 0 0-2.45 1.06c-.88-1.77-1.72-3.43-2.4-4.77 3.89 2.27 3.85 2.23 4.03 2.14zm1.06 9.06c.83 1.72 9.52 19.79 9.12 21.7-1.79 1.16-40.84 4-43 4.15-1.46-6.52-3.45-14.8-5.57-23.38zm-9-54.11c-.54 3.53-25.51.79-34-4-2.81-1.57-2.7-2.54-2.5-3.83.09-.54.23-1.19.42-1.91 6 3.62 27.95 8.25 36.27 7.77-.11.84-.17 1.51-.24 1.94zm.35-5.33c-6.42 1-29.83-4.34-35.41-7.82 2.41-7.48 6-16 5.66-16.78 1.66-4.58-.27-12.41-.76-17.5 1.69.29 3.63.63 5.68 1 1 2.9 5.41 14 6.78 15.59.94 1.18 2.08.49 3.2-.54 3-2.88 7.11-10.88 7.12-10.89 1.42.61 3.88 1.72 5.31 2.37a29.71 29.71 0 0 0-1.6 10.78c.17 3.79 1.31 9.21 4.31 11.53-.11 3.8-.2 8.54-.3 12.23zm9.58-16.45c-2.41.4-6.06-1.41-8.13-2.36-.37-.17-.7-.36-.92-.18s-.12-.25-.22 5.91c-3.84-3.41-4.87-13-2.12-21.37 10.79 4.91 10.32 4.74 10.48 4.52 2.75-3.57 6.11-7 10.38-8.42a9.14 9.14 0 0 1 3.51 1.77c-.48 2.37-8.9 19.43-13.03 20.1zM179 60.11c-.56.77-3 1-4.36 1-.33-.29-2.45-1.48-2.45-1.53s-.74-1.27-.48-2c.65-.34 1.42 2 2.69 2.19s3.56-.74 4.44-.11a1.92 1.92 0 0 0 .16.45zM173.33 58a25.61 25.61 0 0 0 2.74 1c-1.66.27-1.78.21-2.74-1zm5.47.85a4.39 4.39 0 0 0-1.84 0 48.92 48.92 0 0 1-7.27-3c-3.14-1.38-4.71-5.14-5.39-8.53 1.26-5.17 3.51-14.85 4.42-20.17A15.34 15.34 0 0 1 178.85 23a41.78 41.78 0 0 1 8 1.43C184 30.69 178.62 53 178.8 58.86zm8.2 1.22c-.72 2.78-5.52 2.28-7.38-.29-1.46-2 6-34.81 8.31-36.72 1.84-1.52 6.47.71 6.65 2.22.28 2.26-7.11 32.99-7.58 34.8z" fill-rule="evenodd"></path><path d="M158.11 152.33zM131.35 49.74a.33.33 0 1 0-.66 0v.48a.33.33 0 0 0 .66 0c.01-.08 0-.37 0-.48zm.37 3.93c-.3.08.07.26.27.4.45.29.69 1.06.8.68a.71.71 0 0 0 .14-.51c-.05-.5-.77-.95-1.21-.57zm-89 5.33a.13.13 0 1 0 .11.23c.69-.12 1.81-.31 2.26.19.07.14.29 0 .22-.12-.21-.86-1.43-1.23-2.59-.3zm1.85-2a1.69 1.69 0 0 0 .7.11c1.08 0 1.14-.68.7-2.61-.17-.76-.36-1.17-.44-1.49a.13.13 0 0 0-.25 0c0 1.25.4 2.86.31 3.47a1.5 1.5 0 0 1-.38.18c-.56.16-.69 0-.73.16a.13.13 0 0 0 .09.18z" fill-rule="evenodd"></path><path d="M42.77 54.12a.37.37 0 0 1-.29-.45l.13-.56a.37.37 0 0 1 .73.16l-.13.57a.37.37 0 0 1-.44.28zm4.23-.2.12-.57a.3.3 0 0 1 .59.13l-.12.57a.3.3 0 0 1-.59-.13z"></path></g></svg>