<svg width="125" height="160" viewBox="0 0 125 160" fill="none" xmlns="http://www.w3.org/2000/svg">
<path d="M106.66 106.267C106.75 103.809 107.496 84.7626 107.54 78.7666C107.7 78.3506 107.514 77.5286 106.954 77.4726C106.885 77.4749 106.817 77.4906 106.754 77.5186C101.484 75.7201 96.0862 74.3228 90.6058 73.3386C90.5308 73.2427 90.4344 73.1656 90.3243 73.1135C90.2142 73.0614 90.0935 73.0358 89.9718 73.0386C85.6345 73.6417 81.3916 74.795 77.3458 76.4706C76.0433 76.847 74.7955 77.3916 73.6338 78.0906C73.6138 78.0906 73.6018 78.0666 73.5818 78.0646C73.4565 78.0534 73.3303 78.0739 73.2151 78.1244C73.0998 78.1748 72.9991 78.2536 72.9223 78.3533C72.8456 78.453 72.7952 78.5704 72.7759 78.6948C72.7566 78.8191 72.7689 78.9463 72.8118 79.0646C72.6798 80.2306 72.5598 81.4186 72.4378 82.6026C71.8578 82.5026 69.2578 82.0486 68.7738 82.0026C68.6578 81.8647 68.5063 81.7612 68.3356 81.7034C68.165 81.6456 67.9817 81.6356 67.8058 81.6746C67.0338 81.8526 66.2678 82.0506 65.4998 82.2446C66.0658 74.6126 65.6778 69.0446 65.8078 52.4226C80.0798 48.8226 78.8218 50.3206 84.3298 47.9366C84.5128 47.8214 84.6584 47.6556 84.749 47.4593C84.8397 47.2631 84.8715 47.0447 84.8406 46.8307C84.8097 46.6168 84.7174 46.4163 84.5749 46.2537C84.4324 46.0911 84.2459 45.9733 84.0378 45.9146C77.8933 44.3166 71.6677 43.0481 65.3878 42.1146C65.282 42.0491 65.1619 42.0103 65.0377 42.0018C64.9136 41.9933 64.7893 42.0152 64.6755 42.0656C64.5618 42.1161 64.4621 42.1936 64.3851 42.2913C64.3081 42.3891 64.2562 42.5042 64.2338 42.6266C63.2058 52.9366 63.8498 66.6086 63.4918 77.1286C63.4298 78.9486 63.3778 80.8346 63.4038 82.7806C60.4243 83.5127 57.4961 84.4394 54.6378 85.5546C54.9918 75.2026 55.2378 71.9246 55.2558 70.7546C55.2738 69.5846 53.6778 68.9906 52.6058 68.9826C47.5841 67.872 42.5003 67.0639 37.3818 66.5626C36.7034 66.3578 35.9738 66.4053 35.3278 66.6966C31.9887 67.4655 28.7069 68.4645 25.5058 69.6866C24.1646 70.0683 22.8771 70.618 21.6738 71.3226C21.5253 71.4405 21.4164 71.6011 21.3617 71.7827C21.307 71.9643 21.3091 72.1582 21.3678 72.3386C20.3562 82.8992 19.9728 93.5105 20.2198 104.117C12.6198 108.823 6.33581 116.117 8.39581 124.851C8.39581 134.799 8.3178 134.235 8.5718 134.479C10.7078 148.479 34.0098 159.399 61.8718 159.399C90.4158 159.399 113.356 148.561 115.238 134.111V125.285C117.29 117.629 112.962 111.153 106.66 106.267ZM37.5478 68.1666C40.0118 68.8226 41.0318 68.9486 50.5798 70.7786C46.6804 72.2948 42.905 74.1123 39.2878 76.2146C38.6678 75.8786 30.1398 73.2146 25.1118 71.9566C26.7178 71.3906 34.1118 69.6446 37.5478 68.1666ZM68.3118 83.6146L68.3578 83.5946C69.0138 83.7526 67.2258 83.3686 72.2518 84.4386C71.9358 87.6493 71.6558 90.9293 71.4118 94.2786C53.9098 89.7286 57.2518 90.4966 54.5038 89.9286C54.5291 89.0259 54.5565 88.1366 54.5858 87.2606C57.1198 86.6386 61.8498 85.1546 68.3118 83.6146ZM90.0678 74.6546C91.6038 75.2246 90.8018 74.9646 103.738 78.6546C99.0138 80.5106 93.4898 81.4886 90.5738 83.2906C89.7738 82.8406 90.4638 83.0906 82.4958 80.4286C80.4978 79.7821 78.4661 79.2446 76.4098 78.8186C84.8578 75.9466 86.4018 76.0906 90.0678 74.6506V74.6546ZM96.5638 129.055C96.0018 129.383 95.4258 129.673 94.8518 129.971C94.9378 128.911 95.0258 127.853 95.0818 126.789C95.8818 126.445 98.3138 125.427 98.3138 125.427L98.1698 128.215C97.6318 128.493 97.0938 128.751 96.5638 129.059V129.055ZM92.5638 131.177C91.875 131.458 91.2067 131.788 90.5638 132.163C90.6198 130.987 90.6538 129.819 90.6438 128.643C91.3798 128.347 92.1098 128.043 92.8438 127.727C92.6618 131.515 92.8478 131.015 92.5578 131.181L92.5638 131.177ZM91.0938 84.7766C93.4938 84.1606 93.7538 83.8686 95.1798 83.4366C95.0458 85.4366 95.1058 86.2506 95.0258 87.9446C93.7478 88.5206 92.4838 89.1326 91.2258 89.7706C91.2098 88.1026 91.1678 86.4346 91.0878 84.7766H91.0938ZM98.6938 118.389C97.9998 118.687 95.4178 119.771 95.4178 119.771C95.4298 119.531 95.6318 115.559 95.6318 115.559L98.9078 114.243L98.6938 118.389ZM96.3918 100.845C96.4798 99.2073 96.5645 97.5693 96.6458 95.9306L99.9138 94.6606L99.6638 99.5206C97.1158 100.573 97.8318 100.285 96.3918 100.845ZM91.0738 97.9386C92.2657 97.651 93.4281 97.2526 94.5458 96.7486C94.4538 98.3859 94.3651 100.024 94.2798 101.663C93.1278 102.109 92.6798 102.189 91.0158 102.937C91.0238 101.675 91.0638 97.9386 91.0638 97.9386H91.0738ZM95.7338 113.507L95.9658 109.017C96.5478 108.773 97.1438 108.553 97.7158 108.293C98.2178 108.081 98.7378 107.847 99.2438 107.627L98.9918 112.155L95.7338 113.507ZM96.0718 106.975L96.2858 102.869C98.8398 101.931 97.2638 102.531 99.5558 101.623L99.3558 105.541C96.7758 106.691 97.2958 106.455 96.0618 106.975H96.0718ZM96.7538 93.8546C96.7538 93.8546 96.9278 90.2766 96.9678 89.2146C98.6038 88.4766 98.4638 88.5426 100.27 87.7786C100.18 89.3246 100.024 92.5646 100.024 92.5646L96.7538 93.8546ZM91.2258 91.6306C92.4758 91.1806 93.7018 90.6606 94.9118 90.1226C94.9118 90.1226 94.6658 94.5526 94.6578 94.6826C93.4471 95.1093 92.2606 95.602 91.1038 96.1586C91.1658 94.6546 91.2018 93.1426 91.2158 91.6306H91.2258ZM90.7958 110.929C91.8158 110.603 92.8358 110.277 93.8378 109.899L93.5918 114.387C92.6134 114.75 91.6571 115.17 90.7278 115.645C90.7278 115.555 90.7478 112.425 90.7918 110.929H90.7958ZM90.7298 117.389C91.6729 117.126 92.597 116.8 93.4958 116.413C93.4958 116.413 93.2958 120.099 93.2578 120.657C92.5238 120.959 92.0998 121.057 90.6438 121.723C90.6938 120.031 90.7118 118.693 90.7198 117.389H90.7298ZM90.6158 123.453C91.4744 123.222 92.3175 122.937 93.1398 122.599C93.1398 122.701 93.0038 124.799 92.9398 125.741C92.1598 126.121 91.3978 126.541 90.6318 126.941C90.6118 125.957 90.6018 124.459 90.6058 123.453H90.6158ZM95.3238 121.759C95.6678 121.627 98.2658 120.605 98.5798 120.475L98.4338 123.275C95.2738 124.631 96.8338 123.969 95.1878 124.713C95.1918 124.571 95.2938 122.215 95.3138 121.759H95.3238ZM100.378 85.6146C100.378 85.6146 97.5098 86.8666 97.0238 87.0706C97.0803 85.6915 97.0073 84.3101 96.8058 82.9446C96.9338 82.9086 100.278 81.9106 100.698 81.7846C100.511 83.0533 100.404 84.3325 100.378 85.6146ZM90.9778 104.629C92.065 104.39 93.1301 104.06 94.1618 103.643L93.9338 107.871C92.9058 108.301 91.8698 108.759 90.8338 109.217C90.8498 108.643 90.9038 108.255 90.9778 104.635V104.629ZM103.86 116.171C102.878 116.595 101.895 117.014 100.91 117.429C100.976 116.113 101.042 114.745 101.11 113.347L104.01 112.181C103.846 115.599 103.942 114.391 103.86 116.177V116.171ZM104.46 103.171C103.446 103.659 102.476 104.113 101.518 104.557C101.518 104.511 101.626 101.983 101.676 100.757L104.662 99.5166C104.618 100.367 104.482 102.801 104.462 103.167L104.46 103.171ZM101.762 98.6446C101.762 98.5646 101.896 95.3846 101.962 93.8646L105.056 92.6646C104.962 94.2286 104.874 95.7826 104.788 97.3426C103.751 97.7057 102.741 98.1393 101.764 98.6406L101.762 98.6446ZM103.572 121.165C102.872 121.409 103.702 121.149 100.658 122.335C100.706 121.42 100.754 120.491 100.802 119.547C100.868 119.519 102.824 118.705 103.736 118.331C103.618 120.275 103.574 121.161 103.574 121.161L103.572 121.165ZM104.116 110.045L101.208 111.245C101.278 109.781 101.35 108.245 101.42 106.675C102.37 106.251 103.362 105.791 104.352 105.331C104.273 106.901 104.195 108.471 104.118 110.041L104.116 110.045ZM105.174 90.5326L102.04 91.7686C102.07 89.7006 102.142 88.9546 102.2 86.9526C102.854 86.6686 104.864 85.8086 105.538 85.5646C105.422 87.2146 105.28 88.8686 105.176 90.5286L105.174 90.5326ZM102.296 84.7866C102.342 83.6299 102.327 82.4716 102.25 81.3166C103.412 80.9426 105.414 80.2386 105.956 79.9606C105.862 81.0686 105.792 82.1846 105.708 83.2986C105.192 83.4606 105.91 83.2146 102.298 84.7826L102.296 84.7866ZM100.544 124.523L103.466 123.323C103.466 124.065 103.526 124.793 103.588 125.523C102.466 125.876 101.396 126.379 100.408 127.017C100.453 126.194 100.499 125.361 100.546 124.519L100.544 124.523ZM79.9678 81.7226C87.6298 84.1226 88.2958 84.6286 89.5678 84.9466C88.6218 93.9826 88.7098 110.425 88.3338 121.301C88.2098 124.885 88.1498 128.501 88.2918 132.163L84.2178 129.887C83.9158 128.087 83.9618 120.247 83.9558 120.045C83.9467 119.818 83.8701 119.599 83.7357 119.416C83.6014 119.233 83.4154 119.095 83.2018 119.019C81.0929 118.226 79.0273 117.323 77.0138 116.313C76.8595 116.212 76.6812 116.155 76.4974 116.146C76.3136 116.138 76.1308 116.179 75.9678 116.264C75.8049 116.35 75.6677 116.477 75.5703 116.633C75.4729 116.789 75.4189 116.969 75.4138 117.153C75.203 119.776 75.2398 122.414 75.5238 125.031C73.4158 123.853 73.5558 123.923 73.1898 123.745C72.849 123.619 72.5436 123.414 72.2998 123.145C71.8598 119.545 73.8338 85.9246 74.2218 79.8266C76.1258 80.4926 78.0718 81.1186 79.9698 81.7166L79.9678 81.7226ZM77.0798 125.723C77.2298 123.429 77.2598 121.155 77.3918 118.837C78.7918 119.531 80.2398 120.219 81.7018 120.821C81.7018 126.221 81.6598 127.123 81.8158 128.543C76.2858 125.447 77.1398 125.999 77.0818 125.717L77.0798 125.723ZM60.1938 110.523C61.6736 111.359 63.2186 112.075 64.8138 112.663C64.383 114.961 64.2293 117.302 64.3558 119.637C63.2158 119.077 62.3318 118.669 59.6758 117.249C59.8138 115.123 59.9598 112.585 60.1918 110.513L60.1938 110.523ZM66.7738 114.475C66.9958 113.718 67.0997 112.931 67.0818 112.143C67.0638 111.105 66.1158 110.773 65.7158 110.629C63.6299 109.943 61.6316 109.016 59.7618 107.865C59.6063 107.777 59.4316 107.73 59.2533 107.726C59.0749 107.723 58.8986 107.764 58.74 107.846C58.5815 107.928 58.4456 108.047 58.3447 108.194C58.2438 108.341 58.181 108.511 58.1618 108.689C57.8512 111.199 57.7489 113.73 57.8558 116.257C56.4818 115.485 55.5638 114.937 54.1378 114.227C53.8978 110.595 54.4558 91.7306 54.4618 91.5206C59.2778 93.3006 68.0758 95.5886 71.2738 96.3866C70.7158 104.535 70.3578 113.137 70.1898 122.331C67.3898 121.091 68.1718 121.441 66.6058 120.707C66.5443 118.624 66.6011 116.54 66.7758 114.465L66.7738 114.475ZM40.2258 125.815V114.273C42.1734 113.382 44.0721 112.389 45.9138 111.297C45.157 115.201 44.7374 119.163 44.6598 123.139C42.0218 124.825 40.3038 125.765 40.2258 125.815ZM37.8258 125.909C36.5038 125.193 35.1758 124.485 33.8518 123.773C33.8518 123.353 33.8518 122.941 33.8518 122.573C33.7298 112.247 35.9318 113.349 31.3498 111.443C29.7945 110.823 28.2985 110.064 26.8798 109.175C26.7247 109.081 26.548 109.029 26.3669 109.023C26.1857 109.017 26.0061 109.058 25.8454 109.142C25.6847 109.226 25.5482 109.349 25.4492 109.501C25.3501 109.653 25.2918 109.828 25.2798 110.009C24.9384 113.06 24.9666 116.14 25.3638 119.185C24.3638 118.661 23.3638 118.185 22.3458 117.715C22.5435 114.013 22.5402 110.304 22.3358 106.603C22.3358 79.2586 22.9358 83.2026 22.7478 73.1566C22.9618 73.2286 32.8718 76.4266 37.5478 77.8786C37.5398 93.8926 37.6798 110.147 37.8218 125.909H37.8258ZM27.2858 111.909C28.7969 112.729 30.3626 113.445 31.9718 114.051C31.9715 114.223 31.9561 114.395 31.9258 114.565C31.6318 116.865 31.8878 115.365 31.6438 117.709C31.4612 119.302 31.4064 120.907 31.4798 122.509C31.0938 122.309 27.4558 120.325 27.1218 120.143C27.3118 116.971 27.1698 114.803 27.2818 111.901L27.2858 111.909ZM47.6558 110.291L51.7118 107.903C51.6898 109.835 51.5838 116.443 51.7898 118.367C51.1658 118.729 50.2138 119.539 46.8138 121.751C47.2338 112.313 47.2958 115.951 47.6518 110.283L47.6558 110.291ZM51.7658 105.243C51.5998 105.311 42.1478 111.021 40.2258 112.377V77.5386C44.1638 75.9146 45.9278 74.8406 53.0818 72.0946C51.9538 90.1646 52.0358 94.0726 51.7618 105.235L51.7658 105.243ZM20.2578 106.511C20.1273 110.149 20.2389 113.791 20.5918 117.415C20.4822 117.502 20.3989 117.617 20.3511 117.749C20.3033 117.88 20.2929 118.022 20.3211 118.159C20.3493 118.296 20.4149 118.423 20.5108 118.525C20.6066 118.627 20.7288 118.7 20.8638 118.737C22.9467 120.124 25.0988 121.404 27.3118 122.573C39.1318 129.065 38.4658 129.001 39.0798 129.001C39.3299 129.009 39.5748 128.928 39.7695 128.77C39.9642 128.613 40.0957 128.391 40.1398 128.145C44.5379 125.866 48.7508 123.247 52.7398 120.311C53.0036 120.358 53.2754 120.299 53.4958 120.146C53.7161 119.994 53.8672 119.76 53.9158 119.497C54.0784 118.441 54.1706 117.376 54.1918 116.309C56.1258 117.637 60.9398 120.271 62.2038 120.929C81.1318 130.751 86.6358 133.823 88.3198 134.719C89.4178 135.305 90.0558 134.969 90.3438 134.319C91.6658 133.875 103.484 128.097 104.788 127.109C104.976 127.077 105.152 126.993 105.295 126.867C105.439 126.741 105.544 126.577 105.6 126.395C105.948 124.406 106.096 122.387 106.042 120.369C106.024 119.443 105.976 121.589 106.554 108.751C111.314 112.751 113.754 117.061 113.754 121.551C113.754 135.577 90.4818 146.989 61.8778 146.989C33.7578 146.989 10.0018 135.339 10.0018 121.551C9.99181 116.185 13.6538 110.883 20.2538 106.503L20.2578 106.511Z" fill="black"/>
<path d="M50.6078 137.415C50.7208 137.278 50.7978 137.115 50.8318 136.941C50.8686 136.77 50.8615 136.593 50.8111 136.426C50.7607 136.259 50.6687 136.108 50.5438 135.987C50.3548 135.845 50.1208 135.776 49.8852 135.793C49.6495 135.811 49.4281 135.913 49.2618 136.081C48.9931 136.359 48.792 136.696 48.6738 137.065C48.2738 136.481 46.7258 136.441 46.4478 136.881C46.3319 137.095 46.2877 137.34 46.3215 137.582C46.3553 137.823 46.4655 138.047 46.6358 138.221C47.7198 139.599 48.3258 139.021 48.4358 138.621C48.4484 138.724 48.4822 138.823 48.5349 138.913C48.5876 139.002 48.6581 139.08 48.7422 139.141C48.8262 139.202 48.9219 139.246 49.0233 139.268C49.1248 139.291 49.2298 139.292 49.3318 139.273C49.4933 139.502 49.7285 139.669 49.9982 139.746C50.2679 139.822 50.5558 139.804 50.8138 139.695L51.2958 139.315C52.8238 138.473 51.9278 136.791 50.6078 137.415Z" fill="black"/>
<path d="M62.0778 130.615C62.3458 131.735 64.2658 131.165 64.2538 130.511C64.2538 130.449 64.2338 130.387 64.2298 130.323C64.2595 130.419 64.3092 130.508 64.3756 130.584C64.4421 130.66 64.5239 130.722 64.6156 130.764C64.7074 130.806 64.807 130.829 64.908 130.83C65.009 130.831 65.1091 130.811 65.2018 130.771C65.2838 131.431 65.8378 131.869 67.1758 131.141C67.3752 131.085 67.548 130.96 67.6628 130.788C67.7776 130.615 67.8267 130.408 67.8013 130.202C67.7759 129.997 67.6775 129.807 67.5242 129.668C67.3709 129.529 67.1727 129.45 66.9658 129.445C66.4058 129.445 66.4818 129.411 66.0758 129.665C66.1008 129.252 66.1008 128.839 66.0758 128.427C66.0402 128.244 65.9489 128.077 65.8146 127.948C65.6802 127.819 65.5093 127.735 65.3253 127.707C65.1413 127.68 64.9532 127.709 64.7868 127.793C64.6204 127.876 64.4838 128.009 64.3958 128.173C64.2326 128.618 64.1389 129.085 64.1178 129.559C63.4858 127.373 61.3678 128.359 61.7858 129.683C61.7778 129.783 62.0418 130.455 62.0778 130.615Z" fill="black"/>
<path d="M2.08306 23.1165H12.4356C12.9861 23.1166 13.5143 22.901 13.9046 22.5171C14.2949 22.1331 14.5157 21.6119 14.5187 21.0675V9.67554H2.08306C1.5306 9.67554 1.00077 9.89259 0.610115 10.2789C0.219465 10.6653 0 11.1893 0 11.7357V21.0675C0.002963 21.6119 0.223735 22.1331 0.614065 22.5171C1.00439 22.901 1.53254 23.1166 2.08306 23.1165Z" fill="#3E3E3F"/>
<path d="M16.5917 23.1189H26.9061C27.1798 23.1189 27.4509 23.0656 27.7038 22.9619C27.9566 22.8582 28.1864 22.7063 28.3798 22.5147C28.5733 22.3232 28.7267 22.0958 28.8312 21.8456C28.9358 21.5954 28.9895 21.3273 28.9892 21.0565V11.1482C28.9891 10.191 28.6804 9.25882 28.108 8.48705L23.2422 1.90293C23.0759 1.68279 22.8602 1.50386 22.612 1.38026C22.3639 1.25666 22.0901 1.19176 21.8122 1.19069C21.5344 1.18961 21.2601 1.25239 21.0109 1.37406C20.7618 1.49574 20.5447 1.67299 20.3766 1.89184L14.5176 9.6757V21.0676C14.5199 21.6109 14.7392 22.1313 15.1277 22.5155C15.5161 22.8997 16.0423 23.1166 16.5917 23.1189Z" fill="black"/>
<path d="M6.20723 1.44591L1.76082 7.347C1.59751 7.5639 1.49835 7.82141 1.47441 8.0908C1.45048 8.36018 1.50271 8.63085 1.62527 8.87259C1.74783 9.11433 1.9359 9.31763 2.1685 9.4598C2.40109 9.60197 2.66906 9.67742 2.94249 9.67772H14.5215L20.0555 2.33074C20.2192 2.11324 20.3185 1.85491 20.3421 1.58473C20.3657 1.31456 20.3127 1.04322 20.189 0.801177C20.0654 0.559132 19.876 0.355954 19.6421 0.214439C19.4082 0.072925 19.139 -0.00132596 18.8648 1.7924e-05L8.99885 0.0554585C8.45638 0.0572644 7.92177 0.183828 7.43727 0.425147C6.95277 0.666466 6.53167 1.01593 6.20723 1.44591Z" fill="#1E1E1E"/>
<path d="M50.5617 11.2166C50.3734 11.0495 50.2239 10.8441 50.1237 10.6143C50.0234 10.3846 49.9747 10.1361 49.981 9.88601C49.9765 9.63613 50.026 9.38817 50.1261 9.15872C50.2263 8.92926 50.3748 8.72359 50.5617 8.55543C50.972 8.19207 51.5093 8.00115 52.0596 8.0232C52.6041 8.00345 53.135 8.19438 53.5395 8.55543C53.7255 8.7243 53.8734 8.93011 53.9735 9.1594C54.0736 9.38869 54.1236 9.63629 54.1202 9.88601C54.1259 10.1361 54.0769 10.3844 53.9767 10.614C53.8765 10.8436 53.7273 11.0492 53.5395 11.2166C53.1358 11.5793 52.6046 11.7711 52.0596 11.751C51.5088 11.7734 50.9712 11.5816 50.5617 11.2166Z" fill="black"/>
<path d="M53.8874 12.9021H50.2168V23.1165H53.8874V12.9021Z" fill="black"/>
<path d="M125.001 8.20508V23.1119H121.33V8.20508H125.001Z" fill="black"/>
<path d="M78.1963 13.4653C77.7264 12.6964 77.0399 12.0799 76.2209 11.6912C75.3221 11.2688 74.3368 11.0578 73.3418 11.0747C72.4047 11.0614 71.4771 11.2617 70.6309 11.6601C69.8472 12.0276 69.1655 12.5778 68.6443 13.2635C68.3076 13.7049 68.0415 14.1948 67.855 14.716L71.2857 15.5787C71.3785 15.142 71.6209 14.7503 71.9718 14.4698C72.3487 14.1892 72.8122 14.0466 73.2835 14.0662C73.5424 14.0544 73.8007 14.0993 74.0399 14.1979C74.2791 14.2964 74.4932 14.4461 74.667 14.6362C75.0283 15.0739 75.2221 15.6235 75.2141 16.1885H72.5234C70.8193 16.1885 69.5382 16.5315 68.6802 17.2175C68.0231 17.7468 67.5826 18.494 67.4403 19.3203C67.298 20.1465 67.4637 20.9958 67.9066 21.7104C68.2533 22.2373 68.7396 22.66 69.3125 22.9323C69.9312 23.2298 70.6112 23.3817 71.2991 23.3758C72.1106 23.3805 72.9121 23.1982 73.6401 22.8436C74.292 22.5617 74.8401 22.0877 75.2097 21.4864L75.7747 23.143H78.9139V16.1508C78.9305 15.2072 78.6821 14.2776 78.1963 13.4653ZM75.1895 18.2531C75.1969 18.6963 75.0653 19.131 74.8128 19.4972C74.5666 19.8536 74.2293 20.139 73.8351 20.3244C73.4478 20.5124 73.0221 20.6102 72.5907 20.6104C72.208 20.6309 71.8307 20.5144 71.5278 20.2822C71.4016 20.1633 71.302 20.0195 71.2357 19.86C71.1693 19.7006 71.1377 19.5291 71.1427 19.3567C71.1478 19.1843 71.1895 19.015 71.2651 18.8596C71.3408 18.7042 71.4486 18.5663 71.5817 18.4549C71.8754 18.2332 72.3216 18.1045 72.927 18.1045H75.2029L75.1895 18.2531Z" fill="black"/>
<path d="M94.1311 23.1186L91.0077 17.2752C91.7629 16.9823 92.419 16.4841 92.9001 15.8382C93.4656 15.0647 93.7636 14.1314 93.75 13.177V12.9043C93.7605 12.0675 93.5453 11.2431 93.1266 10.5159C92.6864 9.77903 92.0315 9.19081 91.2476 8.82828C90.2975 8.39017 89.2573 8.17682 88.2093 8.20513H81.0879V23.112H84.7585V17.7808H87.494L89.9874 23.1275L94.1311 23.1186ZM84.7585 11.2277H87.9963C88.6675 11.2277 89.172 11.3904 89.5098 11.7156C89.6807 11.8919 89.8134 12.1009 89.8998 12.3297C89.9861 12.5585 90.0244 12.8023 90.0121 13.0462V13.3256C90.028 13.5773 89.9916 13.8295 89.9053 14.0667C89.8189 14.3039 89.6843 14.5211 89.5098 14.705C89.172 15.0302 88.6675 15.1936 87.9963 15.1951H84.7585V11.2277Z" fill="black"/>
<path d="M106.619 16.9939C106.642 15.9055 106.378 14.83 105.852 13.8737C105.361 13.0001 104.625 12.2854 103.733 11.8158C102.779 11.3241 101.716 11.0778 100.641 11.0995C99.5419 11.0805 98.4562 11.3384 97.4859 11.849C96.5806 12.335 95.8392 13.0729 95.3535 13.9713C94.8295 14.9671 94.5688 16.0779 94.5956 17.2001C94.5956 21.1342 97.3402 23.2831 100.661 23.2831C103.323 23.2831 105.246 22.0146 106.204 20.0831L102.594 19.1827C102.273 19.8946 101.493 20.3314 100.54 20.3314C99.1631 20.3314 98.3133 19.3379 98.2483 18.0628L106.556 18.0495C106.598 17.6992 106.619 17.3467 106.619 16.9939ZM98.2685 16.047C98.3315 15.4658 98.6103 14.9284 99.051 14.539C99.4874 14.1811 100.041 13.9927 100.607 14.009C101.195 13.9889 101.768 14.1857 102.217 14.5612C102.431 14.7449 102.6 14.9739 102.712 15.2311C102.823 15.4884 102.875 15.7672 102.863 16.047H98.2685Z" fill="black"/>
<path d="M118.466 13.4653C117.997 12.6954 117.311 12.0786 116.491 11.6912C115.593 11.2688 114.608 11.0578 113.614 11.0747C112.675 11.0609 111.745 11.2612 110.896 11.6601C110.113 12.0284 109.432 12.5785 108.91 13.2635C108.575 13.706 108.309 14.1956 108.12 14.716L111.551 15.5787C111.645 15.1417 111.888 14.7501 112.239 14.4698C112.616 14.1896 113.078 14.0469 113.549 14.0662C113.808 14.0542 114.067 14.0991 114.306 14.1976C114.546 14.2961 114.76 14.4459 114.935 14.6362C115.295 15.0743 115.489 15.6237 115.482 16.1885H112.791C111.087 16.1885 109.806 16.5315 108.948 17.2175C108.291 17.7468 107.85 18.494 107.708 19.3203C107.566 20.1465 107.731 20.9958 108.174 21.7104C108.521 22.2373 109.007 22.66 109.58 22.9323C110.199 23.2301 110.879 23.3819 111.567 23.3758C112.38 23.3724 113.182 23.1818 113.908 22.8192C114.56 22.5373 115.108 22.0633 115.477 21.462L116.042 23.1186H119.181V16.1508C119.2 15.2072 118.953 14.2772 118.466 13.4653ZM115.462 18.2531C115.469 18.6963 115.337 19.131 115.085 19.4972C114.839 19.8536 114.501 20.139 114.107 20.3244C113.72 20.5119 113.294 20.6098 112.863 20.6104C112.476 20.6338 112.094 20.5172 111.789 20.2822C111.662 20.1637 111.562 20.0199 111.495 19.8604C111.428 19.7009 111.396 19.5292 111.401 19.3566C111.406 19.1841 111.448 19.0145 111.524 18.8591C111.6 18.7037 111.709 18.5659 111.843 18.4549C112.141 18.2228 112.59 18.106 113.188 18.1045H115.466L115.462 18.2531Z" fill="black"/>
<path d="M61.3619 23.3513C60.7222 23.3506 60.0984 23.1539 59.5764 22.7881C59.0543 22.4224 58.6598 21.9056 58.447 21.3089C57.5501 18.7985 54.8594 11.2786 54.8594 11.2786H58.7475L61.3507 19.7366H61.3732L63.9697 11.2874H67.878C67.878 11.2874 65.176 18.8074 64.2791 21.3177C64.0647 21.9131 63.6692 22.4283 63.1468 22.7924C62.6245 23.1565 62.001 23.3518 61.3619 23.3513Z" fill="black"/>
<path d="M34.6504 8.2207H38.5676L42.1239 19.4507H42.144L45.7317 8.2207H49.6175C49.6175 8.2207 45.9581 18.7988 45.0612 21.3047C44.848 21.9007 44.4532 22.4167 43.9311 22.7817C43.4091 23.1466 42.7856 23.3426 42.1463 23.3426C41.507 23.3426 40.8835 23.1466 40.3614 22.7817C39.8394 22.4167 39.4446 21.9007 39.2313 21.3047L34.6504 8.2207Z" fill="black"/>
</svg>
